<svg width="280" height="42" viewBox="0 0 280 42" fill="none" xmlns="http://www.w3.org/2000/svg">
<path d="M5.71923 38.9457H10.0777C10.7623 38.9457 11.3176 38.4199 11.3176 37.722C11.3176 37.0241 10.7627 36.4983 10.0777 36.4983H5.71923C3.88431 36.4983 2.40069 34.8382 2.40069 32.8962V14.8798H32.4092V19.4817C32.4092 20.1796 33.1251 20.7457 33.8096 20.7457C34.4942 20.7457 35.21 20.18 35.21 19.4817V9.12599C35.21 5.83304 32.1744 3.05078 28.9787 3.05078H5.71923C2.51712 3.05078 0 5.77594 0 9.12599V32.8962C0 36.2319 2.51712 38.9457 5.71923 38.9457ZM2.40069 9.12599C2.40069 7.20317 3.91552 5.49816 5.71923 5.49816H28.9787C30.83 5.49816 32.4092 7.20317 32.4092 9.12599V12.4324H2.40069V9.12599Z" fill="#0C0C0C"/>
<path d="M28.1821 7.94531H27.6864C27.0018 7.94531 26.4464 8.67504 26.4464 9.37295C26.4464 10.0709 27.0014 10.8006 27.6864 10.8006H28.1821C28.8667 10.8006 29.4221 10.0709 29.4221 9.37295C29.4221 8.67504 28.8667 7.94531 28.1821 7.94531ZM23.9669 7.94531H23.4712C22.7866 7.94531 22.2312 8.67504 22.2312 9.37295C22.2312 10.0709 22.7862 10.8006 23.4712 10.8006H23.9669C24.6515 10.8006 25.2069 10.0709 25.2069 9.37295C25.2069 8.67504 24.6515 7.94531 23.9669 7.94531ZM19.5036 7.94531H19.0079C18.3233 7.94531 17.768 8.67504 17.768 9.37295C17.768 10.0709 18.3229 10.8006 19.0079 10.8006H19.5036C20.1882 10.8006 20.7436 10.0709 20.7436 9.37295C20.7436 8.67504 20.1882 7.94531 19.5036 7.94531ZM22.8086 20.6452C17.3718 20.6452 12.4068 24.1257 10.4062 29.3064C10.4062 29.3064 13.009 39.0772 22.8086 38.8643C33.1627 38.6395 35.2133 29.3064 35.2133 29.3064C33.2128 24.1257 28.2469 20.6452 22.8086 20.6452ZM22.897 36.3365C18.6422 36.3365 14.7563 33.7109 13.0798 29.7547C14.7559 25.7985 18.6422 23.1729 22.897 23.1729C27.153 23.1729 31.0397 25.7985 32.7162 29.7547C31.0401 33.7109 27.153 36.3365 22.897 36.3365Z" fill="#0C0C0C"/>
<path d="M22.8891 24.8506C20.2363 24.8506 18.0781 27.0504 18.0781 29.7547C18.0781 32.4591 20.2363 34.6589 22.8891 34.6589C25.5419 34.6589 27.6997 32.4591 27.6997 29.7547C27.6997 27.0504 25.5419 24.8506 22.8891 24.8506ZM22.8891 32.1311C21.6035 32.1311 20.5576 31.0649 20.5576 29.7547C20.5576 28.4446 21.6035 27.3783 22.8891 27.3783C24.1747 27.3783 25.2202 28.4446 25.2202 29.7547C25.2202 31.0649 24.1747 32.1311 22.8891 32.1311Z" fill="#0C0C0C"/>
<path d="M6.04648 40.9995H10.6543C11.3781 40.9995 11.9652 40.4436 11.9652 39.7058C11.9652 38.968 11.3785 38.4121 10.6543 38.4121H6.04648C4.10656 38.4121 2.53805 36.657 2.53805 34.6038V15.5566H34.2636V20.4218C34.2636 21.1597 35.0204 21.7582 35.7442 21.7582C36.4679 21.7582 37.2247 21.1601 37.2247 20.4218V9.4736C37.2247 5.99224 34.0153 3.05078 30.6368 3.05078H6.04648C2.66114 3.05078 0 5.93186 0 9.4736V34.6038C0 38.1305 2.66114 40.9995 6.04648 40.9995ZM2.53805 9.4736C2.53805 7.44076 4.13956 5.63819 6.04648 5.63819H30.6368C32.594 5.63819 34.2636 7.44076 34.2636 9.4736V12.9692H2.53805V9.4736Z" fill="#0C0C0C"/>
<path d="M29.793 8.22559H29.2689C28.5451 8.22559 27.958 8.99707 27.958 9.73491C27.958 10.4728 28.5447 11.2442 29.2689 11.2442H29.793C30.5167 11.2442 31.1039 10.4728 31.1039 9.73491C31.1039 8.99707 30.5167 8.22559 29.793 8.22559ZM25.3366 8.22559H24.8125C24.0887 8.22559 23.5016 8.99707 23.5016 9.73491C23.5016 10.4728 24.0883 11.2442 24.8125 11.2442H25.3366C26.0603 11.2442 26.6475 10.4728 26.6475 9.73491C26.6475 8.99707 26.0603 8.22559 25.3366 8.22559ZM20.6179 8.22559H20.0938C19.3701 8.22559 18.7829 8.99707 18.7829 9.73491C18.7829 10.4728 19.3696 11.2442 20.0938 11.2442H20.6179C21.3417 11.2442 21.9288 10.4728 21.9288 9.73491C21.9288 8.99707 21.3417 8.22559 20.6179 8.22559ZM24.112 21.6521C18.3641 21.6521 13.115 25.3318 11 30.809C11 30.809 13.7517 41.1388 24.112 40.9137C35.0586 40.6761 37.2265 30.809 37.2265 30.809C35.1115 25.3318 29.8615 21.6521 24.112 21.6521ZM24.2055 38.2413C19.7072 38.2413 15.5989 35.4654 13.8265 31.2829C15.5985 27.1003 19.7072 24.3245 24.2055 24.3245C28.705 24.3245 32.8141 27.1003 34.5865 31.2829C32.8145 35.4654 28.705 38.2413 24.2055 38.2413Z" fill="#0C0C0C"/>
<path d="M24.2112 26.0977C21.4067 26.0977 19.125 28.4233 19.125 31.2824C19.125 34.1415 21.4067 36.4671 24.2112 36.4671C27.0158 36.4671 29.2971 34.1415 29.2971 31.2824C29.2971 28.4233 27.0158 26.0977 24.2112 26.0977ZM24.2112 33.7948C22.8521 33.7948 21.7464 32.6675 21.7464 31.2824C21.7464 29.8973 22.8521 28.77 24.2112 28.77C25.5704 28.77 26.6757 29.8973 26.6757 31.2824C26.6757 32.6675 25.5704 33.7948 24.2112 33.7948Z" fill="#0C0C0C"/>
<path d="M7.75048 38.9457H12.1089C12.7935 38.9457 13.3489 38.4199 13.3489 37.722C13.3489 37.0241 12.7939 36.4983 12.1089 36.4983H7.75048C5.91556 36.4983 4.43194 34.8382 4.43194 32.8962V14.8798H34.4405V19.4817C34.4405 20.1796 35.1563 20.7457 35.8409 20.7457C36.5255 20.7457 37.2413 20.18 37.2413 19.4817V9.12599C37.2413 5.83304 34.2056 3.05078 31.0099 3.05078H7.75048C4.54837 3.05078 2.03125 5.77594 2.03125 9.12599V32.8962C2.03125 36.2319 4.54837 38.9457 7.75048 38.9457ZM4.43194 9.12599C4.43194 7.20317 5.94677 5.49816 7.75048 5.49816H31.0099C32.8612 5.49816 34.4405 7.20317 34.4405 9.12599V12.4324H4.43194V9.12599Z" fill="#0C0C0C"/>
<path d="M30.2134 7.94531H29.7176C29.033 7.94531 28.4777 8.67504 28.4777 9.37295C28.4777 10.0709 29.0326 10.8006 29.7176 10.8006H30.2134C30.898 10.8006 31.4533 10.0709 31.4533 9.37295C31.4533 8.67504 30.898 7.94531 30.2134 7.94531ZM25.9982 7.94531H25.5024C24.8178 7.94531 24.2625 8.67504 24.2625 9.37295C24.2625 10.0709 24.8174 10.8006 25.5024 10.8006H25.9982C26.6828 10.8006 27.2381 10.0709 27.2381 9.37295C27.2381 8.67504 26.6828 7.94531 25.9982 7.94531ZM21.5349 7.94531H21.0392C20.3546 7.94531 19.7992 8.67504 19.7992 9.37295C19.7992 10.0709 20.3542 10.8006 21.0392 10.8006H21.5349C22.2195 10.8006 22.7748 10.0709 22.7748 9.37295C22.7748 8.67504 22.2195 7.94531 21.5349 7.94531ZM24.8398 20.6452C19.4031 20.6452 14.4381 24.1257 12.4375 29.3064C12.4375 29.3064 15.0402 39.0772 24.8398 38.8643C35.194 38.6395 37.2446 29.3064 37.2446 29.3064C35.244 24.1257 30.2782 20.6452 24.8398 20.6452ZM24.9283 36.3365C20.6735 36.3365 16.7875 33.7109 15.1111 29.7547C16.7871 25.7985 20.6735 23.1729 24.9283 23.1729C29.1843 23.1729 33.071 25.7985 34.7475 29.7547C33.0714 33.7109 29.1843 36.3365 24.9283 36.3365Z" fill="#0C0C0C"/>
<path d="M24.9203 24.8506C22.2676 24.8506 20.1094 27.0504 20.1094 29.7547C20.1094 32.4591 22.2676 34.6589 24.9203 34.6589C27.5731 34.6589 29.7309 32.4591 29.7309 29.7547C29.7309 27.0504 27.5731 24.8506 24.9203 24.8506ZM24.9203 32.1311C23.6348 32.1311 22.5889 31.0649 22.5889 29.7547C22.5889 28.4446 23.6348 27.3783 24.9203 27.3783C26.2059 27.3783 27.2514 28.4446 27.2514 29.7547C27.2514 31.0649 26.2059 32.1311 24.9203 32.1311Z" fill="#0C0C0C"/>
<path d="M5.71923 36.8949H10.0777C10.7623 36.8949 11.3176 36.3691 11.3176 35.6712C11.3176 34.9733 10.7627 34.4475 10.0777 34.4475H5.71923C3.88431 34.4475 2.40069 32.7874 2.40069 30.8454V12.829H32.4092V17.4309C32.4092 18.1288 33.1251 18.695 33.8096 18.695C34.4942 18.695 35.21 18.1292 35.21 17.4309V7.07521C35.21 3.78226 32.1744 1 28.9787 1H5.71923C2.51712 1 0 3.72516 0 7.07521V30.8454C0 34.1812 2.51712 36.8949 5.71923 36.8949ZM2.40069 7.07521C2.40069 5.15239 3.91552 3.44738 5.71923 3.44738H28.9787C30.83 3.44738 32.4092 5.15239 32.4092 7.07521V10.3816H2.40069V7.07521Z" fill="white"/>
<path d="M28.1821 5.89453H27.6864C27.0018 5.89453 26.4464 6.62426 26.4464 7.32217C26.4464 8.02008 27.0014 8.74981 27.6864 8.74981H28.1821C28.8667 8.74981 29.4221 8.02008 29.4221 7.32217C29.4221 6.62426 28.8667 5.89453 28.1821 5.89453ZM23.9669 5.89453H23.4712C22.7866 5.89453 22.2312 6.62426 22.2312 7.32217C22.2312 8.02008 22.7862 8.74981 23.4712 8.74981H23.9669C24.6515 8.74981 25.2069 8.02008 25.2069 7.32217C25.2069 6.62426 24.6515 5.89453 23.9669 5.89453ZM19.5036 5.89453H19.0079C18.3233 5.89453 17.768 6.62426 17.768 7.32217C17.768 8.02008 18.3229 8.74981 19.0079 8.74981H19.5036C20.1882 8.74981 20.7436 8.02008 20.7436 7.32217C20.7436 6.62426 20.1882 5.89453 19.5036 5.89453ZM22.8086 18.5944C17.3718 18.5944 12.4068 22.075 10.4062 27.2557C10.4062 27.2557 13.009 37.0264 22.8086 36.8135C33.1627 36.5887 35.2133 27.2557 35.2133 27.2557C33.2128 22.075 28.2469 18.5944 22.8086 18.5944ZM22.897 34.2858C18.6422 34.2858 14.7563 31.6601 13.0798 27.7039C14.7559 23.7478 18.6422 21.1221 22.897 21.1221C27.153 21.1221 31.0397 23.7478 32.7162 27.7039C31.0401 31.6601 27.153 34.2858 22.897 34.2858Z" fill="white"/>
<path d="M22.8891 22.7998C20.2363 22.7998 18.0781 24.9996 18.0781 27.7039C18.0781 30.4083 20.2363 32.6081 22.8891 32.6081C25.5419 32.6081 27.6997 30.4083 27.6997 27.7039C27.6997 24.9996 25.5419 22.7998 22.8891 22.7998ZM22.8891 30.0803C21.6035 30.0803 20.5576 29.0141 20.5576 27.7039C20.5576 26.3938 21.6035 25.3275 22.8891 25.3275C24.1747 25.3275 25.2202 26.3938 25.2202 27.7039C25.2202 29.0141 24.1747 30.0803 22.8891 30.0803Z" fill="white"/>
<mask id="path-13-outside-1_6307_34581" maskUnits="userSpaceOnUse" x="108.891" y="0.617188" width="12" height="20" fill="black">
<rect fill="white" x="108.891" y="0.617188" width="12" height="20"/>
<path d="M110.891 18.0682V2.61719H118.211V5.15313H114.681V8.70869H117.766V11.5584H114.681V15.5845H118.211V18.0682H110.891Z"/>
</mask>
<path d="M110.891 18.0682V2.61719H118.211V5.15313H114.681V8.70869H117.766V11.5584H114.681V15.5845H118.211V18.0682H110.891Z" fill="white"/>
<path d="M110.891 18.0682V2.61719H118.211V5.15313H114.681V8.70869H117.766V11.5584H114.681V15.5845H118.211V18.0682H110.891Z" stroke="black" stroke-width="4" mask="url(#path-13-outside-1_6307_34581)"/>
<mask id="path-14-outside-2_6307_34581" maskUnits="userSpaceOnUse" x="99.5859" y="0.617188" width="13" height="20" fill="black">
<rect fill="white" x="99.5859" y="0.617188" width="13" height="20"/>
<path d="M103.887 18.0682V5.15313H101.586V2.61719H109.821V5.15313H107.494V18.0682H103.887Z"/>
</mask>
<path d="M103.887 18.0682V5.15313H101.586V2.61719H109.821V5.15313H107.494V18.0682H103.887Z" fill="white"/>
<path d="M103.887 18.0682V5.15313H101.586V2.61719H109.821V5.15313H107.494V18.0682H103.887Z" stroke="black" stroke-width="4" mask="url(#path-14-outside-2_6307_34581)"/>
<mask id="path-15-outside-3_6307_34581" maskUnits="userSpaceOnUse" x="88.7969" y="0.617188" width="16" height="20" fill="black">
<rect fill="white" x="88.7969" y="0.617188" width="16" height="20"/>
<path d="M91.7969 18.0682L94.2544 2.61719H99.5616L101.967 18.0682H97.9145L97.5747 15.5322H96.006L95.7184 18.0682H91.7969ZM96.0322 13.7544H97.5747L96.8165 5.62372L96.0322 13.7544Z"/>
</mask>
<path d="M91.7969 18.0682L94.2544 2.61719H99.5616L101.967 18.0682H97.9145L97.5747 15.5322H96.006L95.7184 18.0682H91.7969ZM96.0322 13.7544H97.5747L96.8165 5.62372L96.0322 13.7544Z" fill="white"/>
<path d="M91.7969 18.0682L94.2544 2.61719H99.5616L101.967 18.0682H97.9145L97.5747 15.5322H96.006L95.7184 18.0682H91.7969ZM96.0322 13.7544H97.5747L96.8165 5.62372L96.0322 13.7544Z" stroke="black" stroke-width="4" mask="url(#path-15-outside-3_6307_34581)"/>
<mask id="path-16-outside-4_6307_34581" maskUnits="userSpaceOnUse" x="76.4453" y="0.617188" width="17" height="20" fill="black">
<rect fill="white" x="76.4453" y="0.617188" width="17" height="20"/>
<path d="M78.4453 18.0682V2.61719H83.0205L84.6152 11.5061L86.2362 2.61719H90.7852V18.0682H87.5956V6.93091L85.844 18.0682H83.3865L81.6349 6.93091V18.0682H78.4453Z"/>
</mask>
<path d="M78.4453 18.0682V2.61719H83.0205L84.6152 11.5061L86.2362 2.61719H90.7852V18.0682H87.5956V6.93091L85.844 18.0682H83.3865L81.6349 6.93091V18.0682H78.4453Z" fill="white"/>
<path d="M78.4453 18.0682V2.61719H83.0205L84.6152 11.5061L86.2362 2.61719H90.7852V18.0682H87.5956V6.93091L85.844 18.0682H83.3865L81.6349 6.93091V18.0682H78.4453Z" stroke="black" stroke-width="4" mask="url(#path-16-outside-4_6307_34581)"/>
<mask id="path-17-outside-5_6307_34581" maskUnits="userSpaceOnUse" x="71.0859" y="0.617188" width="8" height="20" fill="black">
<rect fill="white" x="71.0859" y="0.617188" width="8" height="20"/>
<path d="M73.0859 18.0682V2.61719H76.7199V18.0682H73.0859Z"/>
</mask>
<path d="M73.0859 18.0682V2.61719H76.7199V18.0682H73.0859Z" fill="white"/>
<path d="M73.0859 18.0682V2.61719H76.7199V18.0682H73.0859Z" stroke="black" stroke-width="4" mask="url(#path-17-outside-5_6307_34581)"/>
<mask id="path-18-outside-6_6307_34581" maskUnits="userSpaceOnUse" x="61.7734" y="0.617188" width="13" height="20" fill="black">
<rect fill="white" x="61.7734" y="0.617188" width="13" height="20"/>
<path d="M66.0741 18.0682V5.15313H63.7734V2.61719H72.0087V5.15313H69.6819V18.0682H66.0741Z"/>
</mask>
<path d="M66.0741 18.0682V5.15313H63.7734V2.61719H72.0087V5.15313H69.6819V18.0682H66.0741Z" fill="white"/>
<path d="M66.0741 18.0682V5.15313H63.7734V2.61719H72.0087V5.15313H69.6819V18.0682H66.0741Z" stroke="black" stroke-width="4" mask="url(#path-18-outside-6_6307_34581)"/>
<mask id="path-19-outside-7_6307_34581" maskUnits="userSpaceOnUse" x="55.8438" y="0.617188" width="11" height="20" fill="black">
<rect fill="white" x="55.8438" y="0.617188" width="11" height="20"/>
<path d="M57.8438 18.0682V2.61719H61.4254V15.5845H64.5888V18.0682H57.8438Z"/>
</mask>
<path d="M57.8438 18.0682V2.61719H61.4254V15.5845H64.5888V18.0682H57.8438Z" fill="white"/>
<path d="M57.8438 18.0682V2.61719H61.4254V15.5845H64.5888V18.0682H57.8438Z" stroke="black" stroke-width="4" mask="url(#path-19-outside-7_6307_34581)"/>
<mask id="path-20-outside-8_6307_34581" maskUnits="userSpaceOnUse" x="45.2422" y="0.617188" width="13" height="20" fill="black">
<rect fill="white" x="45.2422" y="0.617188" width="13" height="20"/>
<path d="M51.6866 18.3819C51.0243 18.3819 50.423 18.3296 49.8827 18.225C49.3424 18.1379 48.8718 17.9549 48.4709 17.676C48.0875 17.3971 47.7825 16.9701 47.5559 16.395C47.3468 15.8024 47.2422 15.0093 47.2422 14.0159V2.61719H50.8762V15.0616C50.8762 15.3405 50.911 15.5671 50.9807 15.7414C51.0505 15.8982 51.1463 16.0115 51.2683 16.0812C51.3903 16.1335 51.5298 16.1597 51.6866 16.1597C51.8435 16.1597 51.9829 16.1335 52.1049 16.0812C52.2444 16.0115 52.3489 15.8982 52.4187 15.7414C52.4884 15.5671 52.5232 15.3405 52.5232 15.0616V2.61719H56.1311V13.9897C56.1311 14.9832 56.0265 15.7762 55.8173 16.3688C55.6082 16.9614 55.3032 17.3971 54.9023 17.676C54.5189 17.9549 54.0483 18.1379 53.4906 18.225C52.9502 18.3296 52.3489 18.3819 51.6866 18.3819Z"/>
</mask>
<path d="M51.6866 18.3819C51.0243 18.3819 50.423 18.3296 49.8827 18.225C49.3424 18.1379 48.8718 17.9549 48.4709 17.676C48.0875 17.3971 47.7825 16.9701 47.5559 16.395C47.3468 15.8024 47.2422 15.0093 47.2422 14.0159V2.61719H50.8762V15.0616C50.8762 15.3405 50.911 15.5671 50.9807 15.7414C51.0505 15.8982 51.1463 16.0115 51.2683 16.0812C51.3903 16.1335 51.5298 16.1597 51.6866 16.1597C51.8435 16.1597 51.9829 16.1335 52.1049 16.0812C52.2444 16.0115 52.3489 15.8982 52.4187 15.7414C52.4884 15.5671 52.5232 15.3405 52.5232 15.0616V2.61719H56.1311V13.9897C56.1311 14.9832 56.0265 15.7762 55.8173 16.3688C55.6082 16.9614 55.3032 17.3971 54.9023 17.676C54.5189 17.9549 54.0483 18.1379 53.4906 18.225C52.9502 18.3296 52.3489 18.3819 51.6866 18.3819Z" fill="white"/>
<path d="M51.6866 18.3819C51.0243 18.3819 50.423 18.3296 49.8827 18.225C49.3424 18.1379 48.8718 17.9549 48.4709 17.676C48.0875 17.3971 47.7825 16.9701 47.5559 16.395C47.3468 15.8024 47.2422 15.0093 47.2422 14.0159V2.61719H50.8762V15.0616C50.8762 15.3405 50.911 15.5671 50.9807 15.7414C51.0505 15.8982 51.1463 16.0115 51.2683 16.0812C51.3903 16.1335 51.5298 16.1597 51.6866 16.1597C51.8435 16.1597 51.9829 16.1335 52.1049 16.0812C52.2444 16.0115 52.3489 15.8982 52.4187 15.7414C52.4884 15.5671 52.5232 15.3405 52.5232 15.0616V2.61719H56.1311V13.9897C56.1311 14.9832 56.0265 15.7762 55.8173 16.3688C55.6082 16.9614 55.3032 17.3971 54.9023 17.676C54.5189 17.9549 54.0483 18.1379 53.4906 18.225C52.9502 18.3296 52.3489 18.3819 51.6866 18.3819Z" stroke="black" stroke-width="4" mask="url(#path-20-outside-8_6307_34581)"/>
<path d="M110.891 18.0682V2.61719H118.211V5.15313H114.681V8.70869H117.766V11.5584H114.681V15.5845H118.211V18.0682H110.891Z" fill="white"/>
<path d="M103.887 18.0682V5.15313H101.586V2.61719H109.821V5.15313H107.494V18.0682H103.887Z" fill="white"/>
<path d="M91.7969 18.0682L94.2544 2.61719H99.5616L101.967 18.0682H97.9145L97.5747 15.5322H96.006L95.7184 18.0682H91.7969ZM96.0322 13.7544H97.5747L96.8165 5.62372L96.0322 13.7544Z" fill="white"/>
<path d="M78.4453 18.0682V2.61719H83.0205L84.6152 11.5061L86.2362 2.61719H90.7852V18.0682H87.5956V6.93091L85.844 18.0682H83.3865L81.6349 6.93091V18.0682H78.4453Z" fill="white"/>
<path d="M73.0859 18.0682V2.61719H76.7199V18.0682H73.0859Z" fill="white"/>
<path d="M66.0741 18.0682V5.15313H63.7734V2.61719H72.0087V5.15313H69.6819V18.0682H66.0741Z" fill="white"/>
<path d="M57.8438 18.0682V2.61719H61.4254V15.5845H64.5888V18.0682H57.8438Z" fill="white"/>
<path d="M51.6866 18.3819C51.0243 18.3819 50.423 18.3296 49.8827 18.225C49.3424 18.1379 48.8718 17.9549 48.4709 17.676C48.0875 17.3971 47.7825 16.9701 47.5559 16.395C47.3468 15.8024 47.2422 15.0093 47.2422 14.0159V2.61719H50.8762V15.0616C50.8762 15.3405 50.911 15.5671 50.9807 15.7414C51.0505 15.8982 51.1463 16.0115 51.2683 16.0812C51.3903 16.1335 51.5298 16.1597 51.6866 16.1597C51.8435 16.1597 51.9829 16.1335 52.1049 16.0812C52.2444 16.0115 52.3489 15.8982 52.4187 15.7414C52.4884 15.5671 52.5232 15.3405 52.5232 15.0616V2.61719H56.1311V13.9897C56.1311 14.9832 56.0265 15.7762 55.8173 16.3688C55.6082 16.9614 55.3032 17.3971 54.9023 17.676C54.5189 17.9549 54.0483 18.1379 53.4906 18.225C52.9502 18.3296 52.3489 18.3819 51.6866 18.3819Z" fill="white"/>
<mask id="path-29-outside-9_6307_34581" maskUnits="userSpaceOnUse" x="144.742" y="0.774414" width="21" height="20" fill="black">
<rect fill="white" x="144.742" y="0.774414" width="21" height="20"/>
<path d="M150.017 18.2254L147.742 2.77441H151.481L152.736 13.6241L154.017 2.77441H157.049L158.33 13.6241L159.585 2.77441H163.35L161.049 18.2254H156.814L155.533 10.4084L154.252 18.2254H150.017Z"/>
</mask>
<path d="M150.017 18.2254L147.742 2.77441H151.481L152.736 13.6241L154.017 2.77441H157.049L158.33 13.6241L159.585 2.77441H163.35L161.049 18.2254H156.814L155.533 10.4084L154.252 18.2254H150.017Z" fill="white"/>
<path d="M150.017 18.2254L147.742 2.77441H151.481L152.736 13.6241L154.017 2.77441H157.049L158.33 13.6241L159.585 2.77441H163.35L161.049 18.2254H156.814L155.533 10.4084L154.252 18.2254H150.017Z" stroke="black" stroke-width="4" mask="url(#path-29-outside-9_6307_34581)"/>
<mask id="path-30-outside-10_6307_34581" maskUnits="userSpaceOnUse" x="137.664" y="0.774414" width="12" height="20" fill="black">
<rect fill="white" x="137.664" y="0.774414" width="12" height="20"/>
<path d="M139.664 18.2254V2.77441H146.984V5.31036H143.455V8.86591H146.54V11.7156H143.455V15.7417H146.984V18.2254H139.664Z"/>
</mask>
<path d="M139.664 18.2254V2.77441H146.984V5.31036H143.455V8.86591H146.54V11.7156H143.455V15.7417H146.984V18.2254H139.664Z" fill="white"/>
<path d="M139.664 18.2254V2.77441H146.984V5.31036H143.455V8.86591H146.54V11.7156H143.455V15.7417H146.984V18.2254H139.664Z" stroke="black" stroke-width="4" mask="url(#path-30-outside-10_6307_34581)"/>
<mask id="path-31-outside-11_6307_34581" maskUnits="userSpaceOnUse" x="132.297" y="0.774414" width="8" height="20" fill="black">
<rect fill="white" x="132.297" y="0.774414" width="8" height="20"/>
<path d="M134.297 18.2254V2.77441H137.931V18.2254H134.297Z"/>
</mask>
<path d="M134.297 18.2254V2.77441H137.931V18.2254H134.297Z" fill="white"/>
<path d="M134.297 18.2254V2.77441H137.931V18.2254H134.297Z" stroke="black" stroke-width="4" mask="url(#path-31-outside-11_6307_34581)"/>
<mask id="path-32-outside-12_6307_34581" maskUnits="userSpaceOnUse" x="120.211" y="0.774414" width="16" height="20" fill="black">
<rect fill="white" x="120.211" y="0.774414" width="16" height="20"/>
<path d="M125.59 18.2254L123.211 2.77441H126.949L128.178 14.5391H128.204L129.564 2.77441H133.172L130.74 18.2254H125.59Z"/>
</mask>
<path d="M125.59 18.2254L123.211 2.77441H126.949L128.178 14.5391H128.204L129.564 2.77441H133.172L130.74 18.2254H125.59Z" fill="white"/>
<path d="M125.59 18.2254L123.211 2.77441H126.949L128.178 14.5391H128.204L129.564 2.77441H133.172L130.74 18.2254H125.59Z" stroke="black" stroke-width="4" mask="url(#path-32-outside-12_6307_34581)"/>
<path d="M150.017 18.2254L147.742 2.77441H151.481L152.736 13.6241L154.017 2.77441H157.049L158.33 13.6241L159.585 2.77441H163.35L161.049 18.2254H156.814L155.533 10.4084L154.252 18.2254H150.017Z" fill="white"/>
<path d="M139.664 18.2254V2.77441H146.984V5.31036H143.455V8.86591H146.54V11.7156H143.455V15.7417H146.984V18.2254H139.664Z" fill="white"/>
<path d="M134.297 18.2254V2.77441H137.931V18.2254H134.297Z" fill="white"/>
<path d="M125.59 18.2254L123.211 2.77441H126.949L128.178 14.5391H128.204L129.564 2.77441H133.172L130.74 18.2254H125.59Z" fill="white"/>
<mask id="path-37-outside-13_6307_34581" maskUnits="userSpaceOnUse" x="177.18" y="0.643555" width="14" height="20" fill="black">
<rect fill="white" x="177.18" y="0.643555" width="14" height="20"/>
<path d="M183.807 18.356C182.831 18.356 181.994 18.2252 181.297 17.9638C180.6 17.7024 180.069 17.2405 179.703 16.5782C179.354 15.9159 179.18 14.966 179.18 13.7285V12.7873C179.807 12.7873 180.435 12.7873 181.062 12.7873C181.707 12.7873 182.343 12.7873 182.971 12.7873V14.0422C182.971 14.6 183.005 15.027 183.075 15.3233C183.145 15.6022 183.241 15.7939 183.363 15.8985C183.502 16.003 183.668 16.0553 183.859 16.0553C184.156 16.0553 184.374 15.942 184.513 15.7154C184.67 15.4714 184.748 15.0008 184.748 14.3037C184.748 13.6937 184.652 13.2492 184.461 12.9703C184.286 12.6741 183.99 12.43 183.572 12.2383C183.154 12.0466 182.596 11.8113 181.899 11.5324C181.271 11.2361 180.766 10.8963 180.382 10.5128C179.999 10.1294 179.72 9.65009 179.546 9.07493C179.389 8.49976 179.31 7.82002 179.31 7.03571C179.31 5.97253 179.45 5.1185 179.729 4.47362C180.008 3.82874 180.478 3.36687 181.14 3.088C181.803 2.7917 182.718 2.64355 183.886 2.64355C185.367 2.64355 186.491 2.95728 187.258 3.58473C188.025 4.19475 188.408 5.1185 188.408 6.35597V8.26447C187.816 8.26447 187.215 8.26447 186.605 8.26447C186.012 8.26447 185.411 8.26447 184.801 8.26447V7.45401C184.801 6.72198 184.748 6.21654 184.644 5.93767C184.539 5.6588 184.295 5.51937 183.912 5.51937C183.581 5.51937 183.354 5.63266 183.232 5.85924C183.11 6.06839 183.049 6.41697 183.049 6.90499C183.049 7.46273 183.154 7.88974 183.363 8.18604C183.589 8.4649 183.877 8.68277 184.225 8.83963C184.574 8.97906 184.94 9.1185 185.323 9.25793C186.09 9.55423 186.709 9.85924 187.18 10.173C187.668 10.4693 188.025 10.8876 188.252 11.4279C188.478 11.9682 188.591 12.7438 188.591 13.7547C188.591 14.905 188.4 15.82 188.016 16.4998C187.633 17.1621 187.075 17.6414 186.343 17.9377C185.628 18.2165 184.783 18.356 183.807 18.356Z"/>
</mask>
<path d="M183.807 18.356C182.831 18.356 181.994 18.2252 181.297 17.9638C180.6 17.7024 180.069 17.2405 179.703 16.5782C179.354 15.9159 179.18 14.966 179.18 13.7285V12.7873C179.807 12.7873 180.435 12.7873 181.062 12.7873C181.707 12.7873 182.343 12.7873 182.971 12.7873V14.0422C182.971 14.6 183.005 15.027 183.075 15.3233C183.145 15.6022 183.241 15.7939 183.363 15.8985C183.502 16.003 183.668 16.0553 183.859 16.0553C184.156 16.0553 184.374 15.942 184.513 15.7154C184.67 15.4714 184.748 15.0008 184.748 14.3037C184.748 13.6937 184.652 13.2492 184.461 12.9703C184.286 12.6741 183.99 12.43 183.572 12.2383C183.154 12.0466 182.596 11.8113 181.899 11.5324C181.271 11.2361 180.766 10.8963 180.382 10.5128C179.999 10.1294 179.72 9.65009 179.546 9.07493C179.389 8.49976 179.31 7.82002 179.31 7.03571C179.31 5.97253 179.45 5.1185 179.729 4.47362C180.008 3.82874 180.478 3.36687 181.14 3.088C181.803 2.7917 182.718 2.64355 183.886 2.64355C185.367 2.64355 186.491 2.95728 187.258 3.58473C188.025 4.19475 188.408 5.1185 188.408 6.35597V8.26447C187.816 8.26447 187.215 8.26447 186.605 8.26447C186.012 8.26447 185.411 8.26447 184.801 8.26447V7.45401C184.801 6.72198 184.748 6.21654 184.644 5.93767C184.539 5.6588 184.295 5.51937 183.912 5.51937C183.581 5.51937 183.354 5.63266 183.232 5.85924C183.11 6.06839 183.049 6.41697 183.049 6.90499C183.049 7.46273 183.154 7.88974 183.363 8.18604C183.589 8.4649 183.877 8.68277 184.225 8.83963C184.574 8.97906 184.94 9.1185 185.323 9.25793C186.09 9.55423 186.709 9.85924 187.18 10.173C187.668 10.4693 188.025 10.8876 188.252 11.4279C188.478 11.9682 188.591 12.7438 188.591 13.7547C188.591 14.905 188.4 15.82 188.016 16.4998C187.633 17.1621 187.075 17.6414 186.343 17.9377C185.628 18.2165 184.783 18.356 183.807 18.356Z" fill="white"/>
<path d="M183.807 18.356C182.831 18.356 181.994 18.2252 181.297 17.9638C180.6 17.7024 180.069 17.2405 179.703 16.5782C179.354 15.9159 179.18 14.966 179.18 13.7285V12.7873C179.807 12.7873 180.435 12.7873 181.062 12.7873C181.707 12.7873 182.343 12.7873 182.971 12.7873V14.0422C182.971 14.6 183.005 15.027 183.075 15.3233C183.145 15.6022 183.241 15.7939 183.363 15.8985C183.502 16.003 183.668 16.0553 183.859 16.0553C184.156 16.0553 184.374 15.942 184.513 15.7154C184.67 15.4714 184.748 15.0008 184.748 14.3037C184.748 13.6937 184.652 13.2492 184.461 12.9703C184.286 12.6741 183.99 12.43 183.572 12.2383C183.154 12.0466 182.596 11.8113 181.899 11.5324C181.271 11.2361 180.766 10.8963 180.382 10.5128C179.999 10.1294 179.72 9.65009 179.546 9.07493C179.389 8.49976 179.31 7.82002 179.31 7.03571C179.31 5.97253 179.45 5.1185 179.729 4.47362C180.008 3.82874 180.478 3.36687 181.14 3.088C181.803 2.7917 182.718 2.64355 183.886 2.64355C185.367 2.64355 186.491 2.95728 187.258 3.58473C188.025 4.19475 188.408 5.1185 188.408 6.35597V8.26447C187.816 8.26447 187.215 8.26447 186.605 8.26447C186.012 8.26447 185.411 8.26447 184.801 8.26447V7.45401C184.801 6.72198 184.748 6.21654 184.644 5.93767C184.539 5.6588 184.295 5.51937 183.912 5.51937C183.581 5.51937 183.354 5.63266 183.232 5.85924C183.11 6.06839 183.049 6.41697 183.049 6.90499C183.049 7.46273 183.154 7.88974 183.363 8.18604C183.589 8.4649 183.877 8.68277 184.225 8.83963C184.574 8.97906 184.94 9.1185 185.323 9.25793C186.09 9.55423 186.709 9.85924 187.18 10.173C187.668 10.4693 188.025 10.8876 188.252 11.4279C188.478 11.9682 188.591 12.7438 188.591 13.7547C188.591 14.905 188.4 15.82 188.016 16.4998C187.633 17.1621 187.075 17.6414 186.343 17.9377C185.628 18.2165 184.783 18.356 183.807 18.356Z" stroke="black" stroke-width="4" mask="url(#path-37-outside-13_6307_34581)"/>
<mask id="path-38-outside-14_6307_34581" maskUnits="userSpaceOnUse" x="165.352" y="0.696289" width="16" height="20" fill="black">
<rect fill="white" x="165.352" y="0.696289" width="16" height="20"/>
<path d="M168.352 18.1473L170.809 2.69629H176.116L178.521 18.1473H174.469L174.129 15.6113H172.561L172.273 18.1473H168.352ZM172.587 13.8335H174.129L173.371 5.70282L172.587 13.8335Z"/>
</mask>
<path d="M168.352 18.1473L170.809 2.69629H176.116L178.521 18.1473H174.469L174.129 15.6113H172.561L172.273 18.1473H168.352ZM172.587 13.8335H174.129L173.371 5.70282L172.587 13.8335Z" fill="white"/>
<path d="M168.352 18.1473L170.809 2.69629H176.116L178.521 18.1473H174.469L174.129 15.6113H172.561L172.273 18.1473H168.352ZM172.587 13.8335H174.129L173.371 5.70282L172.587 13.8335Z" stroke="black" stroke-width="4" mask="url(#path-38-outside-14_6307_34581)"/>
<path d="M183.807 18.356C182.831 18.356 181.994 18.2252 181.297 17.9638C180.6 17.7024 180.069 17.2405 179.703 16.5782C179.354 15.9159 179.18 14.966 179.18 13.7285V12.7873C179.807 12.7873 180.435 12.7873 181.062 12.7873C181.707 12.7873 182.343 12.7873 182.971 12.7873V14.0422C182.971 14.6 183.005 15.027 183.075 15.3233C183.145 15.6022 183.241 15.7939 183.363 15.8985C183.502 16.003 183.668 16.0553 183.859 16.0553C184.156 16.0553 184.374 15.942 184.513 15.7154C184.67 15.4714 184.748 15.0008 184.748 14.3037C184.748 13.6937 184.652 13.2492 184.461 12.9703C184.286 12.6741 183.99 12.43 183.572 12.2383C183.154 12.0466 182.596 11.8113 181.899 11.5324C181.271 11.2361 180.766 10.8963 180.382 10.5128C179.999 10.1294 179.72 9.65009 179.546 9.07493C179.389 8.49976 179.31 7.82002 179.31 7.03571C179.31 5.97253 179.45 5.1185 179.729 4.47362C180.008 3.82874 180.478 3.36687 181.14 3.088C181.803 2.7917 182.718 2.64355 183.886 2.64355C185.367 2.64355 186.491 2.95728 187.258 3.58473C188.025 4.19475 188.408 5.1185 188.408 6.35597V8.26447C187.816 8.26447 187.215 8.26447 186.605 8.26447C186.012 8.26447 185.411 8.26447 184.801 8.26447V7.45401C184.801 6.72198 184.748 6.21654 184.644 5.93767C184.539 5.6588 184.295 5.51937 183.912 5.51937C183.581 5.51937 183.354 5.63266 183.232 5.85924C183.11 6.06839 183.049 6.41697 183.049 6.90499C183.049 7.46273 183.154 7.88974 183.363 8.18604C183.589 8.4649 183.877 8.68277 184.225 8.83963C184.574 8.97906 184.94 9.1185 185.323 9.25793C186.09 9.55423 186.709 9.85924 187.18 10.173C187.668 10.4693 188.025 10.8876 188.252 11.4279C188.478 11.9682 188.591 12.7438 188.591 13.7547C188.591 14.905 188.4 15.82 188.016 16.4998C187.633 17.1621 187.075 17.6414 186.343 17.9377C185.628 18.2165 184.783 18.356 183.807 18.356Z" fill="white"/>
<path d="M168.352 18.1473L170.809 2.69629H176.116L178.521 18.1473H174.469L174.129 15.6113H172.561L172.273 18.1473H168.352ZM172.587 13.8335H174.129L173.371 5.70282L172.587 13.8335Z" fill="white"/>
<mask id="path-41-outside-15_6307_34581" maskUnits="userSpaceOnUse" x="264.82" y="0.735352" width="15" height="20" fill="black">
<rect fill="white" x="264.82" y="0.735352" width="15" height="20"/>
<path d="M266.82 18.1863V2.73535H272.807C273.888 2.73535 274.69 2.97936 275.212 3.46738C275.735 3.93797 275.997 4.56542 275.997 5.34973V7.75496C275.997 8.52184 275.796 9.20158 275.395 9.79417C275.012 10.3868 274.358 10.7266 273.435 10.8138V10.8661C274.027 10.9706 274.446 11.1711 274.69 11.4674C274.934 11.7462 275.143 12.2081 275.317 12.853L276.729 18.1863H272.703L271.683 13.0883C271.596 12.7048 271.509 12.3998 271.422 12.1733C271.334 11.9292 271.212 11.8072 271.056 11.8072H270.611V18.1863H266.82ZM270.611 9.2713H271.422C271.77 9.2713 272.023 9.15801 272.18 8.93143C272.354 8.70485 272.441 8.33012 272.441 7.80724V6.02947C272.441 5.50659 272.372 5.14929 272.232 4.95757C272.093 4.76585 271.866 4.66999 271.552 4.66999H270.611V9.2713Z"/>
</mask>
<path d="M266.82 18.1863V2.73535H272.807C273.888 2.73535 274.69 2.97936 275.212 3.46738C275.735 3.93797 275.997 4.56542 275.997 5.34973V7.75496C275.997 8.52184 275.796 9.20158 275.395 9.79417C275.012 10.3868 274.358 10.7266 273.435 10.8138V10.8661C274.027 10.9706 274.446 11.1711 274.69 11.4674C274.934 11.7462 275.143 12.2081 275.317 12.853L276.729 18.1863H272.703L271.683 13.0883C271.596 12.7048 271.509 12.3998 271.422 12.1733C271.334 11.9292 271.212 11.8072 271.056 11.8072H270.611V18.1863H266.82ZM270.611 9.2713H271.422C271.77 9.2713 272.023 9.15801 272.18 8.93143C272.354 8.70485 272.441 8.33012 272.441 7.80724V6.02947C272.441 5.50659 272.372 5.14929 272.232 4.95757C272.093 4.76585 271.866 4.66999 271.552 4.66999H270.611V9.2713Z" fill="white"/>
<path d="M266.82 18.1863V2.73535H272.807C273.888 2.73535 274.69 2.97936 275.212 3.46738C275.735 3.93797 275.997 4.56542 275.997 5.34973V7.75496C275.997 8.52184 275.796 9.20158 275.395 9.79417C275.012 10.3868 274.358 10.7266 273.435 10.8138V10.8661C274.027 10.9706 274.446 11.1711 274.69 11.4674C274.934 11.7462 275.143 12.2081 275.317 12.853L276.729 18.1863H272.703L271.683 13.0883C271.596 12.7048 271.509 12.3998 271.422 12.1733C271.334 11.9292 271.212 11.8072 271.056 11.8072H270.611V18.1863H266.82ZM270.611 9.2713H271.422C271.77 9.2713 272.023 9.15801 272.18 8.93143C272.354 8.70485 272.441 8.33012 272.441 7.80724V6.02947C272.441 5.50659 272.372 5.14929 272.232 4.95757C272.093 4.76585 271.866 4.66999 271.552 4.66999H270.611V9.2713Z" stroke="black" stroke-width="4" mask="url(#path-41-outside-15_6307_34581)"/>
<mask id="path-42-outside-16_6307_34581" maskUnits="userSpaceOnUse" x="256.164" y="0.735352" width="12" height="20" fill="black">
<rect fill="white" x="256.164" y="0.735352" width="12" height="20"/>
<path d="M258.164 18.1863V2.73535H265.484V5.2713H261.955V8.82685H265.04V11.6765H261.955V15.7027H265.484V18.1863H258.164Z"/>
</mask>
<path d="M258.164 18.1863V2.73535H265.484V5.2713H261.955V8.82685H265.04V11.6765H261.955V15.7027H265.484V18.1863H258.164Z" fill="white"/>
<path d="M258.164 18.1863V2.73535H265.484V5.2713H261.955V8.82685H265.04V11.6765H261.955V15.7027H265.484V18.1863H258.164Z" stroke="black" stroke-width="4" mask="url(#path-42-outside-16_6307_34581)"/>
<mask id="path-43-outside-17_6307_34581" maskUnits="userSpaceOnUse" x="242.102" y="0.735352" width="17" height="20" fill="black">
<rect fill="white" x="242.102" y="0.735352" width="17" height="20"/>
<path d="M244.102 18.1863V2.73535H248.677L250.271 11.6242L251.892 2.73535H256.441V18.1863H253.252V7.04907L251.5 18.1863H249.043L247.291 7.04907V18.1863H244.102Z"/>
</mask>
<path d="M244.102 18.1863V2.73535H248.677L250.271 11.6242L251.892 2.73535H256.441V18.1863H253.252V7.04907L251.5 18.1863H249.043L247.291 7.04907V18.1863H244.102Z" fill="white"/>
<path d="M244.102 18.1863V2.73535H248.677L250.271 11.6242L251.892 2.73535H256.441V18.1863H253.252V7.04907L251.5 18.1863H249.043L247.291 7.04907V18.1863H244.102Z" stroke="black" stroke-width="4" mask="url(#path-43-outside-17_6307_34581)"/>
<mask id="path-44-outside-18_6307_34581" maskUnits="userSpaceOnUse" x="231.5" y="0.5" width="14" height="20" fill="black">
<rect fill="white" x="231.5" y="0.5" width="14" height="20"/>
<path d="M237.971 18.5C237.082 18.5 236.297 18.3954 235.618 18.1863C234.955 17.9597 234.432 17.5152 234.049 16.8529C233.683 16.1906 233.5 15.1972 233.5 13.8725V6.00327C233.5 5.11438 233.683 4.41721 234.049 3.91176C234.432 3.40632 234.955 3.04902 235.618 2.83987C236.297 2.61329 237.082 2.5 237.971 2.5C238.859 2.5 239.644 2.61329 240.324 2.83987C241.003 3.04902 241.535 3.40632 241.918 3.91176C242.319 4.41721 242.52 5.11438 242.52 6.00327V13.8464C242.52 15.1884 242.319 16.1906 241.918 16.8529C241.535 17.5152 241.003 17.9597 240.324 18.1863C239.644 18.3954 238.859 18.5 237.971 18.5ZM237.971 16.3823C238.145 16.3823 238.302 16.3475 238.441 16.2778C238.598 16.2081 238.711 16.0948 238.781 15.9379C238.851 15.7636 238.886 15.537 238.886 15.2582V5.8464C238.886 5.58497 238.851 5.3671 238.781 5.19281C238.711 5.01852 238.598 4.89651 238.441 4.8268C238.302 4.75708 238.145 4.72222 237.971 4.72222C237.796 4.72222 237.639 4.75708 237.5 4.8268C237.361 4.89651 237.247 5.01852 237.16 5.19281C237.09 5.3671 237.056 5.58497 237.056 5.8464V15.2582C237.056 15.537 237.09 15.7636 237.16 15.9379C237.247 16.0948 237.361 16.2081 237.5 16.2778C237.639 16.3475 237.796 16.3823 237.971 16.3823Z"/>
</mask>
<path d="M237.971 18.5C237.082 18.5 236.297 18.3954 235.618 18.1863C234.955 17.9597 234.432 17.5152 234.049 16.8529C233.683 16.1906 233.5 15.1972 233.5 13.8725V6.00327C233.5 5.11438 233.683 4.41721 234.049 3.91176C234.432 3.40632 234.955 3.04902 235.618 2.83987C236.297 2.61329 237.082 2.5 237.971 2.5C238.859 2.5 239.644 2.61329 240.324 2.83987C241.003 3.04902 241.535 3.40632 241.918 3.91176C242.319 4.41721 242.52 5.11438 242.52 6.00327V13.8464C242.52 15.1884 242.319 16.1906 241.918 16.8529C241.535 17.5152 241.003 17.9597 240.324 18.1863C239.644 18.3954 238.859 18.5 237.971 18.5ZM237.971 16.3823C238.145 16.3823 238.302 16.3475 238.441 16.2778C238.598 16.2081 238.711 16.0948 238.781 15.9379C238.851 15.7636 238.886 15.537 238.886 15.2582V5.8464C238.886 5.58497 238.851 5.3671 238.781 5.19281C238.711 5.01852 238.598 4.89651 238.441 4.8268C238.302 4.75708 238.145 4.72222 237.971 4.72222C237.796 4.72222 237.639 4.75708 237.5 4.8268C237.361 4.89651 237.247 5.01852 237.16 5.19281C237.09 5.3671 237.056 5.58497 237.056 5.8464V15.2582C237.056 15.537 237.09 15.7636 237.16 15.9379C237.247 16.0948 237.361 16.2081 237.5 16.2778C237.639 16.3475 237.796 16.3823 237.971 16.3823Z" fill="white"/>
<path d="M237.971 18.5C237.082 18.5 236.297 18.3954 235.618 18.1863C234.955 17.9597 234.432 17.5152 234.049 16.8529C233.683 16.1906 233.5 15.1972 233.5 13.8725V6.00327C233.5 5.11438 233.683 4.41721 234.049 3.91176C234.432 3.40632 234.955 3.04902 235.618 2.83987C236.297 2.61329 237.082 2.5 237.971 2.5C238.859 2.5 239.644 2.61329 240.324 2.83987C241.003 3.04902 241.535 3.40632 241.918 3.91176C242.319 4.41721 242.52 5.11438 242.52 6.00327V13.8464C242.52 15.1884 242.319 16.1906 241.918 16.8529C241.535 17.5152 241.003 17.9597 240.324 18.1863C239.644 18.3954 238.859 18.5 237.971 18.5ZM237.971 16.3823C238.145 16.3823 238.302 16.3475 238.441 16.2778C238.598 16.2081 238.711 16.0948 238.781 15.9379C238.851 15.7636 238.886 15.537 238.886 15.2582V5.8464C238.886 5.58497 238.851 5.3671 238.781 5.19281C238.711 5.01852 238.598 4.89651 238.441 4.8268C238.302 4.75708 238.145 4.72222 237.971 4.72222C237.796 4.72222 237.639 4.75708 237.5 4.8268C237.361 4.89651 237.247 5.01852 237.16 5.19281C237.09 5.3671 237.056 5.58497 237.056 5.8464V15.2582C237.056 15.537 237.09 15.7636 237.16 15.9379C237.247 16.0948 237.361 16.2081 237.5 16.2778C237.639 16.3475 237.796 16.3823 237.971 16.3823Z" stroke="black" stroke-width="4" mask="url(#path-44-outside-18_6307_34581)"/>
<mask id="path-45-outside-19_6307_34581" maskUnits="userSpaceOnUse" x="222.477" y="0.735352" width="13" height="20" fill="black">
<rect fill="white" x="222.477" y="0.735352" width="13" height="20"/>
<path d="M226.777 18.1863V5.2713H224.477V2.73535H232.712V5.2713H230.385V18.1863H226.777Z"/>
</mask>
<path d="M226.777 18.1863V5.2713H224.477V2.73535H232.712V5.2713H230.385V18.1863H226.777Z" fill="white"/>
<path d="M226.777 18.1863V5.2713H224.477V2.73535H232.712V5.2713H230.385V18.1863H226.777Z" stroke="black" stroke-width="4" mask="url(#path-45-outside-19_6307_34581)"/>
<mask id="path-46-outside-20_6307_34581" maskUnits="userSpaceOnUse" x="212.32" y="0.682617" width="14" height="20" fill="black">
<rect fill="white" x="212.32" y="0.682617" width="14" height="20"/>
<path d="M218.948 18.395C217.972 18.395 217.135 18.2643 216.438 18.0029C215.741 17.7414 215.209 17.2796 214.843 16.6173C214.495 15.9549 214.32 15.0051 214.32 13.7676V12.8264C214.948 12.8264 215.575 12.8264 216.203 12.8264C216.848 12.8264 217.484 12.8264 218.111 12.8264V14.0813C218.111 14.639 218.146 15.0661 218.216 15.3624C218.285 15.6412 218.381 15.8329 218.503 15.9375C218.643 16.0421 218.808 16.0944 219 16.0944C219.296 16.0944 219.514 15.9811 219.654 15.7545C219.811 15.5105 219.889 15.0399 219.889 14.3427C219.889 13.7327 219.793 13.2883 219.601 13.0094C219.427 12.7131 219.131 12.4691 218.712 12.2774C218.294 12.0857 217.736 11.8504 217.039 11.5715C216.412 11.2752 215.906 10.9353 215.523 10.5519C215.139 10.1685 214.861 9.68915 214.686 9.11399C214.529 8.53883 214.451 7.85909 214.451 7.07477C214.451 6.01159 214.59 5.15756 214.869 4.51268C215.148 3.8678 215.619 3.40593 216.281 3.12706C216.943 2.83077 217.858 2.68262 219.026 2.68262C220.508 2.68262 221.632 2.99634 222.399 3.62379C223.166 4.23382 223.549 5.15756 223.549 6.39503V8.30353C222.956 8.30353 222.355 8.30353 221.745 8.30353C221.153 8.30353 220.551 8.30353 219.941 8.30353V7.49307C219.941 6.76105 219.889 6.2556 219.784 5.97673C219.68 5.69787 219.436 5.55843 219.052 5.55843C218.721 5.55843 218.495 5.67172 218.373 5.8983C218.251 6.10745 218.19 6.45604 218.19 6.94405C218.19 7.50179 218.294 7.9288 218.503 8.2251C218.73 8.50397 219.017 8.72183 219.366 8.87869C219.715 9.01813 220.081 9.15756 220.464 9.29699C221.231 9.59329 221.85 9.8983 222.32 10.212C222.808 10.5083 223.166 10.9266 223.392 11.4669C223.619 12.0072 223.732 12.7828 223.732 13.7937C223.732 14.9441 223.54 15.8591 223.157 16.5388C222.773 17.2011 222.216 17.6804 221.484 17.9767C220.769 18.2556 219.924 18.395 218.948 18.395Z"/>
</mask>
<path d="M218.948 18.395C217.972 18.395 217.135 18.2643 216.438 18.0029C215.741 17.7414 215.209 17.2796 214.843 16.6173C214.495 15.9549 214.32 15.0051 214.32 13.7676V12.8264C214.948 12.8264 215.575 12.8264 216.203 12.8264C216.848 12.8264 217.484 12.8264 218.111 12.8264V14.0813C218.111 14.639 218.146 15.0661 218.216 15.3624C218.285 15.6412 218.381 15.8329 218.503 15.9375C218.643 16.0421 218.808 16.0944 219 16.0944C219.296 16.0944 219.514 15.9811 219.654 15.7545C219.811 15.5105 219.889 15.0399 219.889 14.3427C219.889 13.7327 219.793 13.2883 219.601 13.0094C219.427 12.7131 219.131 12.4691 218.712 12.2774C218.294 12.0857 217.736 11.8504 217.039 11.5715C216.412 11.2752 215.906 10.9353 215.523 10.5519C215.139 10.1685 214.861 9.68915 214.686 9.11399C214.529 8.53883 214.451 7.85909 214.451 7.07477C214.451 6.01159 214.59 5.15756 214.869 4.51268C215.148 3.8678 215.619 3.40593 216.281 3.12706C216.943 2.83077 217.858 2.68262 219.026 2.68262C220.508 2.68262 221.632 2.99634 222.399 3.62379C223.166 4.23382 223.549 5.15756 223.549 6.39503V8.30353C222.956 8.30353 222.355 8.30353 221.745 8.30353C221.153 8.30353 220.551 8.30353 219.941 8.30353V7.49307C219.941 6.76105 219.889 6.2556 219.784 5.97673C219.68 5.69787 219.436 5.55843 219.052 5.55843C218.721 5.55843 218.495 5.67172 218.373 5.8983C218.251 6.10745 218.19 6.45604 218.19 6.94405C218.19 7.50179 218.294 7.9288 218.503 8.2251C218.73 8.50397 219.017 8.72183 219.366 8.87869C219.715 9.01813 220.081 9.15756 220.464 9.29699C221.231 9.59329 221.85 9.8983 222.32 10.212C222.808 10.5083 223.166 10.9266 223.392 11.4669C223.619 12.0072 223.732 12.7828 223.732 13.7937C223.732 14.9441 223.54 15.8591 223.157 16.5388C222.773 17.2011 222.216 17.6804 221.484 17.9767C220.769 18.2556 219.924 18.395 218.948 18.395Z" fill="white"/>
<path d="M218.948 18.395C217.972 18.395 217.135 18.2643 216.438 18.0029C215.741 17.7414 215.209 17.2796 214.843 16.6173C214.495 15.9549 214.32 15.0051 214.32 13.7676V12.8264C214.948 12.8264 215.575 12.8264 216.203 12.8264C216.848 12.8264 217.484 12.8264 218.111 12.8264V14.0813C218.111 14.639 218.146 15.0661 218.216 15.3624C218.285 15.6412 218.381 15.8329 218.503 15.9375C218.643 16.0421 218.808 16.0944 219 16.0944C219.296 16.0944 219.514 15.9811 219.654 15.7545C219.811 15.5105 219.889 15.0399 219.889 14.3427C219.889 13.7327 219.793 13.2883 219.601 13.0094C219.427 12.7131 219.131 12.4691 218.712 12.2774C218.294 12.0857 217.736 11.8504 217.039 11.5715C216.412 11.2752 215.906 10.9353 215.523 10.5519C215.139 10.1685 214.861 9.68915 214.686 9.11399C214.529 8.53883 214.451 7.85909 214.451 7.07477C214.451 6.01159 214.59 5.15756 214.869 4.51268C215.148 3.8678 215.619 3.40593 216.281 3.12706C216.943 2.83077 217.858 2.68262 219.026 2.68262C220.508 2.68262 221.632 2.99634 222.399 3.62379C223.166 4.23382 223.549 5.15756 223.549 6.39503V8.30353C222.956 8.30353 222.355 8.30353 221.745 8.30353C221.153 8.30353 220.551 8.30353 219.941 8.30353V7.49307C219.941 6.76105 219.889 6.2556 219.784 5.97673C219.68 5.69787 219.436 5.55843 219.052 5.55843C218.721 5.55843 218.495 5.67172 218.373 5.8983C218.251 6.10745 218.19 6.45604 218.19 6.94405C218.19 7.50179 218.294 7.9288 218.503 8.2251C218.73 8.50397 219.017 8.72183 219.366 8.87869C219.715 9.01813 220.081 9.15756 220.464 9.29699C221.231 9.59329 221.85 9.8983 222.32 10.212C222.808 10.5083 223.166 10.9266 223.392 11.4669C223.619 12.0072 223.732 12.7828 223.732 13.7937C223.732 14.9441 223.54 15.8591 223.157 16.5388C222.773 17.2011 222.216 17.6804 221.484 17.9767C220.769 18.2556 219.924 18.395 218.948 18.395Z" stroke="black" stroke-width="4" mask="url(#path-46-outside-20_6307_34581)"/>
<mask id="path-47-outside-21_6307_34581" maskUnits="userSpaceOnUse" x="202.086" y="0.735352" width="13" height="20" fill="black">
<rect fill="white" x="202.086" y="0.735352" width="13" height="20"/>
<path d="M208.53 18.5001C207.868 18.5001 207.267 18.4478 206.726 18.3432C206.186 18.256 205.716 18.073 205.315 17.7942C204.931 17.5153 204.626 17.0883 204.4 16.5131C204.191 15.9205 204.086 15.1275 204.086 14.134V2.73535H207.72V15.1798C207.72 15.4587 207.755 15.6852 207.824 15.8595C207.894 16.0164 207.99 16.1297 208.112 16.1994C208.234 16.2517 208.374 16.2778 208.53 16.2778C208.687 16.2778 208.827 16.2517 208.949 16.1994C209.088 16.1297 209.193 16.0164 209.262 15.8595C209.332 15.6852 209.367 15.4587 209.367 15.1798V2.73535H212.975V14.1079C212.975 15.1014 212.87 15.8944 212.661 16.487C212.452 17.0796 212.147 17.5153 211.746 17.7942C211.363 18.073 210.892 18.256 210.334 18.3432C209.794 18.4478 209.193 18.5001 208.53 18.5001Z"/>
</mask>
<path d="M208.53 18.5001C207.868 18.5001 207.267 18.4478 206.726 18.3432C206.186 18.256 205.716 18.073 205.315 17.7942C204.931 17.5153 204.626 17.0883 204.4 16.5131C204.191 15.9205 204.086 15.1275 204.086 14.134V2.73535H207.72V15.1798C207.72 15.4587 207.755 15.6852 207.824 15.8595C207.894 16.0164 207.99 16.1297 208.112 16.1994C208.234 16.2517 208.374 16.2778 208.53 16.2778C208.687 16.2778 208.827 16.2517 208.949 16.1994C209.088 16.1297 209.193 16.0164 209.262 15.8595C209.332 15.6852 209.367 15.4587 209.367 15.1798V2.73535H212.975V14.1079C212.975 15.1014 212.87 15.8944 212.661 16.487C212.452 17.0796 212.147 17.5153 211.746 17.7942C211.363 18.073 210.892 18.256 210.334 18.3432C209.794 18.4478 209.193 18.5001 208.53 18.5001Z" fill="white"/>
<path d="M208.53 18.5001C207.868 18.5001 207.267 18.4478 206.726 18.3432C206.186 18.256 205.716 18.073 205.315 17.7942C204.931 17.5153 204.626 17.0883 204.4 16.5131C204.191 15.9205 204.086 15.1275 204.086 14.134V2.73535H207.72V15.1798C207.72 15.4587 207.755 15.6852 207.824 15.8595C207.894 16.0164 207.99 16.1297 208.112 16.1994C208.234 16.2517 208.374 16.2778 208.53 16.2778C208.687 16.2778 208.827 16.2517 208.949 16.1994C209.088 16.1297 209.193 16.0164 209.262 15.8595C209.332 15.6852 209.367 15.4587 209.367 15.1798V2.73535H212.975V14.1079C212.975 15.1014 212.87 15.8944 212.661 16.487C212.452 17.0796 212.147 17.5153 211.746 17.7942C211.363 18.073 210.892 18.256 210.334 18.3432C209.794 18.4478 209.193 18.5001 208.53 18.5001Z" stroke="black" stroke-width="4" mask="url(#path-47-outside-21_6307_34581)"/>
<mask id="path-48-outside-22_6307_34581" maskUnits="userSpaceOnUse" x="191.594" y="0.5" width="14" height="20" fill="black">
<rect fill="white" x="191.594" y="0.5" width="14" height="20"/>
<path d="M198.169 18.5C197.263 18.5 196.47 18.3954 195.79 18.1863C195.11 17.9597 194.57 17.5152 194.169 16.8529C193.785 16.1906 193.594 15.1972 193.594 13.8725V6.00327C193.594 5.11438 193.785 4.41721 194.169 3.91176C194.57 3.40632 195.11 3.04902 195.79 2.83987C196.487 2.61329 197.28 2.5 198.169 2.5C199.093 2.5 199.886 2.61329 200.548 2.83987C201.21 3.04902 201.716 3.40632 202.064 3.91176C202.43 4.41721 202.613 5.11438 202.613 6.00327V9.4281H198.979V5.8464C198.979 5.53268 198.945 5.29738 198.875 5.14052C198.805 4.98366 198.709 4.87908 198.587 4.8268C198.483 4.75708 198.343 4.72222 198.169 4.72222C198.012 4.72222 197.873 4.75708 197.751 4.8268C197.629 4.87908 197.533 4.98366 197.463 5.14052C197.393 5.29738 197.358 5.53268 197.358 5.8464V15.2582C197.358 15.5545 197.393 15.7898 197.463 15.964C197.533 16.1383 197.629 16.2516 197.751 16.3039C197.873 16.3562 198.012 16.3823 198.169 16.3823C198.343 16.3823 198.483 16.3562 198.587 16.3039C198.709 16.2516 198.805 16.1383 198.875 15.964C198.945 15.7898 198.979 15.5545 198.979 15.2582V11.9379H202.613V13.8464C202.613 15.1884 202.43 16.1906 202.064 16.8529C201.716 17.5152 201.21 17.9597 200.548 18.1863C199.886 18.3954 199.093 18.5 198.169 18.5Z"/>
</mask>
<path d="M198.169 18.5C197.263 18.5 196.47 18.3954 195.79 18.1863C195.11 17.9597 194.57 17.5152 194.169 16.8529C193.785 16.1906 193.594 15.1972 193.594 13.8725V6.00327C193.594 5.11438 193.785 4.41721 194.169 3.91176C194.57 3.40632 195.11 3.04902 195.79 2.83987C196.487 2.61329 197.28 2.5 198.169 2.5C199.093 2.5 199.886 2.61329 200.548 2.83987C201.21 3.04902 201.716 3.40632 202.064 3.91176C202.43 4.41721 202.613 5.11438 202.613 6.00327V9.4281H198.979V5.8464C198.979 5.53268 198.945 5.29738 198.875 5.14052C198.805 4.98366 198.709 4.87908 198.587 4.8268C198.483 4.75708 198.343 4.72222 198.169 4.72222C198.012 4.72222 197.873 4.75708 197.751 4.8268C197.629 4.87908 197.533 4.98366 197.463 5.14052C197.393 5.29738 197.358 5.53268 197.358 5.8464V15.2582C197.358 15.5545 197.393 15.7898 197.463 15.964C197.533 16.1383 197.629 16.2516 197.751 16.3039C197.873 16.3562 198.012 16.3823 198.169 16.3823C198.343 16.3823 198.483 16.3562 198.587 16.3039C198.709 16.2516 198.805 16.1383 198.875 15.964C198.945 15.7898 198.979 15.5545 198.979 15.2582V11.9379H202.613V13.8464C202.613 15.1884 202.43 16.1906 202.064 16.8529C201.716 17.5152 201.21 17.9597 200.548 18.1863C199.886 18.3954 199.093 18.5 198.169 18.5Z" fill="white"/>
<path d="M198.169 18.5C197.263 18.5 196.47 18.3954 195.79 18.1863C195.11 17.9597 194.57 17.5152 194.169 16.8529C193.785 16.1906 193.594 15.1972 193.594 13.8725V6.00327C193.594 5.11438 193.785 4.41721 194.169 3.91176C194.57 3.40632 195.11 3.04902 195.79 2.83987C196.487 2.61329 197.28 2.5 198.169 2.5C199.093 2.5 199.886 2.61329 200.548 2.83987C201.21 3.04902 201.716 3.40632 202.064 3.91176C202.43 4.41721 202.613 5.11438 202.613 6.00327V9.4281H198.979V5.8464C198.979 5.53268 198.945 5.29738 198.875 5.14052C198.805 4.98366 198.709 4.87908 198.587 4.8268C198.483 4.75708 198.343 4.72222 198.169 4.72222C198.012 4.72222 197.873 4.75708 197.751 4.8268C197.629 4.87908 197.533 4.98366 197.463 5.14052C197.393 5.29738 197.358 5.53268 197.358 5.8464V15.2582C197.358 15.5545 197.393 15.7898 197.463 15.964C197.533 16.1383 197.629 16.2516 197.751 16.3039C197.873 16.3562 198.012 16.3823 198.169 16.3823C198.343 16.3823 198.483 16.3562 198.587 16.3039C198.709 16.2516 198.805 16.1383 198.875 15.964C198.945 15.7898 198.979 15.5545 198.979 15.2582V11.9379H202.613V13.8464C202.613 15.1884 202.43 16.1906 202.064 16.8529C201.716 17.5152 201.21 17.9597 200.548 18.1863C199.886 18.3954 199.093 18.5 198.169 18.5Z" stroke="black" stroke-width="4" mask="url(#path-48-outside-22_6307_34581)"/>
<path d="M266.82 18.1863V2.73535H272.807C273.888 2.73535 274.69 2.97936 275.212 3.46738C275.735 3.93797 275.997 4.56542 275.997 5.34973V7.75496C275.997 8.52184 275.796 9.20158 275.395 9.79417C275.012 10.3868 274.358 10.7266 273.435 10.8138V10.8661C274.027 10.9706 274.446 11.1711 274.69 11.4674C274.934 11.7462 275.143 12.2081 275.317 12.853L276.729 18.1863H272.703L271.683 13.0883C271.596 12.7048 271.509 12.3998 271.422 12.1733C271.334 11.9292 271.212 11.8072 271.056 11.8072H270.611V18.1863H266.82ZM270.611 9.2713H271.422C271.77 9.2713 272.023 9.15801 272.18 8.93143C272.354 8.70485 272.441 8.33012 272.441 7.80724V6.02947C272.441 5.50659 272.372 5.14929 272.232 4.95757C272.093 4.76585 271.866 4.66999 271.552 4.66999H270.611V9.2713Z" fill="white"/>
<path d="M258.164 18.1863V2.73535H265.484V5.2713H261.955V8.82685H265.04V11.6765H261.955V15.7027H265.484V18.1863H258.164Z" fill="white"/>
<path d="M244.102 18.1863V2.73535H248.677L250.271 11.6242L251.892 2.73535H256.441V18.1863H253.252V7.04907L251.5 18.1863H249.043L247.291 7.04907V18.1863H244.102Z" fill="white"/>
<path d="M237.971 18.5C237.082 18.5 236.297 18.3954 235.618 18.1863C234.955 17.9597 234.432 17.5152 234.049 16.8529C233.683 16.1906 233.5 15.1972 233.5 13.8725V6.00327C233.5 5.11438 233.683 4.41721 234.049 3.91176C234.432 3.40632 234.955 3.04902 235.618 2.83987C236.297 2.61329 237.082 2.5 237.971 2.5C238.859 2.5 239.644 2.61329 240.324 2.83987C241.003 3.04902 241.535 3.40632 241.918 3.91176C242.319 4.41721 242.52 5.11438 242.52 6.00327V13.8464C242.52 15.1884 242.319 16.1906 241.918 16.8529C241.535 17.5152 241.003 17.9597 240.324 18.1863C239.644 18.3954 238.859 18.5 237.971 18.5ZM237.971 16.3823C238.145 16.3823 238.302 16.3475 238.441 16.2778C238.598 16.2081 238.711 16.0948 238.781 15.9379C238.851 15.7636 238.886 15.537 238.886 15.2582V5.8464C238.886 5.58497 238.851 5.3671 238.781 5.19281C238.711 5.01852 238.598 4.89651 238.441 4.8268C238.302 4.75708 238.145 4.72222 237.971 4.72222C237.796 4.72222 237.639 4.75708 237.5 4.8268C237.361 4.89651 237.247 5.01852 237.16 5.19281C237.09 5.3671 237.056 5.58497 237.056 5.8464V15.2582C237.056 15.537 237.09 15.7636 237.16 15.9379C237.247 16.0948 237.361 16.2081 237.5 16.2778C237.639 16.3475 237.796 16.3823 237.971 16.3823Z" fill="white"/>
<path d="M226.777 18.1863V5.2713H224.477V2.73535H232.712V5.2713H230.385V18.1863H226.777Z" fill="white"/>
<path d="M218.948 18.395C217.972 18.395 217.135 18.2643 216.438 18.0029C215.741 17.7414 215.209 17.2796 214.843 16.6173C214.495 15.9549 214.32 15.0051 214.32 13.7676V12.8264C214.948 12.8264 215.575 12.8264 216.203 12.8264C216.848 12.8264 217.484 12.8264 218.111 12.8264V14.0813C218.111 14.639 218.146 15.0661 218.216 15.3624C218.285 15.6412 218.381 15.8329 218.503 15.9375C218.643 16.0421 218.808 16.0944 219 16.0944C219.296 16.0944 219.514 15.9811 219.654 15.7545C219.811 15.5105 219.889 15.0399 219.889 14.3427C219.889 13.7327 219.793 13.2883 219.601 13.0094C219.427 12.7131 219.131 12.4691 218.712 12.2774C218.294 12.0857 217.736 11.8504 217.039 11.5715C216.412 11.2752 215.906 10.9353 215.523 10.5519C215.139 10.1685 214.861 9.68915 214.686 9.11399C214.529 8.53883 214.451 7.85909 214.451 7.07477C214.451 6.01159 214.59 5.15756 214.869 4.51268C215.148 3.8678 215.619 3.40593 216.281 3.12706C216.943 2.83077 217.858 2.68262 219.026 2.68262C220.508 2.68262 221.632 2.99634 222.399 3.62379C223.166 4.23382 223.549 5.15756 223.549 6.39503V8.30353C222.956 8.30353 222.355 8.30353 221.745 8.30353C221.153 8.30353 220.551 8.30353 219.941 8.30353V7.49307C219.941 6.76105 219.889 6.2556 219.784 5.97673C219.68 5.69787 219.436 5.55843 219.052 5.55843C218.721 5.55843 218.495 5.67172 218.373 5.8983C218.251 6.10745 218.19 6.45604 218.19 6.94405C218.19 7.50179 218.294 7.9288 218.503 8.2251C218.73 8.50397 219.017 8.72183 219.366 8.87869C219.715 9.01813 220.081 9.15756 220.464 9.29699C221.231 9.59329 221.85 9.8983 222.32 10.212C222.808 10.5083 223.166 10.9266 223.392 11.4669C223.619 12.0072 223.732 12.7828 223.732 13.7937C223.732 14.9441 223.54 15.8591 223.157 16.5388C222.773 17.2011 222.216 17.6804 221.484 17.9767C220.769 18.2556 219.924 18.395 218.948 18.395Z" fill="white"/>
<path d="M208.53 18.5001C207.868 18.5001 207.267 18.4478 206.726 18.3432C206.186 18.256 205.716 18.073 205.315 17.7942C204.931 17.5153 204.626 17.0883 204.4 16.5131C204.191 15.9205 204.086 15.1275 204.086 14.134V2.73535H207.72V15.1798C207.72 15.4587 207.755 15.6852 207.824 15.8595C207.894 16.0164 207.99 16.1297 208.112 16.1994C208.234 16.2517 208.374 16.2778 208.53 16.2778C208.687 16.2778 208.827 16.2517 208.949 16.1994C209.088 16.1297 209.193 16.0164 209.262 15.8595C209.332 15.6852 209.367 15.4587 209.367 15.1798V2.73535H212.975V14.1079C212.975 15.1014 212.87 15.8944 212.661 16.487C212.452 17.0796 212.147 17.5153 211.746 17.7942C211.363 18.073 210.892 18.256 210.334 18.3432C209.794 18.4478 209.193 18.5001 208.53 18.5001Z" fill="white"/>
<path d="M198.169 18.5C197.263 18.5 196.47 18.3954 195.79 18.1863C195.11 17.9597 194.57 17.5152 194.169 16.8529C193.785 16.1906 193.594 15.1972 193.594 13.8725V6.00327C193.594 5.11438 193.785 4.41721 194.169 3.91176C194.57 3.40632 195.11 3.04902 195.79 2.83987C196.487 2.61329 197.28 2.5 198.169 2.5C199.093 2.5 199.886 2.61329 200.548 2.83987C201.21 3.04902 201.716 3.40632 202.064 3.91176C202.43 4.41721 202.613 5.11438 202.613 6.00327V9.4281H198.979V5.8464C198.979 5.53268 198.945 5.29738 198.875 5.14052C198.805 4.98366 198.709 4.87908 198.587 4.8268C198.483 4.75708 198.343 4.72222 198.169 4.72222C198.012 4.72222 197.873 4.75708 197.751 4.8268C197.629 4.87908 197.533 4.98366 197.463 5.14052C197.393 5.29738 197.358 5.53268 197.358 5.8464V15.2582C197.358 15.5545 197.393 15.7898 197.463 15.964C197.533 16.1383 197.629 16.2516 197.751 16.3039C197.873 16.3562 198.012 16.3823 198.169 16.3823C198.343 16.3823 198.483 16.3562 198.587 16.3039C198.709 16.2516 198.805 16.1383 198.875 15.964C198.945 15.7898 198.979 15.5545 198.979 15.2582V11.9379H202.613V13.8464C202.613 15.1884 202.43 16.1906 202.064 16.8529C201.716 17.5152 201.21 17.9597 200.548 18.1863C199.886 18.3954 199.093 18.5 198.169 18.5Z" fill="white"/>
<mask id="path-57-outside-23_6307_34581" maskUnits="userSpaceOnUse" x="64.2578" y="21.7354" width="15" height="20" fill="black">
<rect fill="white" x="64.2578" y="21.7354" width="15" height="20"/>
<path d="M66.2578 39.1863V23.7354H72.2447C73.3253 23.7354 74.1271 23.9794 74.65 24.4674C75.1728 24.938 75.4343 25.5654 75.4343 26.3497V28.755C75.4343 29.5218 75.2338 30.2016 74.833 30.7942C74.4495 31.3868 73.7959 31.7266 72.8722 31.8138V31.8661C73.4648 31.9706 73.8831 32.1711 74.1271 32.4674C74.3711 32.7462 74.5802 33.2081 74.7545 33.853L76.1663 39.1863H72.1402L71.1205 34.0883C71.0334 33.7048 70.9463 33.3998 70.8591 33.1733C70.772 32.9292 70.65 32.8072 70.4931 32.8072H70.0487V39.1863H66.2578ZM70.0487 30.2713H70.8591C71.2077 30.2713 71.4604 30.158 71.6173 29.9314C71.7916 29.7048 71.8787 29.3301 71.8787 28.8072V27.0295C71.8787 26.5066 71.809 26.1493 71.6696 25.9576C71.5301 25.7659 71.3036 25.67 70.9898 25.67H70.0487V30.2713Z"/>
</mask>
<path d="M66.2578 39.1863V23.7354H72.2447C73.3253 23.7354 74.1271 23.9794 74.65 24.4674C75.1728 24.938 75.4343 25.5654 75.4343 26.3497V28.755C75.4343 29.5218 75.2338 30.2016 74.833 30.7942C74.4495 31.3868 73.7959 31.7266 72.8722 31.8138V31.8661C73.4648 31.9706 73.8831 32.1711 74.1271 32.4674C74.3711 32.7462 74.5802 33.2081 74.7545 33.853L76.1663 39.1863H72.1402L71.1205 34.0883C71.0334 33.7048 70.9463 33.3998 70.8591 33.1733C70.772 32.9292 70.65 32.8072 70.4931 32.8072H70.0487V39.1863H66.2578ZM70.0487 30.2713H70.8591C71.2077 30.2713 71.4604 30.158 71.6173 29.9314C71.7916 29.7048 71.8787 29.3301 71.8787 28.8072V27.0295C71.8787 26.5066 71.809 26.1493 71.6696 25.9576C71.5301 25.7659 71.3036 25.67 70.9898 25.67H70.0487V30.2713Z" fill="white"/>
<path d="M66.2578 39.1863V23.7354H72.2447C73.3253 23.7354 74.1271 23.9794 74.65 24.4674C75.1728 24.938 75.4343 25.5654 75.4343 26.3497V28.755C75.4343 29.5218 75.2338 30.2016 74.833 30.7942C74.4495 31.3868 73.7959 31.7266 72.8722 31.8138V31.8661C73.4648 31.9706 73.8831 32.1711 74.1271 32.4674C74.3711 32.7462 74.5802 33.2081 74.7545 33.853L76.1663 39.1863H72.1402L71.1205 34.0883C71.0334 33.7048 70.9463 33.3998 70.8591 33.1733C70.772 32.9292 70.65 32.8072 70.4931 32.8072H70.0487V39.1863H66.2578ZM70.0487 30.2713H70.8591C71.2077 30.2713 71.4604 30.158 71.6173 29.9314C71.7916 29.7048 71.8787 29.3301 71.8787 28.8072V27.0295C71.8787 26.5066 71.809 26.1493 71.6696 25.9576C71.5301 25.7659 71.3036 25.67 70.9898 25.67H70.0487V30.2713Z" stroke="black" stroke-width="4" mask="url(#path-57-outside-23_6307_34581)"/>
<mask id="path-58-outside-24_6307_34581" maskUnits="userSpaceOnUse" x="53.6641" y="21.5" width="14" height="20" fill="black">
<rect fill="white" x="53.6641" y="21.5" width="14" height="20"/>
<path d="M60.1346 39.5C59.2458 39.5 58.4615 39.3954 57.7817 39.1863C57.1194 38.9597 56.5965 38.5152 56.2131 37.8529C55.8471 37.1906 55.6641 36.1972 55.6641 34.8725V27.0033C55.6641 26.1144 55.8471 25.4172 56.2131 24.9118C56.5965 24.4063 57.1194 24.049 57.7817 23.8399C58.4615 23.6133 59.2458 23.5 60.1346 23.5C61.0235 23.5 61.8079 23.6133 62.4876 23.8399C63.1673 24.049 63.6989 24.4063 64.0824 24.9118C64.4832 25.4172 64.6837 26.1144 64.6837 27.0033V34.8464C64.6837 36.1884 64.4832 37.1906 64.0824 37.8529C63.6989 38.5152 63.1673 38.9597 62.4876 39.1863C61.8079 39.3954 61.0235 39.5 60.1346 39.5ZM60.1346 37.3823C60.3089 37.3823 60.4658 37.3475 60.6052 37.2778C60.7621 37.2081 60.8754 37.0948 60.9451 36.9379C61.0148 36.7636 61.0497 36.537 61.0497 36.2582V26.8464C61.0497 26.585 61.0148 26.3671 60.9451 26.1928C60.8754 26.0185 60.7621 25.8965 60.6052 25.8268C60.4658 25.7571 60.3089 25.7222 60.1346 25.7222C59.9604 25.7222 59.8035 25.7571 59.6641 25.8268C59.5246 25.8965 59.4113 26.0185 59.3242 26.1928C59.2545 26.3671 59.2196 26.585 59.2196 26.8464V36.2582C59.2196 36.537 59.2545 36.7636 59.3242 36.9379C59.4113 37.0948 59.5246 37.2081 59.6641 37.2778C59.8035 37.3475 59.9604 37.3823 60.1346 37.3823Z"/>
</mask>
<path d="M60.1346 39.5C59.2458 39.5 58.4615 39.3954 57.7817 39.1863C57.1194 38.9597 56.5965 38.5152 56.2131 37.8529C55.8471 37.1906 55.6641 36.1972 55.6641 34.8725V27.0033C55.6641 26.1144 55.8471 25.4172 56.2131 24.9118C56.5965 24.4063 57.1194 24.049 57.7817 23.8399C58.4615 23.6133 59.2458 23.5 60.1346 23.5C61.0235 23.5 61.8079 23.6133 62.4876 23.8399C63.1673 24.049 63.6989 24.4063 64.0824 24.9118C64.4832 25.4172 64.6837 26.1144 64.6837 27.0033V34.8464C64.6837 36.1884 64.4832 37.1906 64.0824 37.8529C63.6989 38.5152 63.1673 38.9597 62.4876 39.1863C61.8079 39.3954 61.0235 39.5 60.1346 39.5ZM60.1346 37.3823C60.3089 37.3823 60.4658 37.3475 60.6052 37.2778C60.7621 37.2081 60.8754 37.0948 60.9451 36.9379C61.0148 36.7636 61.0497 36.537 61.0497 36.2582V26.8464C61.0497 26.585 61.0148 26.3671 60.9451 26.1928C60.8754 26.0185 60.7621 25.8965 60.6052 25.8268C60.4658 25.7571 60.3089 25.7222 60.1346 25.7222C59.9604 25.7222 59.8035 25.7571 59.6641 25.8268C59.5246 25.8965 59.4113 26.0185 59.3242 26.1928C59.2545 26.3671 59.2196 26.585 59.2196 26.8464V36.2582C59.2196 36.537 59.2545 36.7636 59.3242 36.9379C59.4113 37.0948 59.5246 37.2081 59.6641 37.2778C59.8035 37.3475 59.9604 37.3823 60.1346 37.3823Z" fill="white"/>
<path d="M60.1346 39.5C59.2458 39.5 58.4615 39.3954 57.7817 39.1863C57.1194 38.9597 56.5965 38.5152 56.2131 37.8529C55.8471 37.1906 55.6641 36.1972 55.6641 34.8725V27.0033C55.6641 26.1144 55.8471 25.4172 56.2131 24.9118C56.5965 24.4063 57.1194 24.049 57.7817 23.8399C58.4615 23.6133 59.2458 23.5 60.1346 23.5C61.0235 23.5 61.8079 23.6133 62.4876 23.8399C63.1673 24.049 63.6989 24.4063 64.0824 24.9118C64.4832 25.4172 64.6837 26.1144 64.6837 27.0033V34.8464C64.6837 36.1884 64.4832 37.1906 64.0824 37.8529C63.6989 38.5152 63.1673 38.9597 62.4876 39.1863C61.8079 39.3954 61.0235 39.5 60.1346 39.5ZM60.1346 37.3823C60.3089 37.3823 60.4658 37.3475 60.6052 37.2778C60.7621 37.2081 60.8754 37.0948 60.9451 36.9379C61.0148 36.7636 61.0497 36.537 61.0497 36.2582V26.8464C61.0497 26.585 61.0148 26.3671 60.9451 26.1928C60.8754 26.0185 60.7621 25.8965 60.6052 25.8268C60.4658 25.7571 60.3089 25.7222 60.1346 25.7222C59.9604 25.7222 59.8035 25.7571 59.6641 25.8268C59.5246 25.8965 59.4113 26.0185 59.3242 26.1928C59.2545 26.3671 59.2196 26.585 59.2196 26.8464V36.2582C59.2196 36.537 59.2545 36.7636 59.3242 36.9379C59.4113 37.0948 59.5246 37.2081 59.6641 37.2778C59.8035 37.3475 59.9604 37.3823 60.1346 37.3823Z" stroke="black" stroke-width="4" mask="url(#path-58-outside-24_6307_34581)"/>
<mask id="path-59-outside-25_6307_34581" maskUnits="userSpaceOnUse" x="45.2422" y="21.7354" width="12" height="20" fill="black">
<rect fill="white" x="45.2422" y="21.7354" width="12" height="20"/>
<path d="M47.2422 39.1863V23.7354H54.5624V26.2713H51.033V29.8269H54.118V32.6765H51.033V39.1863H47.2422Z"/>
</mask>
<path d="M47.2422 39.1863V23.7354H54.5624V26.2713H51.033V29.8269H54.118V32.6765H51.033V39.1863H47.2422Z" fill="white"/>
<path d="M47.2422 39.1863V23.7354H54.5624V26.2713H51.033V29.8269H54.118V32.6765H51.033V39.1863H47.2422Z" stroke="black" stroke-width="4" mask="url(#path-59-outside-25_6307_34581)"/>
<path d="M66.2578 39.1863V23.7354H72.2447C73.3253 23.7354 74.1271 23.9794 74.65 24.4674C75.1728 24.938 75.4343 25.5654 75.4343 26.3497V28.755C75.4343 29.5218 75.2338 30.2016 74.833 30.7942C74.4495 31.3868 73.7959 31.7266 72.8722 31.8138V31.8661C73.4648 31.9706 73.8831 32.1711 74.1271 32.4674C74.3711 32.7462 74.5802 33.2081 74.7545 33.853L76.1663 39.1863H72.1402L71.1205 34.0883C71.0334 33.7048 70.9463 33.3998 70.8591 33.1733C70.772 32.9292 70.65 32.8072 70.4931 32.8072H70.0487V39.1863H66.2578ZM70.0487 30.2713H70.8591C71.2077 30.2713 71.4604 30.158 71.6173 29.9314C71.7916 29.7048 71.8787 29.3301 71.8787 28.8072V27.0295C71.8787 26.5066 71.809 26.1493 71.6696 25.9576C71.5301 25.7659 71.3036 25.67 70.9898 25.67H70.0487V30.2713Z" fill="white"/>
<path d="M60.1346 39.5C59.2458 39.5 58.4615 39.3954 57.7817 39.1863C57.1194 38.9597 56.5965 38.5152 56.2131 37.8529C55.8471 37.1906 55.6641 36.1972 55.6641 34.8725V27.0033C55.6641 26.1144 55.8471 25.4172 56.2131 24.9118C56.5965 24.4063 57.1194 24.049 57.7817 23.8399C58.4615 23.6133 59.2458 23.5 60.1346 23.5C61.0235 23.5 61.8079 23.6133 62.4876 23.8399C63.1673 24.049 63.6989 24.4063 64.0824 24.9118C64.4832 25.4172 64.6837 26.1144 64.6837 27.0033V34.8464C64.6837 36.1884 64.4832 37.1906 64.0824 37.8529C63.6989 38.5152 63.1673 38.9597 62.4876 39.1863C61.8079 39.3954 61.0235 39.5 60.1346 39.5ZM60.1346 37.3823C60.3089 37.3823 60.4658 37.3475 60.6052 37.2778C60.7621 37.2081 60.8754 37.0948 60.9451 36.9379C61.0148 36.7636 61.0497 36.537 61.0497 36.2582V26.8464C61.0497 26.585 61.0148 26.3671 60.9451 26.1928C60.8754 26.0185 60.7621 25.8965 60.6052 25.8268C60.4658 25.7571 60.3089 25.7222 60.1346 25.7222C59.9604 25.7222 59.8035 25.7571 59.6641 25.8268C59.5246 25.8965 59.4113 26.0185 59.3242 26.1928C59.2545 26.3671 59.2196 26.585 59.2196 26.8464V36.2582C59.2196 36.537 59.2545 36.7636 59.3242 36.9379C59.4113 37.0948 59.5246 37.2081 59.6641 37.2778C59.8035 37.3475 59.9604 37.3823 60.1346 37.3823Z" fill="white"/>
<path d="M47.2422 39.1863V23.7354H54.5624V26.2713H51.033V29.8269H54.118V32.6765H51.033V39.1863H47.2422Z" fill="white"/>
<mask id="path-63-outside-26_6307_34581" maskUnits="userSpaceOnUse" x="195.57" y="21.7354" width="12" height="20" fill="black">
<rect fill="white" x="195.57" y="21.7354" width="12" height="20"/>
<path d="M197.57 39.1863V23.7354H204.891V26.2713H201.361V29.8269H204.446V32.6765H201.361V36.7027H204.891V39.1863H197.57Z"/>
</mask>
<path d="M197.57 39.1863V23.7354H204.891V26.2713H201.361V29.8269H204.446V32.6765H201.361V36.7027H204.891V39.1863H197.57Z" stroke="black" stroke-width="4" mask="url(#path-63-outside-26_6307_34581)"/>
<mask id="path-64-outside-27_6307_34581" maskUnits="userSpaceOnUse" x="185.047" y="21.5" width="14" height="20" fill="black">
<rect fill="white" x="185.047" y="21.5" width="14" height="20"/>
<path d="M191.622 39.5C190.716 39.5 189.923 39.3954 189.243 39.1863C188.563 38.9597 188.023 38.5152 187.622 37.8529C187.239 37.1906 187.047 36.1972 187.047 34.8725V27.0033C187.047 26.1144 187.239 25.4172 187.622 24.9118C188.023 24.4063 188.563 24.049 189.243 23.8399C189.94 23.6133 190.733 23.5 191.622 23.5C192.546 23.5 193.339 23.6133 194.001 23.8399C194.663 24.049 195.169 24.4063 195.517 24.9118C195.883 25.4172 196.066 26.1144 196.066 27.0033V30.4281H192.432V26.8464C192.432 26.5327 192.398 26.2974 192.328 26.1405C192.258 25.9837 192.162 25.8791 192.04 25.8268C191.936 25.7571 191.796 25.7222 191.622 25.7222C191.465 25.7222 191.326 25.7571 191.204 25.8268C191.082 25.8791 190.986 25.9837 190.916 26.1405C190.846 26.2974 190.812 26.5327 190.812 26.8464V36.2582C190.812 36.5545 190.846 36.7898 190.916 36.964C190.986 37.1383 191.082 37.2516 191.204 37.3039C191.326 37.3562 191.465 37.3823 191.622 37.3823C191.796 37.3823 191.936 37.3562 192.04 37.3039C192.162 37.2516 192.258 37.1383 192.328 36.964C192.398 36.7898 192.432 36.5545 192.432 36.2582V32.9379H196.066V34.8464C196.066 36.1884 195.883 37.1906 195.517 37.8529C195.169 38.5152 194.663 38.9597 194.001 39.1863C193.339 39.3954 192.546 39.5 191.622 39.5Z"/>
</mask>
<path d="M191.622 39.5C190.716 39.5 189.923 39.3954 189.243 39.1863C188.563 38.9597 188.023 38.5152 187.622 37.8529C187.239 37.1906 187.047 36.1972 187.047 34.8725V27.0033C187.047 26.1144 187.239 25.4172 187.622 24.9118C188.023 24.4063 188.563 24.049 189.243 23.8399C189.94 23.6133 190.733 23.5 191.622 23.5C192.546 23.5 193.339 23.6133 194.001 23.8399C194.663 24.049 195.169 24.4063 195.517 24.9118C195.883 25.4172 196.066 26.1144 196.066 27.0033V30.4281H192.432V26.8464C192.432 26.5327 192.398 26.2974 192.328 26.1405C192.258 25.9837 192.162 25.8791 192.04 25.8268C191.936 25.7571 191.796 25.7222 191.622 25.7222C191.465 25.7222 191.326 25.7571 191.204 25.8268C191.082 25.8791 190.986 25.9837 190.916 26.1405C190.846 26.2974 190.812 26.5327 190.812 26.8464V36.2582C190.812 36.5545 190.846 36.7898 190.916 36.964C190.986 37.1383 191.082 37.2516 191.204 37.3039C191.326 37.3562 191.465 37.3823 191.622 37.3823C191.796 37.3823 191.936 37.3562 192.04 37.3039C192.162 37.2516 192.258 37.1383 192.328 36.964C192.398 36.7898 192.432 36.5545 192.432 36.2582V32.9379H196.066V34.8464C196.066 36.1884 195.883 37.1906 195.517 37.8529C195.169 38.5152 194.663 38.9597 194.001 39.1863C193.339 39.3954 192.546 39.5 191.622 39.5Z" stroke="black" stroke-width="4" mask="url(#path-64-outside-27_6307_34581)"/>
<mask id="path-65-outside-28_6307_34581" maskUnits="userSpaceOnUse" x="174.18" y="21.7354" width="15" height="20" fill="black">
<rect fill="white" x="174.18" y="21.7354" width="15" height="20"/>
<path d="M176.18 39.1863V23.7354H182.167C183.247 23.7354 184.049 23.9794 184.572 24.4674C185.095 24.938 185.356 25.5654 185.356 26.3497V28.755C185.356 29.5218 185.156 30.2016 184.755 30.7942C184.371 31.3868 183.718 31.7266 182.794 31.8138V31.8661C183.387 31.9706 183.805 32.1711 184.049 32.4674C184.293 32.7462 184.502 33.2081 184.676 33.853L186.088 39.1863H182.062L181.042 34.0883C180.955 33.7048 180.868 33.3998 180.781 33.1733C180.694 32.9292 180.572 32.8072 180.415 32.8072H179.971V39.1863H176.18ZM179.971 30.2713H180.781C181.13 30.2713 181.382 30.158 181.539 29.9314C181.713 29.7048 181.801 29.3301 181.801 28.8072V27.0295C181.801 26.5066 181.731 26.1493 181.591 25.9576C181.452 25.7659 181.225 25.67 180.912 25.67H179.971V30.2713Z"/>
</mask>
<path d="M176.18 39.1863V23.7354H182.167C183.247 23.7354 184.049 23.9794 184.572 24.4674C185.095 24.938 185.356 25.5654 185.356 26.3497V28.755C185.356 29.5218 185.156 30.2016 184.755 30.7942C184.371 31.3868 183.718 31.7266 182.794 31.8138V31.8661C183.387 31.9706 183.805 32.1711 184.049 32.4674C184.293 32.7462 184.502 33.2081 184.676 33.853L186.088 39.1863H182.062L181.042 34.0883C180.955 33.7048 180.868 33.3998 180.781 33.1733C180.694 32.9292 180.572 32.8072 180.415 32.8072H179.971V39.1863H176.18ZM179.971 30.2713H180.781C181.13 30.2713 181.382 30.158 181.539 29.9314C181.713 29.7048 181.801 29.3301 181.801 28.8072V27.0295C181.801 26.5066 181.731 26.1493 181.591 25.9576C181.452 25.7659 181.225 25.67 180.912 25.67H179.971V30.2713Z" stroke="black" stroke-width="4" mask="url(#path-65-outside-28_6307_34581)"/>
<mask id="path-66-outside-29_6307_34581" maskUnits="userSpaceOnUse" x="165.523" y="21.7354" width="12" height="20" fill="black">
<rect fill="white" x="165.523" y="21.7354" width="12" height="20"/>
<path d="M167.523 39.1863V23.7354H174.844V26.2713H171.314V29.8269H174.399V32.6765H171.314V36.7027H174.844V39.1863H167.523Z"/>
</mask>
<path d="M167.523 39.1863V23.7354H174.844V26.2713H171.314V29.8269H174.399V32.6765H171.314V36.7027H174.844V39.1863H167.523Z" stroke="black" stroke-width="4" mask="url(#path-66-outside-29_6307_34581)"/>
<mask id="path-67-outside-30_6307_34581" maskUnits="userSpaceOnUse" x="151.453" y="21.7354" width="17" height="20" fill="black">
<rect fill="white" x="151.453" y="21.7354" width="17" height="20"/>
<path d="M153.453 39.1863V23.7354H158.028L159.623 32.6242L161.244 23.7354H165.793V39.1863H162.603V28.0491L160.852 39.1863H158.394L156.643 28.0491V39.1863H153.453Z"/>
</mask>
<path d="M153.453 39.1863V23.7354H158.028L159.623 32.6242L161.244 23.7354H165.793V39.1863H162.603V28.0491L160.852 39.1863H158.394L156.643 28.0491V39.1863H153.453Z" stroke="black" stroke-width="4" mask="url(#path-67-outside-30_6307_34581)"/>
<mask id="path-68-outside-31_6307_34581" maskUnits="userSpaceOnUse" x="137.383" y="21.7354" width="17" height="20" fill="black">
<rect fill="white" x="137.383" y="21.7354" width="17" height="20"/>
<path d="M139.383 39.1863V23.7354H143.958L145.553 32.6242L147.174 23.7354H151.723V39.1863H148.533V28.0491L146.781 39.1863H144.324L142.572 28.0491V39.1863H139.383Z"/>
</mask>
<path d="M139.383 39.1863V23.7354H143.958L145.553 32.6242L147.174 23.7354H151.723V39.1863H148.533V28.0491L146.781 39.1863H144.324L142.572 28.0491V39.1863H139.383Z" stroke="black" stroke-width="4" mask="url(#path-68-outside-31_6307_34581)"/>
<mask id="path-69-outside-32_6307_34581" maskUnits="userSpaceOnUse" x="126.789" y="21.5" width="14" height="20" fill="black">
<rect fill="white" x="126.789" y="21.5" width="14" height="20"/>
<path d="M133.26 39.5C132.371 39.5 131.586 39.3954 130.907 39.1863C130.244 38.9597 129.722 38.5152 129.338 37.8529C128.972 37.1906 128.789 36.1972 128.789 34.8725V27.0033C128.789 26.1144 128.972 25.4172 129.338 24.9118C129.722 24.4063 130.244 24.049 130.907 23.8399C131.586 23.6133 132.371 23.5 133.26 23.5C134.149 23.5 134.933 23.6133 135.613 23.8399C136.292 24.049 136.824 24.4063 137.207 24.9118C137.608 25.4172 137.809 26.1144 137.809 27.0033V34.8464C137.809 36.1884 137.608 37.1906 137.207 37.8529C136.824 38.5152 136.292 38.9597 135.613 39.1863C134.933 39.3954 134.149 39.5 133.26 39.5ZM133.26 37.3823C133.434 37.3823 133.591 37.3475 133.73 37.2778C133.887 37.2081 134 37.0948 134.07 36.9379C134.14 36.7636 134.175 36.537 134.175 36.2582V26.8464C134.175 26.585 134.14 26.3671 134.07 26.1928C134 26.0185 133.887 25.8965 133.73 25.8268C133.591 25.7571 133.434 25.7222 133.26 25.7222C133.085 25.7222 132.929 25.7571 132.789 25.8268C132.65 25.8965 132.536 26.0185 132.449 26.1928C132.379 26.3671 132.345 26.585 132.345 26.8464V36.2582C132.345 36.537 132.379 36.7636 132.449 36.9379C132.536 37.0948 132.65 37.2081 132.789 37.2778C132.929 37.3475 133.085 37.3823 133.26 37.3823Z"/>
</mask>
<path d="M133.26 39.5C132.371 39.5 131.586 39.3954 130.907 39.1863C130.244 38.9597 129.722 38.5152 129.338 37.8529C128.972 37.1906 128.789 36.1972 128.789 34.8725V27.0033C128.789 26.1144 128.972 25.4172 129.338 24.9118C129.722 24.4063 130.244 24.049 130.907 23.8399C131.586 23.6133 132.371 23.5 133.26 23.5C134.149 23.5 134.933 23.6133 135.613 23.8399C136.292 24.049 136.824 24.4063 137.207 24.9118C137.608 25.4172 137.809 26.1144 137.809 27.0033V34.8464C137.809 36.1884 137.608 37.1906 137.207 37.8529C136.824 38.5152 136.292 38.9597 135.613 39.1863C134.933 39.3954 134.149 39.5 133.26 39.5ZM133.26 37.3823C133.434 37.3823 133.591 37.3475 133.73 37.2778C133.887 37.2081 134 37.0948 134.07 36.9379C134.14 36.7636 134.175 36.537 134.175 36.2582V26.8464C134.175 26.585 134.14 26.3671 134.07 26.1928C134 26.0185 133.887 25.8965 133.73 25.8268C133.591 25.7571 133.434 25.7222 133.26 25.7222C133.085 25.7222 132.929 25.7571 132.789 25.8268C132.65 25.8965 132.536 26.0185 132.449 26.1928C132.379 26.3671 132.345 26.585 132.345 26.8464V36.2582C132.345 36.537 132.379 36.7636 132.449 36.9379C132.536 37.0948 132.65 37.2081 132.789 37.2778C132.929 37.3475 133.085 37.3823 133.26 37.3823Z" stroke="black" stroke-width="4" mask="url(#path-69-outside-32_6307_34581)"/>
<mask id="path-70-outside-33_6307_34581" maskUnits="userSpaceOnUse" x="116.422" y="21.5" width="14" height="20" fill="black">
<rect fill="white" x="116.422" y="21.5" width="14" height="20"/>
<path d="M122.997 39.5C122.091 39.5 121.298 39.3954 120.618 39.1863C119.938 38.9597 119.398 38.5152 118.997 37.8529C118.614 37.1906 118.422 36.1972 118.422 34.8725V27.0033C118.422 26.1144 118.614 25.4172 118.997 24.9118C119.398 24.4063 119.938 24.049 120.618 23.8399C121.315 23.6133 122.108 23.5 122.997 23.5C123.921 23.5 124.714 23.6133 125.376 23.8399C126.038 24.049 126.544 24.4063 126.892 24.9118C127.258 25.4172 127.441 26.1144 127.441 27.0033V30.4281H123.807V26.8464C123.807 26.5327 123.773 26.2974 123.703 26.1405C123.633 25.9837 123.537 25.8791 123.415 25.8268C123.311 25.7571 123.171 25.7222 122.997 25.7222C122.84 25.7222 122.701 25.7571 122.579 25.8268C122.457 25.8791 122.361 25.9837 122.291 26.1405C122.221 26.2974 122.187 26.5327 122.187 26.8464V36.2582C122.187 36.5545 122.221 36.7898 122.291 36.964C122.361 37.1383 122.457 37.2516 122.579 37.3039C122.701 37.3562 122.84 37.3823 122.997 37.3823C123.171 37.3823 123.311 37.3562 123.415 37.3039C123.537 37.2516 123.633 37.1383 123.703 36.964C123.773 36.7898 123.807 36.5545 123.807 36.2582V32.9379H127.441V34.8464C127.441 36.1884 127.258 37.1906 126.892 37.8529C126.544 38.5152 126.038 38.9597 125.376 39.1863C124.714 39.3954 123.921 39.5 122.997 39.5Z"/>
</mask>
<path d="M122.997 39.5C122.091 39.5 121.298 39.3954 120.618 39.1863C119.938 38.9597 119.398 38.5152 118.997 37.8529C118.614 37.1906 118.422 36.1972 118.422 34.8725V27.0033C118.422 26.1144 118.614 25.4172 118.997 24.9118C119.398 24.4063 119.938 24.049 120.618 23.8399C121.315 23.6133 122.108 23.5 122.997 23.5C123.921 23.5 124.714 23.6133 125.376 23.8399C126.038 24.049 126.544 24.4063 126.892 24.9118C127.258 25.4172 127.441 26.1144 127.441 27.0033V30.4281H123.807V26.8464C123.807 26.5327 123.773 26.2974 123.703 26.1405C123.633 25.9837 123.537 25.8791 123.415 25.8268C123.311 25.7571 123.171 25.7222 122.997 25.7222C122.84 25.7222 122.701 25.7571 122.579 25.8268C122.457 25.8791 122.361 25.9837 122.291 26.1405C122.221 26.2974 122.187 26.5327 122.187 26.8464V36.2582C122.187 36.5545 122.221 36.7898 122.291 36.964C122.361 37.1383 122.457 37.2516 122.579 37.3039C122.701 37.3562 122.84 37.3823 122.997 37.3823C123.171 37.3823 123.311 37.3562 123.415 37.3039C123.537 37.2516 123.633 37.1383 123.703 36.964C123.773 36.7898 123.807 36.5545 123.807 36.2582V32.9379H127.441V34.8464C127.441 36.1884 127.258 37.1906 126.892 37.8529C126.544 38.5152 126.038 38.9597 125.376 39.1863C124.714 39.3954 123.921 39.5 122.997 39.5Z" stroke="black" stroke-width="4" mask="url(#path-70-outside-33_6307_34581)"/>
<mask id="path-71-outside-34_6307_34581" maskUnits="userSpaceOnUse" x="105.984" y="21.5" width="14" height="20" fill="black">
<rect fill="white" x="105.984" y="21.5" width="14" height="20"/>
<path d="M112.455 39.5C111.566 39.5 110.782 39.3954 110.102 39.1863C109.44 38.9597 108.917 38.5152 108.533 37.8529C108.167 37.1906 107.984 36.1972 107.984 34.8725V27.0033C107.984 26.1144 108.167 25.4172 108.533 24.9118C108.917 24.4063 109.44 24.049 110.102 23.8399C110.782 23.6133 111.566 23.5 112.455 23.5C113.344 23.5 114.128 23.6133 114.808 23.8399C115.488 24.049 116.019 24.4063 116.403 24.9118C116.804 25.4172 117.004 26.1144 117.004 27.0033V34.8464C117.004 36.1884 116.804 37.1906 116.403 37.8529C116.019 38.5152 115.488 38.9597 114.808 39.1863C114.128 39.3954 113.344 39.5 112.455 39.5ZM112.455 37.3823C112.629 37.3823 112.786 37.3475 112.926 37.2778C113.082 37.2081 113.196 37.0948 113.265 36.9379C113.335 36.7636 113.37 36.537 113.37 36.2582V26.8464C113.37 26.585 113.335 26.3671 113.265 26.1928C113.196 26.0185 113.082 25.8965 112.926 25.8268C112.786 25.7571 112.629 25.7222 112.455 25.7222C112.281 25.7222 112.124 25.7571 111.984 25.8268C111.845 25.8965 111.732 26.0185 111.644 26.1928C111.575 26.3671 111.54 26.585 111.54 26.8464V36.2582C111.54 36.537 111.575 36.7636 111.644 36.9379C111.732 37.0948 111.845 37.2081 111.984 37.2778C112.124 37.3475 112.281 37.3823 112.455 37.3823Z"/>
</mask>
<path d="M112.455 39.5C111.566 39.5 110.782 39.3954 110.102 39.1863C109.44 38.9597 108.917 38.5152 108.533 37.8529C108.167 37.1906 107.984 36.1972 107.984 34.8725V27.0033C107.984 26.1144 108.167 25.4172 108.533 24.9118C108.917 24.4063 109.44 24.049 110.102 23.8399C110.782 23.6133 111.566 23.5 112.455 23.5C113.344 23.5 114.128 23.6133 114.808 23.8399C115.488 24.049 116.019 24.4063 116.403 24.9118C116.804 25.4172 117.004 26.1144 117.004 27.0033V34.8464C117.004 36.1884 116.804 37.1906 116.403 37.8529C116.019 38.5152 115.488 38.9597 114.808 39.1863C114.128 39.3954 113.344 39.5 112.455 39.5ZM112.455 37.3823C112.629 37.3823 112.786 37.3475 112.926 37.2778C113.082 37.2081 113.196 37.0948 113.265 36.9379C113.335 36.7636 113.37 36.537 113.37 36.2582V26.8464C113.37 26.585 113.335 26.3671 113.265 26.1928C113.196 26.0185 113.082 25.8965 112.926 25.8268C112.786 25.7571 112.629 25.7222 112.455 25.7222C112.281 25.7222 112.124 25.7571 111.984 25.8268C111.845 25.8965 111.732 26.0185 111.644 26.1928C111.575 26.3671 111.54 26.585 111.54 26.8464V36.2582C111.54 36.537 111.575 36.7636 111.644 36.9379C111.732 37.0948 111.845 37.2081 111.984 37.2778C112.124 37.3475 112.281 37.3823 112.455 37.3823Z" stroke="black" stroke-width="4" mask="url(#path-71-outside-34_6307_34581)"/>
<mask id="path-72-outside-35_6307_34581" maskUnits="userSpaceOnUse" x="95.5391" y="21.5" width="14" height="20" fill="black">
<rect fill="white" x="95.5391" y="21.5" width="14" height="20"/>
<path d="M102.01 39.5C101.121 39.5 100.336 39.3954 99.6567 39.1863C98.9944 38.9597 98.4715 38.5152 98.0881 37.8529C97.7221 37.1906 97.5391 36.1972 97.5391 34.8725V27.0033C97.5391 26.1144 97.7221 25.4172 98.0881 24.9118C98.4715 24.4063 98.9944 24.049 99.6567 23.8399C100.336 23.6133 101.121 23.5 102.01 23.5C102.899 23.5 103.683 23.6133 104.363 23.8399C105.042 24.049 105.574 24.4063 105.957 24.9118C106.358 25.4172 106.559 26.1144 106.559 27.0033V34.8464C106.559 36.1884 106.358 37.1906 105.957 37.8529C105.574 38.5152 105.042 38.9597 104.363 39.1863C103.683 39.3954 102.899 39.5 102.01 39.5ZM102.01 37.3823C102.184 37.3823 102.341 37.3475 102.48 37.2778C102.637 37.2081 102.75 37.0948 102.82 36.9379C102.89 36.7636 102.925 36.537 102.925 36.2582V26.8464C102.925 26.585 102.89 26.3671 102.82 26.1928C102.75 26.0185 102.637 25.8965 102.48 25.8268C102.341 25.7571 102.184 25.7222 102.01 25.7222C101.835 25.7222 101.679 25.7571 101.539 25.8268C101.4 25.8965 101.286 26.0185 101.199 26.1928C101.129 26.3671 101.095 26.585 101.095 26.8464V36.2582C101.095 36.537 101.129 36.7636 101.199 36.9379C101.286 37.0948 101.4 37.2081 101.539 37.2778C101.679 37.3475 101.835 37.3823 102.01 37.3823Z"/>
</mask>
<path d="M102.01 39.5C101.121 39.5 100.336 39.3954 99.6567 39.1863C98.9944 38.9597 98.4715 38.5152 98.0881 37.8529C97.7221 37.1906 97.5391 36.1972 97.5391 34.8725V27.0033C97.5391 26.1144 97.7221 25.4172 98.0881 24.9118C98.4715 24.4063 98.9944 24.049 99.6567 23.8399C100.336 23.6133 101.121 23.5 102.01 23.5C102.899 23.5 103.683 23.6133 104.363 23.8399C105.042 24.049 105.574 24.4063 105.957 24.9118C106.358 25.4172 106.559 26.1144 106.559 27.0033V34.8464C106.559 36.1884 106.358 37.1906 105.957 37.8529C105.574 38.5152 105.042 38.9597 104.363 39.1863C103.683 39.3954 102.899 39.5 102.01 39.5ZM102.01 37.3823C102.184 37.3823 102.341 37.3475 102.48 37.2778C102.637 37.2081 102.75 37.0948 102.82 36.9379C102.89 36.7636 102.925 36.537 102.925 36.2582V26.8464C102.925 26.585 102.89 26.3671 102.82 26.1928C102.75 26.0185 102.637 25.8965 102.48 25.8268C102.341 25.7571 102.184 25.7222 102.01 25.7222C101.835 25.7222 101.679 25.7571 101.539 25.8268C101.4 25.8965 101.286 26.0185 101.199 26.1928C101.129 26.3671 101.095 26.585 101.095 26.8464V36.2582C101.095 36.537 101.129 36.7636 101.199 36.9379C101.286 37.0948 101.4 37.2081 101.539 37.2778C101.679 37.3475 101.835 37.3823 102.01 37.3823Z" stroke="black" stroke-width="4" mask="url(#path-72-outside-35_6307_34581)"/>
<mask id="path-73-outside-36_6307_34581" maskUnits="userSpaceOnUse" x="78.1641" y="21.7354" width="21" height="20" fill="black">
<rect fill="white" x="78.1641" y="21.7354" width="21" height="20"/>
<path d="M83.4386 39.1863L81.1641 23.7354H84.9026L86.1575 34.585L87.4386 23.7354H90.4712L91.7523 34.585L93.0072 23.7354H96.7719L94.4712 39.1863H90.2359L88.9549 31.3693L87.6739 39.1863H83.4386Z"/>
</mask>
<path d="M83.4386 39.1863L81.1641 23.7354H84.9026L86.1575 34.585L87.4386 23.7354H90.4712L91.7523 34.585L93.0072 23.7354H96.7719L94.4712 39.1863H90.2359L88.9549 31.3693L87.6739 39.1863H83.4386Z" stroke="black" stroke-width="4" mask="url(#path-73-outside-36_6307_34581)"/>
<path d="M197.57 39.1863V23.7354H204.891V26.2713H201.361V29.8269H204.446V32.6765H201.361V36.7027H204.891V39.1863H197.57Z" fill="white"/>
<path d="M191.622 39.5C190.716 39.5 189.923 39.3954 189.243 39.1863C188.563 38.9597 188.023 38.5152 187.622 37.8529C187.239 37.1906 187.047 36.1972 187.047 34.8725V27.0033C187.047 26.1144 187.239 25.4172 187.622 24.9118C188.023 24.4063 188.563 24.049 189.243 23.8399C189.94 23.6133 190.733 23.5 191.622 23.5C192.546 23.5 193.339 23.6133 194.001 23.8399C194.663 24.049 195.169 24.4063 195.517 24.9118C195.883 25.4172 196.066 26.1144 196.066 27.0033V30.4281H192.432V26.8464C192.432 26.5327 192.398 26.2974 192.328 26.1405C192.258 25.9837 192.162 25.8791 192.04 25.8268C191.936 25.7571 191.796 25.7222 191.622 25.7222C191.465 25.7222 191.326 25.7571 191.204 25.8268C191.082 25.8791 190.986 25.9837 190.916 26.1405C190.846 26.2974 190.812 26.5327 190.812 26.8464V36.2582C190.812 36.5545 190.846 36.7898 190.916 36.964C190.986 37.1383 191.082 37.2516 191.204 37.3039C191.326 37.3562 191.465 37.3823 191.622 37.3823C191.796 37.3823 191.936 37.3562 192.04 37.3039C192.162 37.2516 192.258 37.1383 192.328 36.964C192.398 36.7898 192.432 36.5545 192.432 36.2582V32.9379H196.066V34.8464C196.066 36.1884 195.883 37.1906 195.517 37.8529C195.169 38.5152 194.663 38.9597 194.001 39.1863C193.339 39.3954 192.546 39.5 191.622 39.5Z" fill="white"/>
<path d="M176.18 39.1863V23.7354H182.167C183.247 23.7354 184.049 23.9794 184.572 24.4674C185.095 24.938 185.356 25.5654 185.356 26.3497V28.755C185.356 29.5218 185.156 30.2016 184.755 30.7942C184.371 31.3868 183.718 31.7266 182.794 31.8138V31.8661C183.387 31.9706 183.805 32.1711 184.049 32.4674C184.293 32.7462 184.502 33.2081 184.676 33.853L186.088 39.1863H182.062L181.042 34.0883C180.955 33.7048 180.868 33.3998 180.781 33.1733C180.694 32.9292 180.572 32.8072 180.415 32.8072H179.971V39.1863H176.18ZM179.971 30.2713H180.781C181.13 30.2713 181.382 30.158 181.539 29.9314C181.713 29.7048 181.801 29.3301 181.801 28.8072V27.0295C181.801 26.5066 181.731 26.1493 181.591 25.9576C181.452 25.7659 181.225 25.67 180.912 25.67H179.971V30.2713Z" fill="white"/>
<path d="M167.523 39.1863V23.7354H174.844V26.2713H171.314V29.8269H174.399V32.6765H171.314V36.7027H174.844V39.1863H167.523Z" fill="white"/>
<path d="M153.453 39.1863V23.7354H158.028L159.623 32.6242L161.244 23.7354H165.793V39.1863H162.603V28.0491L160.852 39.1863H158.394L156.643 28.0491V39.1863H153.453Z" fill="white"/>
<path d="M139.383 39.1863V23.7354H143.958L145.553 32.6242L147.174 23.7354H151.723V39.1863H148.533V28.0491L146.781 39.1863H144.324L142.572 28.0491V39.1863H139.383Z" fill="white"/>
<path d="M133.26 39.5C132.371 39.5 131.586 39.3954 130.907 39.1863C130.244 38.9597 129.722 38.5152 129.338 37.8529C128.972 37.1906 128.789 36.1972 128.789 34.8725V27.0033C128.789 26.1144 128.972 25.4172 129.338 24.9118C129.722 24.4063 130.244 24.049 130.907 23.8399C131.586 23.6133 132.371 23.5 133.26 23.5C134.149 23.5 134.933 23.6133 135.613 23.8399C136.292 24.049 136.824 24.4063 137.207 24.9118C137.608 25.4172 137.809 26.1144 137.809 27.0033V34.8464C137.809 36.1884 137.608 37.1906 137.207 37.8529C136.824 38.5152 136.292 38.9597 135.613 39.1863C134.933 39.3954 134.149 39.5 133.26 39.5ZM133.26 37.3823C133.434 37.3823 133.591 37.3475 133.73 37.2778C133.887 37.2081 134 37.0948 134.07 36.9379C134.14 36.7636 134.175 36.537 134.175 36.2582V26.8464C134.175 26.585 134.14 26.3671 134.07 26.1928C134 26.0185 133.887 25.8965 133.73 25.8268C133.591 25.7571 133.434 25.7222 133.26 25.7222C133.085 25.7222 132.929 25.7571 132.789 25.8268C132.65 25.8965 132.536 26.0185 132.449 26.1928C132.379 26.3671 132.345 26.585 132.345 26.8464V36.2582C132.345 36.537 132.379 36.7636 132.449 36.9379C132.536 37.0948 132.65 37.2081 132.789 37.2778C132.929 37.3475 133.085 37.3823 133.26 37.3823Z" fill="white"/>
<path d="M122.997 39.5C122.091 39.5 121.298 39.3954 120.618 39.1863C119.938 38.9597 119.398 38.5152 118.997 37.8529C118.614 37.1906 118.422 36.1972 118.422 34.8725V27.0033C118.422 26.1144 118.614 25.4172 118.997 24.9118C119.398 24.4063 119.938 24.049 120.618 23.8399C121.315 23.6133 122.108 23.5 122.997 23.5C123.921 23.5 124.714 23.6133 125.376 23.8399C126.038 24.049 126.544 24.4063 126.892 24.9118C127.258 25.4172 127.441 26.1144 127.441 27.0033V30.4281H123.807V26.8464C123.807 26.5327 123.773 26.2974 123.703 26.1405C123.633 25.9837 123.537 25.8791 123.415 25.8268C123.311 25.7571 123.171 25.7222 122.997 25.7222C122.84 25.7222 122.701 25.7571 122.579 25.8268C122.457 25.8791 122.361 25.9837 122.291 26.1405C122.221 26.2974 122.187 26.5327 122.187 26.8464V36.2582C122.187 36.5545 122.221 36.7898 122.291 36.964C122.361 37.1383 122.457 37.2516 122.579 37.3039C122.701 37.3562 122.84 37.3823 122.997 37.3823C123.171 37.3823 123.311 37.3562 123.415 37.3039C123.537 37.2516 123.633 37.1383 123.703 36.964C123.773 36.7898 123.807 36.5545 123.807 36.2582V32.9379H127.441V34.8464C127.441 36.1884 127.258 37.1906 126.892 37.8529C126.544 38.5152 126.038 38.9597 125.376 39.1863C124.714 39.3954 123.921 39.5 122.997 39.5Z" fill="white"/>
<path d="M112.455 39.5C111.566 39.5 110.782 39.3954 110.102 39.1863C109.44 38.9597 108.917 38.5152 108.533 37.8529C108.167 37.1906 107.984 36.1972 107.984 34.8725V27.0033C107.984 26.1144 108.167 25.4172 108.533 24.9118C108.917 24.4063 109.44 24.049 110.102 23.8399C110.782 23.6133 111.566 23.5 112.455 23.5C113.344 23.5 114.128 23.6133 114.808 23.8399C115.488 24.049 116.019 24.4063 116.403 24.9118C116.804 25.4172 117.004 26.1144 117.004 27.0033V34.8464C117.004 36.1884 116.804 37.1906 116.403 37.8529C116.019 38.5152 115.488 38.9597 114.808 39.1863C114.128 39.3954 113.344 39.5 112.455 39.5ZM112.455 37.3823C112.629 37.3823 112.786 37.3475 112.926 37.2778C113.082 37.2081 113.196 37.0948 113.265 36.9379C113.335 36.7636 113.37 36.537 113.37 36.2582V26.8464C113.37 26.585 113.335 26.3671 113.265 26.1928C113.196 26.0185 113.082 25.8965 112.926 25.8268C112.786 25.7571 112.629 25.7222 112.455 25.7222C112.281 25.7222 112.124 25.7571 111.984 25.8268C111.845 25.8965 111.732 26.0185 111.644 26.1928C111.575 26.3671 111.54 26.585 111.54 26.8464V36.2582C111.54 36.537 111.575 36.7636 111.644 36.9379C111.732 37.0948 111.845 37.2081 111.984 37.2778C112.124 37.3475 112.281 37.3823 112.455 37.3823Z" fill="white"/>
<path d="M102.01 39.5C101.121 39.5 100.336 39.3954 99.6567 39.1863C98.9944 38.9597 98.4715 38.5152 98.0881 37.8529C97.7221 37.1906 97.5391 36.1972 97.5391 34.8725V27.0033C97.5391 26.1144 97.7221 25.4172 98.0881 24.9118C98.4715 24.4063 98.9944 24.049 99.6567 23.8399C100.336 23.6133 101.121 23.5 102.01 23.5C102.899 23.5 103.683 23.6133 104.363 23.8399C105.042 24.049 105.574 24.4063 105.957 24.9118C106.358 25.4172 106.559 26.1144 106.559 27.0033V34.8464C106.559 36.1884 106.358 37.1906 105.957 37.8529C105.574 38.5152 105.042 38.9597 104.363 39.1863C103.683 39.3954 102.899 39.5 102.01 39.5ZM102.01 37.3823C102.184 37.3823 102.341 37.3475 102.48 37.2778C102.637 37.2081 102.75 37.0948 102.82 36.9379C102.89 36.7636 102.925 36.537 102.925 36.2582V26.8464C102.925 26.585 102.89 26.3671 102.82 26.1928C102.75 26.0185 102.637 25.8965 102.48 25.8268C102.341 25.7571 102.184 25.7222 102.01 25.7222C101.835 25.7222 101.679 25.7571 101.539 25.8268C101.4 25.8965 101.286 26.0185 101.199 26.1928C101.129 26.3671 101.095 26.585 101.095 26.8464V36.2582C101.095 36.537 101.129 36.7636 101.199 36.9379C101.286 37.0948 101.4 37.2081 101.539 37.2778C101.679 37.3475 101.835 37.3823 102.01 37.3823Z" fill="white"/>
<path d="M83.4386 39.1863L81.1641 23.7354H84.9026L86.1575 34.585L87.4386 23.7354H90.4712L91.7523 34.585L93.0072 23.7354H96.7719L94.4712 39.1863H90.2359L88.9549 31.3693L87.6739 39.1863H83.4386Z" fill="white"/>
</svg>
