<svg width="270" height="40" viewBox="0 0 270 40" fill="none" xmlns="http://www.w3.org/2000/svg">
<path d="M5.71923 37.9457H10.0777C10.7623 37.9457 11.3176 37.4199 11.3176 36.722C11.3176 36.0241 10.7627 35.4983 10.0777 35.4983H5.71923C3.88431 35.4983 2.40069 33.8382 2.40069 31.8962V13.8798H32.4092V18.4817C32.4092 19.1796 33.1251 19.7457 33.8096 19.7457C34.4942 19.7457 35.21 19.18 35.21 18.4817V8.12599C35.21 4.83304 32.1744 2.05078 28.9787 2.05078H5.71923C2.51712 2.05078 0 4.77594 0 8.12599V31.8962C0 35.2319 2.51712 37.9457 5.71923 37.9457ZM2.40069 8.12599C2.40069 6.20317 3.91552 4.49816 5.71923 4.49816H28.9787C30.83 4.49816 32.4092 6.20317 32.4092 8.12599V11.4324H2.40069V8.12599Z" fill="#0C0C0C"/>
<path d="M28.1821 6.94531H27.6864C27.0018 6.94531 26.4464 7.67504 26.4464 8.37295C26.4464 9.07086 27.0014 9.80059 27.6864 9.80059H28.1821C28.8667 9.80059 29.4221 9.07086 29.4221 8.37295C29.4221 7.67504 28.8667 6.94531 28.1821 6.94531ZM23.9669 6.94531H23.4712C22.7866 6.94531 22.2312 7.67504 22.2312 8.37295C22.2312 9.07086 22.7862 9.80059 23.4712 9.80059H23.9669C24.6515 9.80059 25.2069 9.07086 25.2069 8.37295C25.2069 7.67504 24.6515 6.94531 23.9669 6.94531ZM19.5036 6.94531H19.0079C18.3233 6.94531 17.768 7.67504 17.768 8.37295C17.768 9.07086 18.3229 9.80059 19.0079 9.80059H19.5036C20.1882 9.80059 20.7436 9.07086 20.7436 8.37295C20.7436 7.67504 20.1882 6.94531 19.5036 6.94531ZM22.8086 19.6452C17.3718 19.6452 12.4068 23.1257 10.4062 28.3064C10.4062 28.3064 13.009 38.0772 22.8086 37.8643C33.1627 37.6395 35.2133 28.3064 35.2133 28.3064C33.2128 23.1257 28.2469 19.6452 22.8086 19.6452ZM22.897 35.3365C18.6422 35.3365 14.7563 32.7109 13.0798 28.7547C14.7559 24.7985 18.6422 22.1729 22.897 22.1729C27.153 22.1729 31.0397 24.7985 32.7162 28.7547C31.0401 32.7109 27.153 35.3365 22.897 35.3365Z" fill="#0C0C0C"/>
<path d="M22.8891 23.8496C20.2363 23.8496 18.0781 26.0494 18.0781 28.7537C18.0781 31.4581 20.2363 33.6579 22.8891 33.6579C25.5419 33.6579 27.6997 31.4581 27.6997 28.7537C27.6997 26.0494 25.5419 23.8496 22.8891 23.8496ZM22.8891 31.1302C21.6035 31.1302 20.5576 30.0639 20.5576 28.7537C20.5576 27.4436 21.6035 26.3773 22.8891 26.3773C24.1747 26.3773 25.2202 27.4436 25.2202 28.7537C25.2202 30.0639 24.1747 31.1302 22.8891 31.1302Z" fill="#0C0C0C"/>
<path d="M6.04648 39.9995H10.6543C11.3781 39.9995 11.9652 39.4436 11.9652 38.7058C11.9652 37.968 11.3785 37.4121 10.6543 37.4121H6.04648C4.10656 37.4121 2.53805 35.657 2.53805 33.6038V14.5566H34.2636V19.4218C34.2636 20.1597 35.0204 20.7582 35.7442 20.7582C36.4679 20.7582 37.2247 20.1601 37.2247 19.4218V8.4736C37.2247 4.99224 34.0153 2.05078 30.6368 2.05078H6.04648C2.66114 2.05078 0 4.93186 0 8.4736V33.6038C0 37.1305 2.66114 39.9995 6.04648 39.9995ZM2.53805 8.4736C2.53805 6.44076 4.13956 4.63819 6.04648 4.63819H30.6368C32.594 4.63819 34.2636 6.44076 34.2636 8.4736V11.9692H2.53805V8.4736Z" fill="#0C0C0C"/>
<path d="M29.793 7.22656H29.2689C28.5451 7.22656 27.958 7.99804 27.958 8.73589C27.958 9.47373 28.5447 10.2452 29.2689 10.2452H29.793C30.5167 10.2452 31.1039 9.47373 31.1039 8.73589C31.1039 7.99804 30.5167 7.22656 29.793 7.22656ZM25.3366 7.22656H24.8125C24.0887 7.22656 23.5016 7.99804 23.5016 8.73589C23.5016 9.47373 24.0883 10.2452 24.8125 10.2452H25.3366C26.0603 10.2452 26.6475 9.47373 26.6475 8.73589C26.6475 7.99804 26.0603 7.22656 25.3366 7.22656ZM20.6179 7.22656H20.0938C19.3701 7.22656 18.7829 7.99804 18.7829 8.73589C18.7829 9.47373 19.3696 10.2452 20.0938 10.2452H20.6179C21.3417 10.2452 21.9288 9.47373 21.9288 8.73589C21.9288 7.99804 21.3417 7.22656 20.6179 7.22656ZM24.112 20.6531C18.3641 20.6531 13.115 24.3328 11 29.8099C11 29.8099 13.7517 40.1397 24.112 39.9146C35.0586 39.677 37.2265 29.8099 37.2265 29.8099C35.1115 24.3328 29.8615 20.6531 24.112 20.6531ZM24.2055 37.2423C19.7072 37.2423 15.5989 34.4664 13.8265 30.2839C15.5985 26.1013 19.7072 23.3254 24.2055 23.3254C28.705 23.3254 32.8141 26.1013 34.5865 30.2839C32.8145 34.4664 28.705 37.2423 24.2055 37.2423Z" fill="#0C0C0C"/>
<path d="M24.2112 25.0977C21.4067 25.0977 19.125 27.4233 19.125 30.2824C19.125 33.1415 21.4067 35.4671 24.2112 35.4671C27.0158 35.4671 29.2971 33.1415 29.2971 30.2824C29.2971 27.4233 27.0158 25.0977 24.2112 25.0977ZM24.2112 32.7948C22.8521 32.7948 21.7464 31.6675 21.7464 30.2824C21.7464 28.8973 22.8521 27.77 24.2112 27.77C25.5704 27.77 26.6757 28.8973 26.6757 30.2824C26.6757 31.6675 25.5704 32.7948 24.2112 32.7948Z" fill="#0C0C0C"/>
<path d="M7.75048 37.9457H12.1089C12.7935 37.9457 13.3489 37.4199 13.3489 36.722C13.3489 36.0241 12.7939 35.4983 12.1089 35.4983H7.75048C5.91556 35.4983 4.43194 33.8382 4.43194 31.8962V13.8798H34.4405V18.4817C34.4405 19.1796 35.1563 19.7457 35.8409 19.7457C36.5255 19.7457 37.2413 19.18 37.2413 18.4817V8.12599C37.2413 4.83304 34.2056 2.05078 31.0099 2.05078H7.75048C4.54837 2.05078 2.03125 4.77594 2.03125 8.12599V31.8962C2.03125 35.2319 4.54837 37.9457 7.75048 37.9457ZM4.43194 8.12599C4.43194 6.20317 5.94677 4.49816 7.75048 4.49816H31.0099C32.8612 4.49816 34.4405 6.20317 34.4405 8.12599V11.4324H4.43194V8.12599Z" fill="#0C0C0C"/>
<path d="M30.2134 6.94531H29.7176C29.033 6.94531 28.4777 7.67504 28.4777 8.37295C28.4777 9.07086 29.0326 9.80059 29.7176 9.80059H30.2134C30.898 9.80059 31.4533 9.07086 31.4533 8.37295C31.4533 7.67504 30.898 6.94531 30.2134 6.94531ZM25.9982 6.94531H25.5024C24.8178 6.94531 24.2625 7.67504 24.2625 8.37295C24.2625 9.07086 24.8174 9.80059 25.5024 9.80059H25.9982C26.6828 9.80059 27.2381 9.07086 27.2381 8.37295C27.2381 7.67504 26.6828 6.94531 25.9982 6.94531ZM21.5349 6.94531H21.0392C20.3546 6.94531 19.7992 7.67504 19.7992 8.37295C19.7992 9.07086 20.3542 9.80059 21.0392 9.80059H21.5349C22.2195 9.80059 22.7748 9.07086 22.7748 8.37295C22.7748 7.67504 22.2195 6.94531 21.5349 6.94531ZM24.8398 19.6452C19.4031 19.6452 14.4381 23.1257 12.4375 28.3064C12.4375 28.3064 15.0402 38.0772 24.8398 37.8643C35.194 37.6395 37.2446 28.3064 37.2446 28.3064C35.244 23.1257 30.2782 19.6452 24.8398 19.6452ZM24.9283 35.3365C20.6735 35.3365 16.7875 32.7109 15.1111 28.7547C16.7871 24.7985 20.6735 22.1729 24.9283 22.1729C29.1843 22.1729 33.071 24.7985 34.7475 28.7547C33.0714 32.7109 29.1843 35.3365 24.9283 35.3365Z" fill="#0C0C0C"/>
<path d="M24.9203 23.8496C22.2676 23.8496 20.1094 26.0494 20.1094 28.7537C20.1094 31.4581 22.2676 33.6579 24.9203 33.6579C27.5731 33.6579 29.7309 31.4581 29.7309 28.7537C29.7309 26.0494 27.5731 23.8496 24.9203 23.8496ZM24.9203 31.1302C23.6348 31.1302 22.5889 30.0639 22.5889 28.7537C22.5889 27.4436 23.6348 26.3773 24.9203 26.3773C26.2059 26.3773 27.2514 27.4436 27.2514 28.7537C27.2514 30.0639 26.2059 31.1302 24.9203 31.1302Z" fill="#0C0C0C"/>
<path d="M5.71923 35.8949H10.0777C10.7623 35.8949 11.3176 35.3691 11.3176 34.6712C11.3176 33.9733 10.7627 33.4475 10.0777 33.4475H5.71923C3.88431 33.4475 2.40069 31.7874 2.40069 29.8454V11.829H32.4092V16.4309C32.4092 17.1288 33.1251 17.695 33.8096 17.695C34.4942 17.695 35.21 17.1292 35.21 16.4309V6.07521C35.21 2.78226 32.1744 0 28.9787 0H5.71923C2.51712 0 0 2.72516 0 6.07521V29.8454C0 33.1812 2.51712 35.8949 5.71923 35.8949ZM2.40069 6.07521C2.40069 4.15239 3.91552 2.44738 5.71923 2.44738H28.9787C30.83 2.44738 32.4092 4.15239 32.4092 6.07521V9.38162H2.40069V6.07521Z" fill="white"/>
<path d="M28.1821 4.89453H27.6864C27.0018 4.89453 26.4464 5.62426 26.4464 6.32217C26.4464 7.02008 27.0014 7.74981 27.6864 7.74981H28.1821C28.8667 7.74981 29.4221 7.02008 29.4221 6.32217C29.4221 5.62426 28.8667 4.89453 28.1821 4.89453ZM23.9669 4.89453H23.4712C22.7866 4.89453 22.2312 5.62426 22.2312 6.32217C22.2312 7.02008 22.7862 7.74981 23.4712 7.74981H23.9669C24.6515 7.74981 25.2069 7.02008 25.2069 6.32217C25.2069 5.62426 24.6515 4.89453 23.9669 4.89453ZM19.5036 4.89453H19.0079C18.3233 4.89453 17.768 5.62426 17.768 6.32217C17.768 7.02008 18.3229 7.74981 19.0079 7.74981H19.5036C20.1882 7.74981 20.7436 7.02008 20.7436 6.32217C20.7436 5.62426 20.1882 4.89453 19.5036 4.89453ZM22.8086 17.5944C17.3718 17.5944 12.4068 21.075 10.4062 26.2557C10.4062 26.2557 13.009 36.0264 22.8086 35.8135C33.1627 35.5887 35.2133 26.2557 35.2133 26.2557C33.2128 21.075 28.2469 17.5944 22.8086 17.5944ZM22.897 33.2858C18.6422 33.2858 14.7563 30.6601 13.0798 26.7039C14.7559 22.7478 18.6422 20.1221 22.897 20.1221C27.153 20.1221 31.0397 22.7478 32.7162 26.7039C31.0401 30.6601 27.153 33.2858 22.897 33.2858Z" fill="white"/>
<path d="M22.8891 21.7988C20.2363 21.7988 18.0781 23.9986 18.0781 26.703C18.0781 29.4073 20.2363 31.6071 22.8891 31.6071C25.5419 31.6071 27.6997 29.4073 27.6997 26.703C27.6997 23.9986 25.5419 21.7988 22.8891 21.7988ZM22.8891 29.0794C21.6035 29.0794 20.5576 28.0131 20.5576 26.703C20.5576 25.3928 21.6035 24.3266 22.8891 24.3266C24.1747 24.3266 25.2202 25.3928 25.2202 26.703C25.2202 28.0131 24.1747 29.0794 22.8891 29.0794Z" fill="white"/>
<path d="M250.547 7.01172H256.429C258.475 7.01172 259.966 7.50656 260.905 8.49624C261.843 9.46118 262.312 10.9581 262.312 12.9869V14.5828C262.312 17.2797 261.446 18.9869 259.714 19.7044V19.7786C260.676 20.0755 261.35 20.6817 261.735 21.5972C262.144 22.5126 262.348 23.7374 262.348 25.2714V29.8363C262.348 30.5785 262.372 31.1847 262.42 31.6548C262.468 32.1002 262.589 32.5455 262.781 32.9909H258.739C258.595 32.5703 258.499 32.1744 258.45 31.8033C258.402 31.4321 258.378 30.7641 258.378 29.7992V25.0487C258.378 23.8611 258.186 23.0322 257.801 22.5621C257.44 22.092 256.802 21.857 255.888 21.857H254.517V32.9909H250.547V7.01172ZM255.96 18.1457C256.754 18.1457 257.344 17.9353 257.729 17.5147C258.138 17.0941 258.342 16.389 258.342 15.3993V13.3952C258.342 12.455 258.174 11.7746 257.837 11.354C257.524 10.9333 257.019 10.723 256.321 10.723H254.517V18.1457H255.96Z" fill="black"/>
<path d="M237.445 7.01172H248.272V10.723H241.415V17.589H246.865V21.3003H241.415V29.2796H248.272V32.9909H237.445V7.01172Z" fill="black"/>
<path d="M218.023 7.01172H223.689L226.216 25.6054H226.288L228.814 7.01172H234.48V32.9909H230.727V13.3209H230.655L227.768 32.9909H224.447L221.56 13.3209H221.488V32.9909H218.023V7.01172Z" fill="black"/>
<path d="M209.324 33.3621C207.375 33.3621 205.883 32.793 204.849 31.6549C203.814 30.5167 203.297 28.9085 203.297 26.8302V13.1725C203.297 11.0942 203.814 9.48596 204.849 8.34783C205.883 7.20969 207.375 6.64062 209.324 6.64062C211.273 6.64062 212.764 7.20969 213.799 8.34783C214.833 9.48596 215.351 11.0942 215.351 13.1725V26.8302C215.351 28.9085 214.833 30.5167 213.799 31.6549C212.764 32.793 211.273 33.3621 209.324 33.3621ZM209.324 29.6508C210.695 29.6508 211.381 28.7972 211.381 27.0899V12.9127C211.381 11.2055 210.695 10.3519 209.324 10.3519C207.952 10.3519 207.267 11.2055 207.267 12.9127V27.0899C207.267 28.7972 207.952 29.6508 209.324 29.6508Z" fill="black"/>
<path d="M193.682 10.723H189.531V7.01172H201.802V10.723H197.651V32.9909H193.682V10.723Z" fill="black"/>
<path d="M182.3 33.3621C180.375 33.3621 178.919 32.8054 177.933 31.692C176.946 30.5538 176.453 28.9332 176.453 26.8302V25.3456H180.206V27.1271C180.206 28.8095 180.892 29.6508 182.264 29.6508C182.937 29.6508 183.442 29.4528 183.779 29.0569C184.14 28.6363 184.321 27.9683 184.321 27.0528C184.321 25.9642 184.08 25.0116 183.599 24.1951C183.118 23.3539 182.227 22.3518 180.928 21.189C179.292 19.7044 178.149 18.3684 177.5 17.1807C176.85 15.9684 176.525 14.6076 176.525 13.0983C176.525 11.0447 177.031 9.46122 178.041 8.34783C179.052 7.20969 180.519 6.64062 182.444 6.64062C184.345 6.64062 185.776 7.20969 186.739 8.34783C187.725 9.46122 188.218 11.0695 188.218 13.1725V14.2488H184.465V12.9127C184.465 12.022 184.297 11.3787 183.96 10.9829C183.623 10.5622 183.13 10.3519 182.48 10.3519C181.157 10.3519 180.495 11.1808 180.495 12.8385C180.495 13.7787 180.736 14.6571 181.217 15.4735C181.722 16.29 182.624 17.2797 183.924 18.4426C185.584 19.9271 186.727 21.2756 187.352 22.4879C187.978 23.7003 188.29 25.123 188.29 26.7559C188.29 28.8838 187.773 30.5167 186.739 31.6549C185.728 32.793 184.248 33.3621 182.3 33.3621Z" fill="black"/>
<path d="M168.395 33.362C166.47 33.362 165.003 32.8053 163.992 31.6919C162.982 30.5538 162.477 28.9332 162.477 26.8301V7.01172H166.446V27.127C166.446 28.0177 166.615 28.661 166.952 29.0569C167.313 29.4528 167.818 29.6507 168.467 29.6507C169.117 29.6507 169.61 29.4528 169.947 29.0569C170.308 28.661 170.488 28.0177 170.488 27.127V7.01172H174.314V26.8301C174.314 28.9332 173.809 30.5538 172.798 31.6919C171.788 32.8053 170.32 33.362 168.395 33.362Z" fill="black"/>
<path d="M154.401 33.3621C152.5 33.3621 151.045 32.8054 150.034 31.692C149.048 30.5786 148.555 29.0075 148.555 26.9786V13.0241C148.555 10.9952 149.048 9.42411 150.034 8.31072C151.045 7.19732 152.5 6.64062 154.401 6.64062C156.302 6.64062 157.745 7.19732 158.732 8.31072C159.742 9.42411 160.248 10.9952 160.248 13.0241V15.7705H156.494V12.7643C156.494 11.1561 155.833 10.3519 154.509 10.3519C153.186 10.3519 152.525 11.1561 152.525 12.7643V27.2755C152.525 28.859 153.186 29.6508 154.509 29.6508C155.833 29.6508 156.494 28.859 156.494 27.2755V23.3044H160.248V26.9786C160.248 29.0075 159.742 30.5786 158.732 31.692C157.745 32.8054 156.302 33.3621 154.401 33.3621Z" fill="black"/>
<path d="M134.768 33.3621C132.844 33.3621 131.388 32.8054 130.402 31.692C129.415 30.5538 128.922 28.9332 128.922 26.8302V25.3456H132.675V27.1271C132.675 28.8095 133.361 29.6508 134.732 29.6508C135.406 29.6508 135.911 29.4528 136.248 29.0569C136.609 28.6363 136.789 27.9683 136.789 27.0528C136.789 25.9642 136.549 25.0116 136.068 24.1951C135.586 23.3539 134.696 22.3518 133.397 21.189C131.761 19.7044 130.618 18.3684 129.968 17.1807C129.319 15.9684 128.994 14.6076 128.994 13.0983C128.994 11.0447 129.499 9.46122 130.51 8.34783C131.52 7.20969 132.988 6.64062 134.913 6.64062C136.813 6.64062 138.245 7.20969 139.207 8.34783C140.194 9.46122 140.687 11.0695 140.687 13.1725V14.2488H136.934V12.9127C136.934 12.022 136.765 11.3787 136.428 10.9829C136.092 10.5622 135.598 10.3519 134.949 10.3519C133.626 10.3519 132.964 11.1808 132.964 12.8385C132.964 13.7787 133.204 14.6571 133.686 15.4735C134.191 16.29 135.093 17.2797 136.392 18.4426C138.053 19.9271 139.195 21.2756 139.821 22.4879C140.446 23.7003 140.759 25.123 140.759 26.7559C140.759 28.8838 140.242 30.5167 139.207 31.6549C138.197 32.793 136.717 33.3621 134.768 33.3621Z" fill="black"/>
<path d="M118.302 7.01172H123.679L127.793 32.9909H123.823L123.102 27.8322V27.9064H118.59L117.869 32.9909H114.188L118.302 7.01172ZM122.632 24.3807L120.864 11.5395H120.792L119.06 24.3807H122.632Z" fill="black"/>
<path d="M88.4219 7.01172H92.2474L94.0157 26.9786H94.0879L95.9646 7.01172H100.295L102.172 26.9786H102.244L104.013 7.01172H107.441L104.879 32.9909H99.9344L98.13 15.4735H98.0578L96.2533 32.9909H90.9842L88.4219 7.01172Z" fill="black"/>
<path d="M76.2422 7.01172H87.069V10.723H80.212V17.589H85.6616V21.3003H80.212V29.2796H87.069V32.9909H76.2422V7.01172Z" fill="black"/>
<path d="M69.2969 7.01172H73.2667V32.9909H69.2969V7.01172Z" fill="black"/>
<path d="M54.4766 7.01172H58.4825L61.0809 27.1641H61.1531L63.7516 7.01172H67.3966L63.5711 32.9909H58.3021L54.4766 7.01172Z" fill="black"/>
<path fill-rule="evenodd" clip-rule="evenodd" d="M246.047 2.37109H256.441C259.068 2.37109 261.985 2.99249 264.125 5.23446C266.229 7.41246 266.834 10.3283 266.834 12.9854V14.5813C266.834 16.2682 266.588 18.0364 265.848 19.6654C265.854 19.6783 265.86 19.6913 265.865 19.7042C266.634 21.4492 266.871 23.3998 266.871 25.2699V29.8348C266.871 30.4353 266.889 30.8435 266.911 31.0968C266.912 31.0994 266.913 31.1022 266.915 31.1053L269.734 37.6285H246.047V32.9894H248.274V29.2781H246.047V21.2988H246.867V17.5875H246.047V10.7215H248.274V7.01023H246.047V2.37109ZM254.528 32.9894V21.8555H255.899C255.924 21.8555 255.948 21.8556 255.971 21.856C256.847 21.8681 257.461 22.103 257.812 22.5606C257.814 22.5632 257.816 22.5657 257.818 22.5683C257.952 22.7336 258.062 22.9426 258.149 23.1953C258.158 23.2236 258.168 23.2525 258.177 23.2819C258.258 23.542 258.315 23.8449 258.35 24.1907C258.35 24.1927 258.351 24.1946 258.351 24.1966C258.377 24.4561 258.389 24.7396 258.389 25.0472V29.7977C258.389 29.8101 258.39 29.8225 258.39 29.8348C258.39 30.7798 258.414 31.4354 258.462 31.8018C258.473 31.8925 258.488 31.9847 258.506 32.0783C258.507 32.086 258.508 32.0937 258.51 32.1014C258.564 32.384 258.644 32.68 258.75 32.9894H262.792C262.6 32.544 262.48 32.0987 262.432 31.6533C262.419 31.5319 262.408 31.4015 262.399 31.2619C262.373 30.8611 262.359 30.3854 262.359 29.8348V25.2699C262.359 25.1949 262.359 25.1207 262.358 25.0472C262.351 24.5263 262.319 24.0426 262.263 23.5959C262.166 22.816 261.993 22.1493 261.746 21.5957C261.584 21.2104 261.371 20.88 261.106 20.6043C260.976 20.4678 260.832 20.3447 260.676 20.2351C260.643 20.2119 260.61 20.1893 260.576 20.1673C260.5 20.1182 260.421 20.0722 260.339 20.0291C260.249 19.9814 260.155 19.9374 260.058 19.897C259.961 19.8569 259.861 19.8204 259.758 19.7875C259.747 19.784 259.736 19.7806 259.725 19.7771V19.7029C259.733 19.6995 259.741 19.6961 259.749 19.6926C259.775 19.6817 259.801 19.6705 259.827 19.6592C259.856 19.6459 259.886 19.6324 259.915 19.6185C260.239 19.4649 260.53 19.2741 260.788 19.0459C261.593 18.335 262.082 17.2622 262.253 15.8274C262.27 15.6876 262.284 15.5444 262.295 15.3978C262.314 15.1365 262.323 14.8644 262.323 14.5813V12.9854C262.323 11.132 261.932 9.72253 261.149 8.75698C261.117 8.71742 261.084 8.6786 261.05 8.64053C261.007 8.59066 260.962 8.54207 260.916 8.49476C259.977 7.50507 258.486 7.01023 256.441 7.01023H250.558V32.9894H254.528ZM254.528 18.1442H255.971C256.765 18.1442 257.355 17.9339 257.74 17.5132C257.765 17.4876 257.789 17.4609 257.812 17.4332C258.075 17.1218 258.242 16.6772 258.313 16.0996C258.34 15.8842 258.353 15.6502 258.353 15.3978V13.3937C258.353 13.2517 258.35 13.1156 258.342 12.9854C258.305 12.3635 258.181 11.8769 257.969 11.5256C257.959 11.5098 257.949 11.4943 257.939 11.479C257.91 11.4345 257.88 11.3923 257.848 11.3525C257.552 10.9539 257.083 10.7442 256.441 10.7233C256.405 10.7221 256.369 10.7215 256.332 10.7215H254.528V18.1442Z" fill="black"/>
<path fill-rule="evenodd" clip-rule="evenodd" d="M232.953 2.37109H252.802V7.01023H250.575V32.9894H252.802V37.6285H232.953V32.9894H234.502V7.01023H232.953V2.37109ZM246.884 21.2988V17.5875H241.434V10.7215H248.291V7.01023H237.464V32.9894H248.291V29.2781H241.434V21.2988H246.884Z" fill="black"/>
<path fill-rule="evenodd" clip-rule="evenodd" d="M213.547 2.37109H239.026V7.01023H237.477V32.9894H239.026V37.6285H213.547V31.9321C213.642 31.8433 213.733 31.7504 213.821 31.6533C214.856 30.5152 215.373 28.907 215.373 26.8286V13.171C215.373 11.0927 214.856 9.48444 213.821 8.3463C213.733 8.24926 213.642 8.15635 213.547 8.06757V2.37109ZM221.523 32.9894V13.3195H221.595L224.482 32.9894H227.802L230.689 13.3195H230.762V32.9894H234.515V7.01023H228.849L226.323 25.6039H226.25L223.724 7.01023H218.058V32.9894H221.523Z" fill="black"/>
<path fill-rule="evenodd" clip-rule="evenodd" d="M211.408 12.9113C211.408 12.123 211.262 11.5167 210.969 11.0924C210.628 10.5978 210.089 10.3505 209.351 10.3505C208.612 10.3505 208.073 10.5978 207.732 11.0924C207.44 11.5167 207.294 12.123 207.294 12.9113V27.0885C207.294 27.8768 207.44 28.483 207.732 28.9074C208.073 29.402 208.612 29.6493 209.351 29.6493C210.089 29.6493 210.628 29.402 210.969 28.9074C211.262 28.483 211.408 27.8768 211.408 27.0885V12.9113ZM209.351 37.9997C206.531 37.9997 203.696 37.1487 201.58 34.8214C199.533 32.5696 198.812 29.6816 198.812 26.8287V13.171C198.812 12.3522 198.872 11.5304 199.005 10.7216H201.831V7.01027H200.265C200.624 6.36579 201.059 5.75146 201.58 5.17835C203.696 2.85106 206.531 2 209.351 2C212.17 2 215.006 2.85106 217.121 5.17835C217.642 5.75146 218.077 6.36579 218.436 7.01027H218.062V32.9894H218.436C218.077 33.6339 217.642 34.2483 217.121 34.8214C215.006 37.1487 212.17 37.9997 209.351 37.9997ZM204.876 31.6534C205.91 32.7915 207.402 33.3606 209.351 33.3606C211.299 33.3606 212.791 32.7915 213.826 31.6534C214.817 30.5631 215.333 29.0415 215.375 27.0885C215.377 27.0027 215.378 26.9161 215.378 26.8287V13.171C215.378 13.0836 215.377 12.997 215.375 12.9113C215.333 10.9582 214.817 9.4366 213.826 8.34634C212.791 7.20821 211.299 6.63914 209.351 6.63914C207.402 6.63914 205.91 7.20821 204.876 8.34634C203.884 9.4366 203.368 10.9582 203.326 12.9113C203.325 12.997 203.324 13.0836 203.324 13.171V26.8287C203.324 26.9161 203.325 27.0027 203.326 27.0885C203.368 29.0415 203.884 30.5631 204.876 31.6534Z" fill="black"/>
<path fill-rule="evenodd" clip-rule="evenodd" d="M185.055 7.09255C185.741 7.37682 186.318 7.79474 186.784 8.3463C187.345 8.97851 187.746 9.77025 187.988 10.7215C188.172 11.4456 188.264 12.2621 188.264 13.171V14.2473H185.055V15.3607H189.205V37.6285H202.197V15.3607H203.329V13.171C203.329 12.2652 203.427 11.4487 203.623 10.7215C203.878 9.78016 204.297 8.98842 204.881 8.3463C205.296 7.8894 205.785 7.52421 206.348 7.25073V2.37109H185.055V7.09255ZM197.686 10.7215H201.836V7.01023H189.566V10.7215H193.716V32.9894H197.686V10.7215Z" fill="black"/>
<path fill-rule="evenodd" clip-rule="evenodd" d="M174.6 34.7962L174.584 34.7772C173.779 33.848 173.192 32.8155 172.781 31.7268C172.792 31.7148 172.804 31.7027 172.815 31.6905C173.825 30.5524 174.33 28.9317 174.33 26.8287V20.705H174.365C174.353 20.6884 174.342 20.6717 174.33 20.6551V7.01027H173.455C173.807 6.3735 174.234 5.76604 174.746 5.19912C176.837 2.85618 179.661 2 182.463 2C185.242 2 188.075 2.86053 190.13 5.26468C190.61 5.81283 191.011 6.39814 191.344 7.01027H189.539V10.7216H192.565C192.693 11.534 192.748 12.3565 192.748 13.171V18.8865H190.497C190.818 19.3524 191.106 19.8275 191.356 20.312C192.387 22.3102 192.821 24.5068 192.821 26.7544C192.821 29.6143 192.121 32.5345 190.07 34.8022C187.969 37.1555 185.124 37.9997 182.319 37.9997C179.545 37.9997 176.705 37.172 174.617 34.8149L174.6 34.7962ZM188.237 14.2473V13.171C188.237 13.0836 188.236 12.997 188.235 12.9113C188.209 11.6145 187.988 10.5135 187.572 9.60819C187.386 9.20305 187.161 8.83711 186.896 8.51036C186.872 8.48055 186.848 8.45106 186.823 8.4219C186.802 8.39647 186.78 8.37128 186.758 8.34634C185.801 7.21542 184.382 6.64638 182.499 6.63921C182.487 6.63916 182.475 6.63914 182.463 6.63914C180.538 6.63914 179.07 7.20821 178.06 8.34634C177.093 9.41232 176.588 10.9092 176.547 12.837C176.545 12.9228 176.544 13.0094 176.544 13.0968C176.544 14.6061 176.869 15.9669 177.519 17.1793C177.599 17.3256 177.686 17.4742 177.781 17.6251C177.797 17.6504 177.813 17.6757 177.83 17.7011C178.421 18.6197 179.286 19.621 180.427 20.705C180.595 20.864 180.768 21.0249 180.947 21.1875C181.078 21.3042 181.204 21.4193 181.326 21.5327C181.325 21.5323 181.326 21.5331 181.326 21.5327C182.42 22.5493 183.185 23.4371 183.618 24.1936C183.668 24.2796 183.716 24.367 183.762 24.4559C183.905 24.737 184.021 25.033 184.111 25.3441C184.186 25.6007 184.242 25.8674 184.28 26.1444C184.307 26.3425 184.325 26.5459 184.333 26.7544C184.338 26.8523 184.34 26.9512 184.34 27.0513C184.34 27.0763 184.339 27.101 184.339 27.1256C184.331 27.9073 184.187 28.5031 183.907 28.9132C183.898 28.9262 183.889 28.939 183.88 28.9516C183.854 28.9877 183.827 29.0224 183.798 29.0555C183.467 29.4442 182.974 29.6421 182.319 29.6491C182.307 29.6492 182.295 29.6493 182.282 29.6493C181.633 29.6493 181.138 29.4607 180.796 29.0837C180.786 29.0732 180.777 29.0627 180.768 29.052C180.406 28.6317 180.225 27.9895 180.225 27.1256V25.3441H176.472V26.8287C176.472 26.9287 176.473 27.0277 176.475 27.1256C176.5 28.2129 176.663 29.1655 176.963 29.9833C177.204 30.639 177.534 31.2081 177.952 31.6905C178.932 32.7969 180.376 33.3536 182.282 33.3605C182.294 33.3606 182.306 33.3606 182.319 33.3606C184.24 33.3606 185.705 32.8075 186.714 31.7014C186.718 31.6974 186.722 31.6934 186.725 31.6893C186.736 31.6774 186.747 31.6654 186.758 31.6534C187.743 30.5688 188.26 29.0348 188.306 27.0513C188.308 26.9535 188.309 26.8545 188.309 26.7544C188.309 25.1215 187.997 23.6988 187.371 22.4864C187.3 22.3478 187.221 22.2074 187.136 22.0653C187.127 22.0497 187.117 22.034 187.108 22.0184C186.524 21.0555 185.631 20.0116 184.429 18.8865C184.272 18.7394 184.11 18.5909 183.943 18.4411C183.819 18.3308 183.7 18.222 183.584 18.1148C183.577 18.1086 183.57 18.1024 183.563 18.0963C182.466 17.0813 181.69 16.2066 181.236 15.4721C181.177 15.3715 181.121 15.2699 181.069 15.1675C181.063 15.1567 181.058 15.1458 181.053 15.135C180.909 14.8465 180.794 14.5506 180.707 14.2473C180.697 14.2103 180.687 14.1731 180.677 14.1358C180.664 14.0858 180.652 14.0355 180.641 13.9851C180.629 13.9353 180.619 13.8853 180.609 13.8352C180.562 13.5936 180.532 13.3474 180.52 13.0968C180.517 13.0352 180.515 12.9734 180.515 12.9113C180.514 12.8866 180.514 12.8618 180.514 12.837C180.514 12.0854 180.65 11.5042 180.922 11.0934C180.93 11.0811 180.938 11.069 180.947 11.057C181.271 10.594 181.776 10.3586 182.463 10.3507C182.475 10.3505 182.487 10.3505 182.499 10.3505C183.103 10.3505 183.572 10.5324 183.906 10.8964C183.926 10.9181 183.945 10.9405 183.964 10.9636C183.969 10.9695 183.974 10.9754 183.979 10.9814C184.306 11.3662 184.474 11.9847 184.484 12.837C184.484 12.8616 184.484 12.8863 184.484 12.9113V14.2473H188.237Z" fill="black"/>
<path fill-rule="evenodd" clip-rule="evenodd" d="M160.697 34.8372L160.68 34.8185C159.827 33.8576 159.212 32.7831 158.787 31.6478C159.772 30.5371 160.265 28.9802 160.265 26.9771V23.3029H157.984V15.7689H160.265V13.0226C160.265 10.9937 159.76 9.42259 158.749 8.30919C158.519 8.04956 158.264 7.82021 157.984 7.62112V2.37109H178.844V7.64288C178.559 7.84641 178.298 8.08088 178.063 8.34631C177.052 9.4597 176.547 11.0432 176.547 13.0968C176.547 14.6061 176.872 15.9669 177.521 17.1792C177.842 17.7656 178.283 18.3881 178.844 19.0469V25.3441H176.475V26.8286C176.475 28.9317 176.968 30.5523 177.954 31.6905C177.971 31.709 177.987 31.7274 178.004 31.7457C177.581 32.8449 176.977 33.8853 176.149 34.8185L176.132 34.8372L176.115 34.8558C174.015 37.1699 171.195 37.9997 168.414 37.9997C165.634 37.9997 162.814 37.1699 160.713 34.8558L160.697 34.8372ZM170.507 7.01023V27.1255C170.507 27.9759 170.343 28.6007 170.014 29C170.005 29.0111 169.996 29.0219 169.986 29.0326C169.98 29.0403 169.973 29.0479 169.966 29.0554C169.629 29.4513 169.136 29.6492 168.486 29.6492C168.462 29.6492 168.438 29.649 168.414 29.6484C167.799 29.6342 167.318 29.4365 166.971 29.0554C166.948 29.029 166.927 29.0015 166.906 28.973C166.897 28.9612 166.888 28.9492 166.88 28.9371C166.604 28.5363 166.465 27.9324 166.465 27.1255V7.01023H162.496V26.8286C162.496 26.9287 162.497 27.0277 162.499 27.1255C162.545 29.0848 163.049 30.6065 164.011 31.6905C164.016 31.6956 164.021 31.7007 164.025 31.7057C164.056 31.7393 164.087 31.7724 164.119 31.8049C165.125 32.842 166.557 33.3605 168.414 33.3605C168.438 33.3605 168.462 33.3605 168.486 33.3603C170.341 33.3468 171.766 32.8102 172.762 31.7506C172.78 31.7307 172.799 31.7107 172.817 31.6905C172.829 31.6776 172.84 31.6646 172.851 31.6516C173.792 30.5702 174.284 29.0615 174.329 27.1255C174.332 27.0277 174.333 26.9287 174.333 26.8286V7.01023H170.507Z" fill="black"/>
<path fill-rule="evenodd" clip-rule="evenodd" d="M146.737 34.8355L146.719 34.8149C144.745 32.5876 144.062 29.7547 144.062 26.9771V13.0226C144.062 10.245 144.745 7.41214 146.719 5.18482L146.737 5.16423L146.755 5.14386C148.845 2.84134 151.644 2 154.42 2C157.182 2 159.991 2.83448 162.067 5.16395C162.588 5.74156 163.022 6.36087 163.378 7.01027H162.497V26.8287C162.497 26.8784 162.498 26.9279 162.498 26.9771C162.521 28.9902 163.018 30.5515 163.987 31.6609C163.558 32.799 162.934 33.875 162.067 34.8358C159.991 37.1652 157.182 37.9997 154.42 37.9997C151.644 37.9997 148.845 37.1584 146.755 34.8559L146.737 34.8355ZM160.267 15.769V13.0226C160.267 12.9351 160.266 12.8485 160.264 12.7628C160.251 12.1791 160.195 11.6347 160.095 11.1298C159.869 9.98814 159.421 9.04794 158.751 8.30923C157.783 7.21707 156.376 6.66058 154.528 6.63975C154.493 6.63934 154.456 6.63914 154.42 6.63914C152.519 6.63914 151.064 7.19584 150.053 8.30923C149.109 9.37463 148.617 10.8592 148.576 12.7628C148.575 12.8485 148.574 12.9351 148.574 13.0226V26.9771C148.574 27.0772 148.575 27.1762 148.577 27.274C148.624 29.1599 149.116 30.632 150.053 31.6905C151.064 32.8039 152.519 33.3606 154.42 33.3606C154.456 33.3606 154.493 33.3604 154.528 33.36C156.376 33.3391 157.783 32.7826 158.751 31.6905C159.595 30.7604 160.087 29.5109 160.226 27.9421C160.245 27.7255 160.257 27.5028 160.263 27.274C160.265 27.1762 160.267 27.0772 160.267 26.9771V23.3029H156.513V27.274C156.513 28.0699 156.346 28.6658 156.012 29.0616C156.002 29.0733 155.992 29.0848 155.982 29.0961C155.652 29.4649 155.167 29.6493 154.528 29.6493C154.492 29.6493 154.456 29.6487 154.42 29.6474C153.763 29.6251 153.279 29.3962 152.967 28.9609C152.957 28.9478 152.948 28.9345 152.939 28.921C152.675 28.5297 152.544 27.9807 152.544 27.274V12.7628C152.544 12.0409 152.677 11.481 152.943 11.0832C152.953 11.0696 152.962 11.0563 152.971 11.0431C153.283 10.6052 153.766 10.3749 154.42 10.3523C154.456 10.3511 154.492 10.3505 154.528 10.3505C155.164 10.3505 155.647 10.5361 155.978 10.9075C155.988 10.9189 155.998 10.9305 156.008 10.9422C156.345 11.3442 156.513 11.9511 156.513 12.7628V15.769H160.267Z" fill="black"/>
<path fill-rule="evenodd" clip-rule="evenodd" d="M127.062 34.7962L127.045 34.7772C126.559 34.2156 126.152 33.6162 125.815 32.9894H127.799L125.853 20.705H126.826C126.54 20.2933 126.279 19.8761 126.048 19.4537L126.038 19.4359L126.029 19.4181C125.815 19.0184 125.624 18.6109 125.456 18.1968L124.516 12.2582C124.646 9.72917 125.392 7.20934 127.207 5.19912C129.298 2.85618 132.122 2 134.924 2C137.704 2 140.536 2.86053 142.591 5.26468C144.56 7.51367 145.21 10.3887 145.21 13.171V18.8865H142.958C143.279 19.3524 143.567 19.8275 143.817 20.312C144.848 22.3102 145.282 24.5068 145.282 26.7544C145.282 29.6143 144.582 32.5345 142.532 34.8022C140.43 37.1555 137.585 37.9997 134.78 37.9997C132.006 37.9997 129.167 37.172 127.078 34.8149L127.062 34.7962ZM140.698 14.2473V13.171C140.698 13.0836 140.698 12.997 140.696 12.9113C140.67 11.6145 140.449 10.5135 140.033 9.60819C139.847 9.20305 139.622 8.83711 139.358 8.51036C139.334 8.48055 139.309 8.45106 139.284 8.4219C139.263 8.39647 139.241 8.37128 139.219 8.34634C138.263 7.21542 136.843 6.64638 134.96 6.63921C134.948 6.63916 134.936 6.63914 134.924 6.63914C132.999 6.63914 131.532 7.20821 130.521 8.34634C129.554 9.41232 129.049 10.9092 129.008 12.837C129.006 12.9228 129.005 13.0094 129.005 13.0968C129.005 14.6061 129.33 15.9669 129.98 17.1793C130.06 17.3256 130.148 17.4742 130.243 17.6251C130.258 17.6504 130.275 17.6757 130.291 17.7011C130.882 18.6197 131.748 19.621 132.889 20.705C133.056 20.864 133.229 21.0249 133.408 21.1875C133.539 21.3042 133.665 21.4193 133.787 21.5327C133.787 21.5323 133.788 21.5331 133.787 21.5327C134.881 22.5493 135.646 23.4371 136.079 24.1936C136.13 24.2796 136.178 24.367 136.223 24.4559C136.366 24.737 136.483 25.033 136.573 25.3441C136.647 25.6007 136.703 25.8674 136.741 26.1444C136.768 26.3425 136.786 26.5459 136.795 26.7544C136.799 26.8523 136.801 26.9512 136.801 27.0513C136.801 27.0763 136.801 27.101 136.8 27.1256C136.792 27.9073 136.648 28.5031 136.368 28.9132C136.359 28.9262 136.35 28.939 136.341 28.9516C136.315 28.9877 136.288 29.0224 136.259 29.0555C135.929 29.4442 135.435 29.6421 134.78 29.6491C134.768 29.6492 134.756 29.6493 134.744 29.6493C134.094 29.6493 133.599 29.4607 133.257 29.0837C133.248 29.0732 133.238 29.0627 133.229 29.052C132.867 28.6317 132.687 27.9895 132.687 27.1256V25.3441H128.933V26.8287C128.933 26.9287 128.934 27.0277 128.937 27.1256C128.961 28.2129 129.124 29.1655 129.424 29.9833C129.665 30.639 129.995 31.2081 130.413 31.6905C131.393 32.7969 132.837 33.3536 134.744 33.3605C134.756 33.3606 134.768 33.3606 134.78 33.3606C136.701 33.3606 138.166 32.8075 139.176 31.7014C139.179 31.6974 139.183 31.6934 139.187 31.6893C139.197 31.6774 139.208 31.6654 139.219 31.6534C140.205 30.5688 140.721 29.0348 140.767 27.0513C140.77 26.9535 140.771 26.8545 140.771 26.7544C140.771 25.1215 140.458 23.6988 139.832 22.4864C139.761 22.3478 139.683 22.2074 139.597 22.0653C139.588 22.0497 139.579 22.034 139.569 22.0184C138.985 21.0555 138.092 20.0116 136.891 18.8865C136.734 18.7394 136.571 18.5909 136.404 18.4411C136.281 18.3308 136.161 18.222 136.045 18.1148C136.038 18.1086 136.031 18.1024 136.025 18.0963C134.928 17.0813 134.152 16.2066 133.697 15.4721C133.638 15.3715 133.582 15.2699 133.53 15.1675C133.525 15.1567 133.519 15.1458 133.514 15.135C133.37 14.8465 133.255 14.5506 133.169 14.2473C133.158 14.2103 133.148 14.1731 133.138 14.1358C133.125 14.0858 133.113 14.0355 133.102 13.9851C133.09 13.9353 133.08 13.8853 133.07 13.8352C133.023 13.5936 132.994 13.3474 132.982 13.0968C132.979 13.0352 132.977 12.9734 132.976 12.9113C132.975 12.8866 132.975 12.8618 132.975 12.837C132.975 12.0854 133.111 11.5042 133.383 11.0934C133.391 11.0811 133.4 11.069 133.408 11.057C133.732 10.594 134.237 10.3586 134.924 10.3507C134.936 10.3505 134.948 10.3505 134.96 10.3505C135.565 10.3505 136.033 10.5324 136.367 10.8964C136.387 10.9181 136.407 10.9405 136.425 10.9636C136.43 10.9695 136.435 10.9754 136.44 10.9814C136.767 11.3662 136.936 11.9847 136.945 12.837C136.945 12.8616 136.945 12.8863 136.945 12.9113V14.2473H140.698Z" fill="black"/>
<path fill-rule="evenodd" clip-rule="evenodd" d="M114.49 2.37109H127.539L129.072 12.049C129.04 12.3835 129.024 12.7327 129.024 13.0968C129.024 14.4712 129.293 15.7225 129.832 16.8507L131.177 25.3441H128.952V26.8286C128.952 28.9317 129.445 30.5523 130.432 31.6904C130.676 31.9659 130.948 32.2073 131.25 32.4146C131.592 32.65 131.971 32.8414 132.388 32.989L133.123 37.6285H108.906L114.49 2.37109ZM123.847 32.9894H127.817L123.703 7.01023H118.326L114.212 32.9894H117.893L118.614 27.9049H123.126V27.8307L123.847 32.9894ZM120.888 11.538H120.816L119.084 24.3792H122.656L120.888 11.538Z" fill="black"/>
<path fill-rule="evenodd" clip-rule="evenodd" d="M83.4531 2.37109H112.456L108.979 37.6285H86.9306L86.473 32.9894H87.0996V29.2781H86.107L85.32 21.2988H85.6921V17.5875H84.9539L84.2767 10.7215H87.0996V7.01023H83.9107L83.4531 2.37109ZM96.2765 32.9894L98.0809 15.472H98.1531L99.9576 32.9894H104.902L107.464 7.01023H104.036L102.267 26.9771H102.195L100.318 7.01023H95.9877L94.1111 26.9771H94.0389L92.2705 7.01023H88.445L91.0074 32.9894H96.2765Z" fill="black"/>
<path fill-rule="evenodd" clip-rule="evenodd" d="M71.7422 2.37109H91.5914V7.01023H88.4257L90.9881 32.9894H91.5914V37.6285H71.7422V32.9894H73.2802V7.01023H71.7422V2.37109ZM85.6727 21.2988V17.5875H80.2232V10.7215H87.0802V7.01023H76.2534V32.9894H87.0802V29.2781H80.2232V21.2988H85.6727Z" fill="black"/>
<path fill-rule="evenodd" clip-rule="evenodd" d="M64.7969 2.37109H77.7891V7.01023H76.2511V32.9894H77.7891V37.6285H64.7969V24.6967L67.4012 7.01023H64.7969V2.37109ZM69.3081 7.01023H73.2779V32.9894H69.3081V7.01023Z" fill="black"/>
<path fill-rule="evenodd" clip-rule="evenodd" d="M49.2422 2.37109H72.6537L71.9706 7.01023H69.3148V25.0459L67.462 37.6285H54.4339L49.2422 2.37109ZM58.3134 32.9894H63.5825L67.408 7.01023H63.7629L61.1645 27.1626H61.0923L58.4939 7.01023H54.4879L58.3134 32.9894Z" fill="black"/>
<path d="M248.297 4.68945H254.179C256.225 4.68945 257.716 5.18429 258.655 6.17398C259.593 7.13892 260.062 8.63581 260.062 10.6647V12.2605C260.062 14.9574 259.196 16.6646 257.464 17.3821V17.4564C258.426 17.7533 259.1 18.3595 259.485 19.2749C259.894 20.1904 260.098 21.4151 260.098 22.9491V27.514C260.098 28.2563 260.122 28.8625 260.17 29.3326C260.218 29.7779 260.339 30.2233 260.531 30.6686H256.489C256.345 30.248 256.249 29.8521 256.2 29.481C256.152 29.1099 256.128 28.4418 256.128 27.4769V22.7264C256.128 21.5388 255.936 20.7099 255.551 20.2398C255.19 19.7697 254.552 19.5347 253.638 19.5347H252.267V30.6686H248.297V4.68945ZM253.71 15.8234C254.504 15.8234 255.094 15.6131 255.479 15.1925C255.888 14.7718 256.092 14.0667 256.092 13.077V11.0729C256.092 10.1327 255.924 9.4523 255.587 9.03169C255.274 8.61107 254.769 8.40076 254.071 8.40076H252.267V15.8234H253.71Z" fill="white"/>
<path d="M235.195 4.68945H246.022V8.40076H239.165V15.2667H244.615V18.978H239.165V26.9573H246.022V30.6686H235.195V4.68945Z" fill="white"/>
<path d="M215.773 4.68945H221.439L223.966 23.2831H224.038L226.564 4.68945H232.23V30.6686H228.477V10.9987H228.405L225.518 30.6686H222.197L219.31 10.9987H219.238V30.6686H215.773V4.68945Z" fill="white"/>
<path d="M207.074 31.0398C205.125 31.0398 203.633 30.4707 202.599 29.3326C201.564 28.1945 201.047 26.5862 201.047 24.5079V10.8503C201.047 8.77193 201.564 7.1637 202.599 6.02556C203.633 4.88743 205.125 4.31836 207.074 4.31836C209.023 4.31836 210.514 4.88743 211.549 6.02556C212.583 7.1637 213.101 8.77193 213.101 10.8503V24.5079C213.101 26.5862 212.583 28.1945 211.549 29.3326C210.514 30.4707 209.023 31.0398 207.074 31.0398ZM207.074 27.3285C208.445 27.3285 209.131 26.4749 209.131 24.7677V10.5905C209.131 8.88327 208.445 8.02967 207.074 8.02967C205.702 8.02967 205.017 8.88327 205.017 10.5905V24.7677C205.017 26.4749 205.702 27.3285 207.074 27.3285Z" fill="white"/>
<path d="M191.432 8.40076H187.281V4.68945H199.552V8.40076H195.401V30.6686H191.432V8.40076Z" fill="white"/>
<path d="M180.05 31.0398C178.125 31.0398 176.669 30.4831 175.683 29.3697C174.696 28.2316 174.203 26.611 174.203 24.5079V23.0234H177.956V24.8048C177.956 26.4873 178.642 27.3285 180.014 27.3285C180.687 27.3285 181.192 27.1306 181.529 26.7347C181.89 26.3141 182.071 25.646 182.071 24.7306C182.071 23.6419 181.83 22.6894 181.349 21.8729C180.868 21.0316 179.977 20.0296 178.678 18.8667C177.042 17.3822 175.899 16.0461 175.25 14.8585C174.6 13.6461 174.275 12.2853 174.275 10.776C174.275 8.72245 174.781 7.13896 175.791 6.02556C176.802 4.88743 178.269 4.31836 180.194 4.31836C182.095 4.31836 183.526 4.88743 184.489 6.02556C185.475 7.13896 185.968 8.74719 185.968 10.8503V11.9265H182.215V10.5905C182.215 9.69976 182.047 9.05647 181.71 8.66059C181.373 8.23998 180.88 8.02967 180.23 8.02967C178.907 8.02967 178.245 8.85853 178.245 10.5162C178.245 11.4564 178.486 12.3348 178.967 13.1513C179.472 13.9678 180.374 14.9575 181.674 16.1203C183.334 17.6049 184.477 18.9533 185.102 20.1657C185.728 21.378 186.04 22.8007 186.04 24.4337C186.04 26.5615 185.523 28.1945 184.489 29.3326C183.478 30.4707 181.998 31.0398 180.05 31.0398Z" fill="white"/>
<path d="M166.145 31.0398C164.22 31.0398 162.753 30.4831 161.742 29.3697C160.732 28.2315 160.227 26.6109 160.227 24.5079V4.68945H164.196V24.8048C164.196 25.6955 164.365 26.3388 164.702 26.7346C165.063 27.1305 165.568 27.3285 166.217 27.3285C166.867 27.3285 167.36 27.1305 167.697 26.7346C168.058 26.3388 168.238 25.6955 168.238 24.8048V4.68945H172.064V24.5079C172.064 26.6109 171.559 28.2315 170.548 29.3697C169.538 30.4831 168.07 31.0398 166.145 31.0398Z" fill="white"/>
<path d="M152.151 31.0398C150.25 31.0398 148.795 30.4831 147.784 29.3697C146.798 28.2563 146.305 26.6852 146.305 24.6563V10.7018C146.305 8.67297 146.798 7.10184 147.784 5.98845C148.795 4.87506 150.25 4.31836 152.151 4.31836C154.052 4.31836 155.495 4.87506 156.482 5.98845C157.492 7.10184 157.998 8.67297 157.998 10.7018V13.4482H154.244V10.442C154.244 8.83379 153.583 8.02967 152.259 8.02967C150.936 8.02967 150.275 8.83379 150.275 10.442V24.9532C150.275 26.5367 150.936 27.3285 152.259 27.3285C153.583 27.3285 154.244 26.5367 154.244 24.9532V20.9821H157.998V24.6563C157.998 26.6852 157.492 28.2563 156.482 29.3697C155.495 30.4831 154.052 31.0398 152.151 31.0398Z" fill="white"/>
<path d="M132.518 31.0398C130.594 31.0398 129.138 30.4831 128.152 29.3697C127.165 28.2316 126.672 26.611 126.672 24.5079V23.0234H130.425V24.8048C130.425 26.4873 131.111 27.3285 132.482 27.3285C133.156 27.3285 133.661 27.1306 133.998 26.7347C134.359 26.3141 134.539 25.646 134.539 24.7306C134.539 23.6419 134.299 22.6894 133.818 21.8729C133.336 21.0316 132.446 20.0296 131.147 18.8667C129.511 17.3822 128.368 16.0461 127.718 14.8585C127.069 13.6461 126.744 12.2853 126.744 10.776C126.744 8.72245 127.249 7.13896 128.26 6.02556C129.27 4.88743 130.738 4.31836 132.663 4.31836C134.563 4.31836 135.995 4.88743 136.957 6.02556C137.944 7.13896 138.437 8.74719 138.437 10.8503V11.9265H134.684V10.5905C134.684 9.69976 134.515 9.05647 134.178 8.66059C133.842 8.23998 133.348 8.02967 132.699 8.02967C131.376 8.02967 130.714 8.85853 130.714 10.5162C130.714 11.4564 130.954 12.3348 131.436 13.1513C131.941 13.9678 132.843 14.9575 134.142 16.1203C135.803 17.6049 136.945 18.9533 137.571 20.1657C138.196 21.378 138.509 22.8007 138.509 24.4337C138.509 26.5615 137.992 28.1945 136.957 29.3326C135.947 30.4707 134.467 31.0398 132.518 31.0398Z" fill="white"/>
<path d="M116.052 4.68945H121.429L125.543 30.6686H121.573L120.852 25.5099V25.5841H116.34L115.619 30.6686H111.938L116.052 4.68945ZM120.382 22.0584L118.614 9.21725H118.542L116.81 22.0584H120.382Z" fill="white"/>
<path d="M86.1719 4.68945H89.9974L91.7657 24.6563H91.8379L93.7146 4.68945H98.0453L99.922 24.6563H99.9942L101.763 4.68945H105.191L102.629 30.6686H97.6844L95.88 13.1512H95.8078L94.0033 30.6686H88.7342L86.1719 4.68945Z" fill="white"/>
<path d="M73.9922 4.68945H84.819V8.40076H77.962V15.2667H83.4116V18.978H77.962V26.9573H84.819V30.6686H73.9922V4.68945Z" fill="white"/>
<path d="M67.0469 4.68945H71.0167V30.6686H67.0469V4.68945Z" fill="white"/>
<path d="M52.2266 4.68945H56.2325L58.8309 24.8419H58.9031L61.5016 4.68945H65.1466L61.3211 30.6686H56.0521L52.2266 4.68945Z" fill="white"/>
</svg>
