<?xml version="1.0" encoding="UTF-8"?>
<svg fill="none" viewBox="0 0 100 99" xmlns="http://www.w3.org/2000/svg">
<path d="m70.075 54.314c-0.7524 1.4653-1.8063 2.7546-3.0917 3.7835-2.0174 1.5839-4.7593 1.3036-5.7348-1.2699-0.5369-1.4671-0.6995-3.0452-0.4737-4.5909 0.9145 1.8106 2.5304 3.0435 5.1859 2.9928 1.419-0.0228 2.8193-0.3344 4.1143-0.9155z" fill="#0167FF"/>
<path d="m66.227 62.31c0.066 0.7742-1.365 0.7776-1.6164 1.4733-0.1916 0.5281 0.2747 2.1444-0.3867 2.3928-0.5648 0.2131-1.0841-0.9742-1.5249-1.1696-0.6563-0.2917-1.9405 0.8363-2.3518 0.3749-0.4487-0.5042 0.2111-1.6403 0.1041-2.2607-0.0756-0.437-1.9042-3.1552 1.4788-2.177 0.1706 0.0496 1.0755-1.8801 1.7739-1.361 0.4818 0.3583 0.1456 1.7946 0.744 1.8231 0.6279 0.0308 1.7079 0.0672 1.779 0.9042z" fill="#1C3B67"/>
<path d="m60.901 36.693c-0.3731 0.2518-0.7963 0.4197-1.2405 0.4923-0.4436 0.0726-0.898 0.0481-1.332-0.0718-1.2075-0.4353-1.9366-1.8522-2.647-2.8555-0.3532-0.4996-1.4918-0.5999-1.6789-1.8527l-0.0785-0.208c-0.1581 0.061-0.3191 0.1139-0.4823 0.1584-0.2287 0.0762-0.4721 0.0981-0.711 0.0642-0.2383-0.034-0.4658-0.1231-0.6643-0.2602-0.6859-0.5743-0.095-1.7992-0.9765-2.3103-1.0238-0.5919-3.1032-0.2028-3.5832-1.573-0.4851-1.3895 1.7427-3.1511 1.853-4.629 0.1502-2.0077-1.6761-2.9478-1.5749-6.377 0.0228-1.3816 0.3077-2.7463 0.8395-4.0211l0.0085-0.3077c4.4238 0 9.6057 7.2037 15.795 6.2271l0.3032-0.0376c-0.1655-0.4425-0.2418-0.9133-0.2247-1.3855s0.1274-0.9363 0.3242-1.3657c1.096-2.0863 3.6252-1.3018 4.4755 0.5128 0.2855 0.5393 0.438 1.1394 0.4448 1.7499 0.0062 0.6105-0.1331 1.2137-0.4072 1.759-0.5119 0.8546-1.2979 1.4648-1.658 2.4231-0.6341 1.6847-0.1569 3.767 0.4983 5.3737 0.2423 0.6746 0.6347 1.2852 1.1471 1.7855 1.2433 1.103 2.3228 0.0456 3.4694-0.5783l0.0376 0.0661c-1.5499 2.544-3.4199 4.8776-5.5641 6.9433-0.6888 0.7303-1.5852 1.2303-2.568 1.4317l-0.029-0.1743c-0.5869-0.8222-1.2416-1.5937-1.9571-2.3063-0.5647 0.4967-1.1739 0.9408-1.8188 1.3269z" fill="#fff"/>
<path d="m78.528 35.736c-1.1841-0.3805-1.2911-2.3051-1.6579-3.3614-0.2662-0.7537-0.914-2.3267-1.7063-2.9848l0.0524-0.1498c-0.3942-0.152-0.8139-0.2268-1.2365-0.2205-0.4163 0.0387-0.8184 0.1711-1.1762 0.3874-0.7621 1.3224-1.6215 2.5858-2.5719 3.7796-0.8878 1.1618-1.8763 2.2426-2.9547 3.2298-0.6882 0.731-1.5851 1.2311-2.5679 1.4317l-0.029-0.1743c-0.587-0.822-1.2416-1.5935-1.9571-2.3063-0.5619 0.5009-1.1716 0.9457-1.82 1.3281-0.5648 0.7112-0.8821 1.5883-0.902 2.4971 0.0426 0.7589 0.1956 1.5075 0.455 2.2219-0.4562 1.8896-0.6945 3.8252-0.711 5.7689-0.0586 1.744 0.2963 3.4771 1.0346 5.0575 0.8781 1.8288 2.5309 3.0594 5.1859 2.9928 1.4196-0.0182 2.8204-0.3299 4.1144-0.9156 6.2409-2.8891 7.7202-11.913 10.654-17.446l0.1615-0.0786c-0.7126-1.1411-1.5674-0.7856-2.3677-1.058z" fill="#E6F0FF"/>
<path d="m69.306 16.893c-0.8532-1.8135-3.3796-2.598-4.4756-0.5128-0.1968 0.4294-0.3071 0.8935-0.3241 1.3657-0.0171 0.4721 0.0591 0.943 0.2246 1.3855l-0.3031 0.0376c-6.1687 0.9731-11.404-6.2271-15.795-6.2271l-0.0085 0.3076c-0.5318 1.2749-0.8168 2.6396-0.8395 4.0212-0.1013 3.4252 1.7256 4.3618 1.5749 6.377-0.1104 1.4778-2.3382 3.2394-1.853 4.629 0.4788 1.3702 2.5594 0.9811 3.5831 1.573 0.8816 0.5128 0.2906 1.736 0.9766 2.3103 0.1985 0.1371 0.426 0.2261 0.6648 0.2601 0.2383 0.034 0.4818 0.0121 0.7104-0.0641 0.1632-0.045 0.3242-0.0975 0.4823-0.1584l0.0785 0.2079c0.1871 1.2534 1.3258 1.3531 1.679 1.8528 0.7103 1.0033 1.4418 2.4139 2.6469 2.8555l-0.0329 0.0911c-0.1292 1.0535-1.2638 0.6837-1.6375 0.9116-0.7394 0.4444-1.0886 1.3052-2.1044 1.1964-0.8975-0.0974-1.5544-1.1827-2.4143-1.1696-0.5153 8e-3 -0.9573 0.4592-1.4049 0.662-0.4897 0.2229-1.0453 0.25-1.5544 0.0759-0.509-0.1741-0.9322-0.5362-1.1835-1.0125-0.566-1.066-0.1627-2.3057-0.1081-3.4383 0.1342-2.8077-1.7791-4.1591-3.6696-7.247-1.4229-2.3097-2.292-4.9185-2.5389-7.6213-0.2051-2.1803 0.3598-4.3636 1.5965-6.1695 0.6739-0.9686 1.6283-1.6825 2.3102-2.6516 2.8438-4.045 5.0819-8.5299 10.193-10.053 7.7743-2.3154 17.773 1.3901 21.891 8.4753 1.4879 2.5598 1.526 5.4568 2.4059 8.2126 0.8946 2.8002 3.9875 5.5697 2.8716 7.9961-0.1831 0.3926-0.4709 0.7271-0.8321 0.9665-0.3606 0.2394-0.7803 0.3746-1.2126 0.3906-0.3901 0.0371-0.9259-0.0911-1.2711 0.1499-0.3236 0.225-0.3584 0.8073-0.4863 1.1485-0.2304 0.6063-0.678 1.105-1.2553 1.3987-1.9263 0.9914-2.9188-1.2671-5.0903-0.0205-1.1324 0.6501-2.2261 1.6813-3.4694 0.5783-0.5125-0.5004-0.9049-1.111-1.1472-1.7855-0.6552-1.6067-1.1324-3.689-0.4982-5.3737 0.36-0.9583 1.1489-1.5679 1.6579-2.4231 0.2741-0.5454 0.4135-1.1486 0.4072-1.7591-0.0068-0.6104-0.1592-1.2105-0.4447-1.7498z" fill="#1C3B67"/>
<path d="m63.703 59.583c-0.6985-0.5196-1.6039 1.4107-1.774 1.3611-3.3835-0.9782-1.555 1.74-1.4787 2.1769 0.1069 0.6205-0.5529 1.7565-0.1041 2.2607 0.4112 0.4615 1.6954-0.6666 2.3518-0.3749 0.4408 0.1955 0.96 1.3828 1.5248 1.1697 0.6615-0.249 0.1951-1.8653 0.3868-2.3929 0.2525-0.6956 1.6823-0.699 1.6164-1.4733-0.0711-0.8369-1.1512-0.8734-1.7785-0.9036-0.5989-0.0273-0.2628-1.4636-0.7445-1.8237zm12.355 19.086c-5.6267-0.2136-8.0336 2.4157-17.477 0.9532-2.8262-0.4381-6.8876-2.2687-8.1366 1.4648l-0.2577-0.0958c-0.5483-1.806-0.8105-4.3703-1.4583-6.1479-0.9668-2.6555-2.7396-4.7663-2.4103-7.7671 0.5625-5.1202 4.4072-9.2262 6.304-13.862 0.7508-1.8539 1.3412-3.7688 1.766-5.7235 0.4078-1.8459 0.645-4.1197 2.3188-5.2113 0.6723-0.44 1.4572-0.6773 2.2602-0.6836 0.0706 0 1.4299 0.0746 1.4299 0.1037-0.4215 1.7987-0.6416 3.6389-0.6569 5.4864-0.0353 1.7422 0.3185 3.4696 1.0345 5.0575-0.2257 1.5462-0.0631 3.1238 0.4738 4.5908 0.9754 2.5735 3.7174 2.8538 5.7348 1.27 1.2854-1.0284 2.3393-2.3183 3.0917-3.7836 6.241-2.8891 7.7203-11.914 10.654-17.446l0.1615-0.0786c0.2389 0.4723 0.5551 0.9013 0.935 1.2693 1.075 0.7173 2.2768 1.2231 3.5405 1.4904l-0.083 0.3162c-0.0415 0.4558-0.6689 1.1532-0.881 1.5383-0.6825 1.2494-1.3081 2.5353-1.9116 3.8297-2.2801 4.8956-4.2941 10.352-3.6969 15.846 0.1411 1.299 0.2036 3.1848 0.91 4.3544l0.3157 0.0621c-0.3356 2.1667-0.5574 4.3494-0.6649 6.5394-0.3014 5.4375-0.8247 5.7155-0.7354 5.7155l0.1996 0.5281c-0.075 0.0376-0.6899 0.4456-0.6694 0.4496l-0.033 0.1749c-0.6785-0.1345-1.3667-0.216-2.0583-0.2422z" fill="#fff"/>
<path d="m50.121 81.549c-0.7019-0.3208-1.7205-0.96-2.4019-1.3241-1.7504-0.9201-3.3947-2.0294-4.9032-3.309-3.4694-2.9802-2.5907-5.8961-5.0113-8.0901l0.1206-0.1333c0.4032-2.2727 1.4036-4.375 1.8405-6.6431 1.1375-5.9029 1.5202-12.118 5.7097-16.738 1.7785-1.961 4.9078-5.4323 11.182-3.1136l0.0501 0.0747c-1.667 1.0859-1.9161 3.3887-2.3188 5.2114-0.4249 1.9547-1.0152 3.8696-1.766 5.7235-1.8968 4.6353-5.7416 8.7413-6.3041 13.862-0.3293 3.0008 1.4418 5.1116 2.4104 7.7671 0.6478 1.7776 0.91 4.3419 1.4583 6.148l0.2576 0.0957c-0.0585 0.168-0.1086 0.339-0.1495 0.5127l-0.1746-0.0438z" fill="#E6F0FF"/>
<path d="m99.901 50.993c-0.1791-1.9314-0.8377-3.787-1.9155-5.3987-2.6271-3.7152-8.272-4.9077-12.62-6.0437l-0.083 0.3162c-0.0416 0.4558-0.6689 1.1531-0.881 1.5382-0.6826 1.2489-1.3082 2.5353-1.9116 3.8298-2.2813 4.895-4.2924 10.352-3.6969 15.846 0.141 1.299 0.2036 3.1848 0.91 4.3545l0.3156 0.0621c-0.3497 2.1649-0.5721 4.3481-0.6648 6.5393-0.3299 4.812-0.7929 5.7155-0.7354 5.7155l0.1996 0.5282c-0.0751 0.0376-0.6899 0.4455-0.6694 0.4495l-0.033 0.1749c-3.7345-0.7406-6.9127 0.3487-10.542 0.8911-2.9888 0.405-6.022 0.3452-8.992-0.1789-2.2648-0.3498-6.146-1.965-7.7123 0.5577-0.2651 0.4399-0.459 0.919-0.5739 1.4192-0.1979 1.0649-0.273 2.1485-0.2241 3.2304-0.0671 1.9171 0.0313 3.836 0.2952 5.736 0.3913 2.2066 1.4304 4.0741 3.5774 4.7367 0.4488 0.1413 4.9283-0.1373 8.6394-0.2455 5.4891-0.241 6.2819 0.441 9.8315 1.0779 5.2485 0.9532 11.993 1.4693 16.443-2.0601 1.6789-1.3321 2.2818-3.3762 3.1167-5.2615 0.9516-2.1564 2.0777-4.2501 2.6635-6.5479 0.8731-3.4007 0.0626-6.7433 0.1746-10.173 0.1826-5.466 3.7441-9.0376 5.0051-16.725 0.2147-1.4465 0.2427-2.9153 0.0841-4.3692z" fill="#E6F0FF"/>
<path d="m31.867 77.523 0.1035-0.3498c-1.3081-0.4131-2.2642-1.7593-2.0026-3.0344l-0.5363-0.0877c-0.263-0.3214-0.4464-0.7008-0.5354-1.1065-0.0889-0.4062-0.0809-0.8272 0.0235-1.2294l-0.7558-0.196c-1.2013-1.2073-0.1417-2.7849 1.0095-3.7711l-1.0147-0.4193c-0.6063-0.0569-3.2117 0.4057-4.1388 0.5128-0.3288 0.0718-0.6698 0.0655-0.9958-0.0182-0.3259-0.0838-0.6277-0.2433-0.8811-0.4649-0.9555-1.1196 0.972-2.0402 1.7745-2.279 1.9236-0.5697 4.0302-0.4062 6.0044-0.7537 1.0015-0.1761 2.1533-0.6216 3.1281-0.114 0.9066 0.4729 1.3508 1.6021 2.0236 2.3268 1.1831 1.2745 2.7028 1.8892 3.6566 3.3717 1.349 2.096 1.1773 4.5008 4.0848 7.0014 1.5085 1.2796 3.1527 2.3894 4.9032 3.3089 0.6825 0.3641 1.7 1.0033 2.4018 1.3241l0.1746 0.0456c-0.3025 1.332-0.2115 2.4954-0.224 4.4872-0.0347 1.4989 0.0637 2.9979 0.2951 4.4792-1.7125-1.1395-4.4044-3.9824-8.6018-6.5855-1.9252-1.1936-3.8465-0.7373-6.7318-2.7347-1.1991-0.8455-2.2037-1.9382-2.9461-3.2053-0.0629-0.1066-0.1199-0.2159-0.1706-0.3288-0.0205-0.0507-0.0126-0.1794-0.0484-0.1794z" fill="#fff"/>
<path d="m29.143 64.626c-0.5244 0.1032-1.0386 0.2006-1.4847 0.2313-0.0617 4e-3 -0.1234 0.0086-0.1849 0.0126-1.2042 0.082-2.3718 0.1612-3.4739 0.4877-0.3802 0.1128-1.0206 0.388-1.4415 0.7514-0.2109 0.1824-0.3368 0.3613-0.3759 0.5253-0.0334 0.1408-0.013 0.3122 0.1651 0.5282 0.2166 0.1851 0.4728 0.3185 0.7489 0.3897 0.2829 0.0729 0.5789 0.078 0.8643 0.0159 0.0093-0.0023 0.0187-4e-3 0.0281-0.0045 0.2916-0.0342 0.7499-0.1032 1.2642-0.1806 0.2944-0.0445 0.6071-0.0918 0.9174-0.1368 0.4225-0.0609 0.838-0.1173 1.1873-0.1549 0.3396-0.0365 0.6444-0.0587 0.8291-0.0416 0.0281 0.0028 0.0557 0.0097 0.0819 0.0205l1.0146 0.4193c0.1452 0.0598 0.2144 0.2268 0.1545 0.372-0.0599 0.1453-0.2262 0.2148-0.3714 0.1544l-0.9718-0.4011c-0.1296-0.0057-0.3621 0.0092-0.6761 0.0428-0.3387 0.0364-0.7461 0.0917-1.1668 0.1527-0.2985 0.0432-0.6049 0.0894-0.8969 0.1333-0.5153 0.078-0.9855 0.1487-1.2869 0.184-0.3678 0.078-0.7487 0.0701-1.113-0.0234-0.369-0.0951-0.7107-0.2751-0.9975-0.5264-0.0104-0.0091-0.0201-0.0188-0.029-0.0296-0.2875-0.3367-0.3827-0.6951-0.2992-1.046 0.0787-0.3311 0.3056-0.6068 0.5575-0.8244 0.5046-0.4359 1.229-0.7413 1.6514-0.8666 1.1644-0.3453 2.3906-0.4279 3.5787-0.5082 0.0678-0.0051 0.1355-0.0097 0.203-0.0142 0.4042-0.0274 0.8833-0.1174 1.4133-0.2222 0.0531-0.0103 0.1066-0.0211 0.1604-0.0314 0.478-0.0951 0.9879-0.1965 1.4898-0.262 1.0959-0.1436 2.2723-0.1379 3.0582 0.5908 0.3251 0.3013 0.5885 0.6745 0.8275 1.0243 0.0258 0.0376 0.0513 0.0747 0.0765 0.1123 0.2153 0.3162 0.4135 0.6073 0.6379 0.8489 0.4709 0.507 0.9947 0.9041 1.5346 1.3132 0.1143 0.0866 0.2293 0.1738 0.3447 0.2626 0.6522 0.5025 1.3034 1.0512 1.808 1.8351 0.3521 0.547 0.6023 1.1104 0.8242 1.6773 0.0915 0.2336 0.1762 0.4621 0.2608 0.69 0.1252 0.3378 0.2502 0.6751 0.3964 1.0266 0.477 1.1463 1.1379 2.3319 2.5489 3.5454 1.4924 1.266 3.1193 2.3633 4.8506 3.2731l0.0017 0.0012c0.2605 0.139 0.5699 0.3179 0.8867 0.5008 0.1047 0.0603 0.2099 0.1213 0.3145 0.1817 0.4192 0.2404 0.8293 0.4695 1.1631 0.6239l0.1502 0.0387c0.1519 0.0399 0.2429 0.1954 0.2036 0.3475-0.0398 0.1527-0.1951 0.2439-0.3469 0.204l-0.1746-0.0456c-0.016-4e-3 -0.0313-0.0097-0.0467-0.0165-0.364-0.1664-0.8048-0.4125-1.2313-0.6575-0.1092-0.0632-0.2179-0.1259-0.3242-0.1874-0.314-0.1812-0.6103-0.3527-0.8611-0.4866-1.7685-0.9292-3.4298-2.0504-4.9539-3.3431l-0.0015-0.0012c-1.496-1.287-2.2028-2.5541-2.704-3.759-0.1482-0.3561-0.2826-0.7185-0.4125-1.0683-0.0841-0.2267-0.1663-0.4484-0.2493-0.6597-0.2161-0.5521-0.4502-1.0751-0.7727-1.5765-0.4492-0.6979-1.0349-1.1981-1.6767-1.6921-0.108-0.0831-0.218-0.1663-0.3293-0.2506-0.5414-0.4103-1.1118-0.8421-1.6198-1.389-0.2556-0.2758-0.4793-0.6045-0.6905-0.915-0.0257-0.0376-0.0513-0.0752-0.0767-0.1123-0.2405-0.3521-0.4719-0.6751-0.7446-0.9281-0.5773-0.5355-1.5052-0.5873-2.5979-0.4443-0.4823 0.0632-0.9735 0.1606-1.454 0.2563-0.0535 0.0103-0.1068 0.0211-0.1599 0.0319z" clip-rule="evenodd" fill="#1C3B67" fill-rule="evenodd"/>
<path d="m41.762 83.977c-2.002-1.2061-3.8425-0.7407-6.7318-2.7347-0.3879 0.5173-0.2707 1.1092-0.5778 1.6026l-0.0831 0.1915c-1.3752-0.5829-2.9006-1.0284-4.0381-1.9981-1.2672-1.0825-1.6534-4.7908-4.9033-2.0481l-0.1786 0.1139c0.4873 0.7469 1.0858 1.4152 1.7746 1.9809l0.2741 0.0086c-0.1428 2.4663-0.3196 4.5726-1.849 6.6476-4.6536-4.5237-4.2714-4.0645-4.3385-4.1249l-0.1996 0.2205c-0.3981 0.5367-0.12 2.006-0.054 2.5889 0.1831 1.5776 0.5238 3.3716 1.7369 4.5008 1.2513 1.1697 3.0753 1.4694 4.2469 2.7723 1.1011 1.2238 1.3081 3.1512 2.7926 4.0502 1.4958 0.9076 2.9171-0.029 4.4835 0.171 2.6447 0.3418 4.2224 1.4351 8.041 0.2956 4.1519-1.1821 5.9879-4.4621 7.0725-8.3334l0.083-0.0997c-2.3654-2.1256-4.8897-4.0667-7.5513-5.8055z" fill="#E6F0FF"/>
<path d="m13.491 69.972c0.2622 0.1749 0.0302-0.0296 1.2217 1.1446l0.0415 0.0291c0.9015-1.2905 2.3939-2.3034 3.3949-3.4338 0.2474-0.29 0.5591-0.5184 0.91-0.666 1.3167-0.5287 2.0646 1.3924 1.2257 2.1143-1.2046 1.0369-2.4764 2.1894-3.1208 3.6462-0.2166 0.5925-0.2697 1.2324-0.1535 1.8528l0.3782 0.1578c0.7604-1.2192 1.6124-3.3044 3.64-4.2872 0.1879-0.1225 0.404-0.1937 0.6275-0.2074 0.2235-0.0142 0.4468 0.0302 0.6482 0.1282 0.1302 0.0689 0.2431 0.1669 0.3305 0.2854 0.0873 0.1191 0.1469 0.2564 0.1742 0.4011 0.0273 0.1453 0.0217 0.2946-0.0164 0.4376-0.0381 0.1424-0.1078 0.2746-0.2039 0.3868-1.0237 1.4864-2.7761 2.3695-2.2067 4.6148 0.2138-0.0507-0.2429 0 3.4449-0.2997 0.0148 0.1875-0.0171 0.0342 0.1661 0.2496 0.2975 0.4928 0.5452 1.0141 0.7393 1.5565 0.5045 1.1765 1.2927 2.2088 2.2938 3.0053l0.2742 0.0086c0 2.2299-0.4607 4.7657-1.849 6.6476-1.104-0.719-2.8182-2.7211-4.3385-4.1249-0.9811-0.907-1.6431-1.0773-2.4849-1.757-0.4396-0.3544-0.7098-0.9452-1.1881-1.2443-0.6148-0.384-1.3519 0.0222-1.9827-0.4119-0.782-0.5396-0.9896-1.6391-1.8615-2.0647-1.2143-0.5937-2.4286-0.355-3.2948-1.6238-0.75305-1.1012-0.40099-2.1917-0.40326-3.5294 0-1.2614-0.32192-2.4567 0.10406-3.6924 0.3515-1.0204 1.2172-1.5383 2.0191-2.173 0.4249-0.2125 3.156-3.0868 4.8344-3.5323 1.104-0.294 1.7159 0.817 1.0767 1.8943-0.9965 1.6688-3.7703 3.3945-4.4409 4.4872z" fill="#fff"/>
<path d="m22.588 71.96c0.106-0.1538 0.1782-0.3287 0.2116-0.5127l0.1666 0.025s1.9873 2.271 3.1578 3.6002c0.0771 0.0877 0.1285 0.1954 0.1482 0.3105 0.0198 0.115 0.0072 0.2335-0.0364 0.3418-0.0435 0.1082-0.1163 0.2028-0.2102 0.2718-0.0938 0.0695-0.2051 0.1111-0.3214 0.1207-5.7927 0.478-5.0738 0.3949-5.323 0.4558-0.5704-2.2453 1.1762-3.1204 2.2068-4.6131z" fill="#0167FF"/>
<path d="m17.011 74.655c-0.1162-0.6204-0.0631-1.2602 0.1536-1.8527 0.6444-1.4568 1.9161-2.6094 3.1207-3.6463 0.1195-0.1025 0.2122-0.2324 0.2702-0.3789 0.1137 0.0536-0.0569-0.1167 1.3297 1.4654l-4e-3 0.0706c-0.2988-0.0131-0.5952 0.0604-0.8531 0.2125-2.0151 0.976-2.8478 3.0196-3.64 4.2873l-0.3771-0.1579z" fill="#0167FF"/>
<path d="m17.889 65.684c1.2512 1.43 1.1551 1.3001 1.1716 1.3571-0.3494 0.1504-0.6604 0.3783-0.91 0.666-1.001 1.1303-2.4934 2.1433-3.3949 3.4337-0.0648-0.045 0.0335 0.0456-1.0767-1.0488l-0.1865-0.1248c0.6256-1.0193 3.3556-2.8253 4.3379-4.3248l0.0586 0.0416z" fill="#0167FF"/>
<path d="m10.001 69.289c-0.42598 1.2358-0.10634 2.431-0.10406 3.6924 0 0.5618-0.07508 1.1571-0.07508 1.74h-0.09555c0-0.0718-0.34978-1.3252-0.36571-1.3822-0.30445-0.8825-0.54191-1.7872-0.71037-2.7056-0.21215-1.7941 0.33727-3.5728 0.95152-5.2489 0.53575-1.4614 0.80825-2.3678 1.4128-3.0264 0.8845-0.9623 2.1044-0.6951 2.2068 0.662 0.1064 1.4277-0.856 2.7347-1.2217 4.0707l0.0205 0.0251c-0.8019 0.6369-1.6676 1.1525-2.0191 2.1729z" fill="#fff"/>
<path d="m11.999 67.093c0.3657-1.336 1.328-2.6429 1.2216-4.0707-0.1012-1.3571-1.3223-1.6243-2.2067-0.662-0.6194 0.6746-0.8913 1.6129-1.4128 3.0264-0.23661-0.0883 0.35604 0.4393-4.5045-4.4957-0.07553-0.0764-0.12831-0.1727-0.15242-0.2775-0.02412-0.1048-0.01854-0.2148 0.01598-0.3162 0.03452-0.102 0.09669-0.1926 0.17956-0.2609 0.08286-0.069 0.18313-0.1128 0.2896-0.1276 1.5664-0.2131 4.3379-0.5937 5.7387-0.7828 0.2646-0.0354 0.5338-0.0046 0.7838 0.0888 0.25 0.094 0.4731 0.2479 0.6495 0.4484 0.0512 0.057 3.6064 4.1021 3.636 4.159-1.601 0.7977-3.9016 3.1387-4.2179 3.2965l-0.0204-0.0257z" fill="#0167FF"/>
<path d="m66.552 20.848c0.075-0.0045 0.1456-0.0388 0.1956-0.0954 0.0501-0.0565 0.0757-0.1306 0.0711-0.206-0.0313-0.4922-0.0108-0.9865 0.0609-1.4744 0.0682-0.0108 0.166-0.0211 0.1882-0.0222 0.2514 0.0173 0.5005 0.0566 0.7451 0.1173 0.0734 0.0181 0.1507 0.0064 0.215-0.0327 0.0648-0.039 0.1115-0.1021 0.1291-0.1755 0.0182-0.0734 0.0068-0.1509-0.0324-0.2157-0.0387-0.0646-0.1018-0.1112-0.1752-0.1293-0.302-0.0771-0.6114-0.1214-0.9225-0.1322 0.1661-0.4747 0.488-0.8785 0.914-1.1451 0.0625-0.0424 0.1058-0.1079 0.12-0.1821s-0.0017-0.151-0.0444-0.2136c-0.0421-0.0626-0.1075-0.1057-0.1814-0.12-0.074-0.0142-0.1507 0.0016-0.2133 0.0439-0.4129 0.2752-0.7525 0.6475-0.9885 1.0846-0.236 0.437-0.3612 0.9254-0.3651 1.4223-0.0353 0.4028-0.041 0.8076-0.0171 1.2112 0.0051 0.075 0.0398 0.1449 0.0961 0.1945s0.1297 0.075 0.2048 0.0704z" fill="#1C3B67"/>
<path d="m21.977 73.14c0.3018-0.3219 0.5835-0.6615 0.8434-1.0181 0.1258-0.1846 0.2129-0.3925 0.256-0.6119 0.2212-1.1036-1.0448-1.9063-2.1721-1.238-1.9736 0.956-2.8546 2.876-3.6332 4.1795-0.074-0.515-0.0215-1.0409 0.153-1.5308 0.6091-1.3788 1.8388-2.5068 3.0462-3.546 0.2969-0.3094 0.4598-0.7242 0.4533-1.1532-0.0063-0.429-0.1815-0.8386-0.4874-1.1389-0.7394-0.7588-1.7904-0.364-2.4968 0.4347-1.0875 1.2295-3.1395 2.5308-3.9529 4.4126-0.3535 0.9925-0.5909 2.0225-0.7075 3.0697-0.0534 0.2353-0.1063 0.4558 0.1177 0.5635 0.052 0.0222 0.109 0.0296 0.1649 0.021 0.0558-0.0085 0.1082-0.0319 0.1514-0.0683 0.0432-0.0365 0.0755-0.0844 0.0933-0.1379 0.0177-0.0536 0.0203-0.1111 0.0073-0.1664 0.1196-1.0437 0.3536-2.0709 0.6979-3.0628 0.7456-1.724 2.7579-3.0156 3.8533-4.2536 0.4687-0.5293 1.1705-0.919 1.6659-0.4137 0.1932 0.1898 0.3076 0.4461 0.3204 0.7173 0.0128 0.2707-0.0771 0.5367-0.2516 0.7441-1.2564 1.0825-2.5378 2.2596-3.2026 3.7642-0.2344 0.6404-0.2918 1.3326-0.1661 2.0032 0.0109 0.0587 0.0402 0.1128 0.0838 0.1538s0.0991 0.0667 0.1585 0.0741c-0.0643 0.0985-0.0199 0.0342-0.0882 0.1327-0.2571 0.3703-0.2491 0.3532-0.3213 0.4102-0.0711 0.0388-0.1265 0.1009-0.1569 0.1761s-0.0338 0.1583-0.0098 0.2358c0.0224 0.0507 0.0586 0.0946 0.1044 0.1265 0.0459 0.0313 0.0996 0.049 0.1552 0.0519 0.0556 0.0022 0.1107-0.0109 0.1593-0.0382 0.0485-0.0274 0.0884-0.0673 0.1152-0.1162 0.9834-0.7977 1.7336-3.9243 4.2418-5.1413 0.2052-0.1202 0.4398-0.1806 0.6773-0.1743 0.1176 0.0131 0.2314 0.0501 0.3345 0.1082 0.0921 0.0524 0.1713 0.1248 0.2316 0.212 0.0603 0.0871 0.1001 0.1868 0.1164 0.2917 0.0165 0.1048 9e-3 0.2119-0.0217 0.3133s-0.0839 0.1949-0.1557 0.2729c-0.724 1.0466-2.1442 2.0824-2.3382 3.4754-0.1336 0.9583 0.2406 1.8111 0.3794 2.672 0.0121 0.0746 0.0532 0.1413 0.1145 0.1857 0.0303 0.0217 0.0646 0.0376 0.101 0.0462 0.0364 0.0085 0.0741 0.0097 0.111 4e-3 0.0369-0.0063 0.0722-0.0194 0.1041-0.0388 0.0317-0.0199 0.0593-0.0456 0.0812-0.0758 0.0219-0.0307 0.0376-0.0649 0.0462-0.1014 0.0085-0.0364 0.0099-0.074 0.0039-0.1111-0.0443-0.2717-0.0836-0.4181-0.3003-1.3525-0.348-1.4915 0.2196-2.1405 1.319-3.3631z" fill="#1C3B67"/>
<path d="m29.357 67.965c0.3657-0.3452 0.7968-0.613 1.2678-0.7879 0.3072-0.1037 0.5954-0.2564 0.8531-0.453 0.0563-0.0507 0.0903-0.1213 0.0945-0.1971 0.0042-0.0752-0.0217-0.1493-0.072-0.2057-0.0504-0.0564-0.1209-0.0905-0.1963-0.0945-0.0753-4e-3 -0.1493 0.0216-0.2055 0.0723-0.2104 0.1493-0.4417 0.2672-0.6865 0.3493-0.5275 0.1971-1.0108 0.4973-1.4219 0.8831-1.3798 1.1821-2.3143 2.8947-1.0238 4.1886 0.0263 0.0268 0.0576 0.049 0.0922 0.0638 0.0347 0.0148 0.072 0.0228 0.1098 0.0234 0.0378 0 0.0752-0.0069 0.1102-0.0211 0.0349-0.0143 0.0667-0.0353 0.0935-0.0621 0.0267-0.0268 0.0479-0.0587 0.0622-0.0935 0.0143-0.0353 0.0216-0.0729 0.0213-0.1105s-0.0081-0.0752-0.0229-0.1099c-0.0148-0.0348-0.0365-0.0661-0.0636-0.0923-1.0283-1.0278-0.1063-2.4151 0.9879-3.3529z" fill="#1C3B67"/>
<path d="m98.221 45.428c-2.7112-3.8342-8.5165-5.0398-12.78-6.1531-4.5693-1.1998-3.6218-2.2128-4.8389-3.2514-0.7349-0.5926-1.6016-0.3059-2.1948-0.6506-0.7866-0.4467-0.9601-2.2061-1.2684-3.0936-0.3554-1.0888-0.9179-2.0983-1.6568-2.9729 0.0091-0.0213 0.0148-0.0437 0.0177-0.0666 0-0.0595-0.0188-0.1173-0.0535-0.1656-0.0347-0.0482-0.0836-0.0844-0.1399-0.1034-0.4317-0.1661-0.8912-0.246-1.3536-0.2352-1.8644 0.1709-2.9661 2.3181-4.4295 1.0374-0.4806-0.4724-0.848-1.0478-1.0744-1.6829-0.4772-1.1498-1.1756-3.3489-0.4953-5.1641 0.331-0.8768 1.1289-1.5303 1.6368-2.378 0.3015-0.5843 0.4567-1.233 0.4522-1.8905-4e-3 -0.6576-0.1678-1.3043-0.4766-1.8845-0.9715-2.079-3.7953-2.786-4.9852-0.5236-0.3947 0.8239-0.4686 1.7659-0.2058 2.6412-4.3971 0.6837-8.4278-2.9888-11.901-4.9469-1.4361-0.9167-3.4199-1.5702-5.075-1.16-0.0364 9e-3 -0.0705 0.0251-0.1007 0.0474-0.0296 0.0223-0.0552 0.0503-0.0745 0.0823-0.0387 0.0649-0.0506 0.1425-0.0318 0.2159 0.0182 0.0733 0.0648 0.1364 0.1291 0.1753 0.0648 0.039 0.1422 0.0506 0.2155 0.0323 0.2577-0.0607 0.521-0.0943 0.786-0.1002-0.5192 1.2792-0.7968 2.6438-0.819 4.0245-0.1308 3.3967 1.7211 4.461 1.5755 6.3679-0.1024 1.3992-2.3848 3.1653-1.8382 4.7441 0.5465 1.5787 2.7425 1.1668 3.7077 1.7251 0.7103 0.4125 0.1308 1.6084 0.9578 2.2983 0.2326 0.1603 0.4988 0.265 0.778 0.3059 0.2793 0.0409 0.5648 0.0169 0.8332-0.07 0.0785-0.0217 0.1525-0.0502 0.2275-0.0753 0.0757 0.3318 0.2264 0.6417 0.4408 0.9056s0.4869 0.4747 0.7957 0.6162c0.4738 0.2809 0.4061 0.2422 0.8531 0.9196 1.1944 1.8037 2.2392 3.0161 4.3226 2.3461-0.2725 0.5846-0.4238 1.2183-0.4459 1.863 0.0398 0.7312 0.1797 1.4535 0.4157 2.1468-0.3873-0.0388-0.7769-0.0552-1.1659-0.049-0.8571 0.0093-1.6938 0.2635-2.4121 0.7326-1.5015 0.9794-1.9167 2.831-2.2665 4.5576-0.4317 2.2265-1.0766 4.4057-1.9258 6.5074-1.9042 4.6091-5.7501 8.7442-6.324 13.938-0.3412 3.1095 1.456 5.2352 2.4258 7.8964 0.633 1.7342 0.9031 4.3197 1.4537 6.1331 0.0148 0.0422 0.0392 0.0804 0.0717 0.1106 0.0324 0.0307 0.0722 0.0524 0.1149 0.0638-0.2753 1.1736-0.3817 2.3803-0.3151 3.5836-0.0444 1.6995 0.0193 3.3995 0.1911 5.0905-1.6426-1.2306-3.7493-3.4332-8.0672-6.1867-1.865-1.1241-3.784-0.8643-6.3223-2.4607-0.989-0.6204-1.8564-1.4169-2.5594-2.3507-0.349-0.4307-0.6413-0.9041-0.8696-1.41 0.4622 0.1242 0.9533 0.0809 1.3866-0.1231 0.0041 0.0456 0.0194 0.0894 0.0444 0.1276 0.8963 1.3041 2.0111 2.9267 3.9027 3.2412 0.0374 0.0074 0.0759 0.0074 0.1131-6e-4 0.0373-0.0074 0.0726-0.0228 0.1039-0.0444 0.0313-0.0217 0.0579-0.0496 0.0783-0.0815 0.0204-0.0325 0.0341-0.0683 0.0404-0.1059 0.0062-0.0376 0.0049-0.0764-4e-3 -0.1134-0.0089-0.0371-0.0251-0.0718-0.0477-0.1026-0.0226-0.0307-0.0512-0.0564-0.0839-0.0758-0.0327-0.0193-0.0691-0.0324-0.1068-0.0376-2.184-0.3634-3.2885-2.9027-3.6264-3.0884 0.2903-0.2752 0.4607-0.6535 0.4746-1.0541 0.0138-0.3999-0.1301-0.7896-0.4006-1.0847-0.2513-0.302-0.5355-0.5749-0.8475-0.8136-0.06-0.0427-0.1344-0.0604-0.2073-0.0496-0.073 0.0109-0.1389 0.0502-0.1837 0.1089-0.0447 0.0586-0.065 0.1327-0.0565 0.2056 0.0085 0.0735 0.0452 0.1408 0.1023 0.1875 0.2773 0.2125 0.53 0.4552 0.7536 0.723 0.7001 0.8671-0.0125 2.0464-1.5356 1.5718-1.1449-0.3612-2.0475-1.5547-1.8098-2.7073 0.1894-0.9537 1.0238-1.8174 1.7324-2.4629 0.4345-0.4131 0.9029-0.7897 1.4003-1.1247 0.067-0.0063 0.1312-0.0302 0.1859-0.0695s0.0979-0.0923 0.1252-0.1544c0.0154-0.0496 0.0188-0.102 0.0102-0.1527-0.0085-0.0513-0.029-0.0997-0.0597-0.1418-0.0245-0.0314-0.0554-0.0576-0.0906-0.0764-0.0352-0.0182-0.074-0.0296-0.1138-0.0325-0.0398-0.0028-0.0797 0.0029-0.1172 0.0166-0.0375 0.0136-0.0717 0.0353-0.1004 0.0626-0.5887 0.3521-1.1334 0.7726-1.6226 1.2534-0.7559 0.69-1.6437 1.6181-1.8877 2.7034-0.0054-0.0513-0.0251-0.1008-0.0569-0.1419-0.2333-0.2854-0.3962-0.6221-0.4758-0.9822-0.0797-0.36-0.0737-0.7344 0.0174-1.0921 0.2913-0.9555 0.8465-1.8095 1.6016-2.463 0.1018-0.09 1.0584-1.0591 1.3451-1.0825 0.0365 0.0086 0.0742 0.0091 0.1109 0.0023 0.0368-0.0063 0.072-0.0199 0.1034-0.0404 0.0316-0.02 0.0587-0.0462 0.0801-0.077 0.0214-0.0307 0.0365-0.0649 0.0446-0.1019 8e-3 -0.0365 0.0088-0.0741 0.0022-0.1111-0.0065-0.0365-0.0203-0.0718-0.0404-0.1032-0.0201-0.0319-0.0462-0.0592-0.0768-0.0803-0.0307-0.0216-0.0652-0.0364-0.1017-0.045-0.5563-0.1373-1.4367 0.8546-1.8434 1.213-0.8361 0.7281-1.4507 1.6767-1.7733 2.7381-0.1151 0.4455-0.1238 0.9121-0.0255 1.3616s0.3009 0.87 0.5914 1.2261c0.0286 0.0359 0.0655 0.0638 0.1075 0.082 0.042 0.0183 0.0877 0.0257 0.1333 0.0222 0.0455-0.0034 0.0895-0.0182 0.1281-0.0427s0.0707-0.0581 0.0935-0.098c-0.0637 0.6689 0.094 1.34 0.4485 1.9098 0.3546 0.5703 0.8864 1.0078 1.5137 1.2448-0.0388 0.0484-0.0609 0.1077-0.0632 0.1692-0.0022 0.0615 0.0155 0.1225 0.0506 0.1726 0.0451 0.1744 0.1195 0.3396 0.2202 0.4883 0.7169 1.2232 1.6739 2.2875 2.813 3.1295-0.1104 0.2359-0.1888 0.4849-0.2332 0.7407-0.0338 0.2148-0.1009 0.4221-0.199 0.6153-1.315-0.5378-2.6925-0.9845-3.7066-1.8482-1.1176-0.9549-1.7592-4.9231-5.1728-2.1274-0.1329-0.2296-0.2489-0.4689-0.347-0.7156-0.2018-0.5743-0.4665-1.1246-0.7894-1.6414-0.0615-0.0717-0.1314-0.1367-0.2082-0.1925-0.0356-0.0234-0.0758-0.0388-0.118-0.045-0.0421-0.0063-0.0851-4e-3 -0.1261 0.0079-0.041 0.012-0.0789 0.0319-0.1113 0.0599-0.0323 0.0279-0.0584 0.0621-0.0762 0.1008-0.0265 0.0707-0.0259 0.1481 0.0015 0.2182 0.0274 0.0695 0.0798 0.1271 0.1469 0.1601 0.0971 0.106 0.177 0.2256 0.2366 0.3561 0.3055 0.7737 0.6594 1.5269 1.0596 2.2555 0.5027 0.772 1.1205 1.462 1.8319 2.0459 0.0464 0.0376 0.1033 0.0593 0.1627 0.0616-0.0569 2.1564-0.4362 4.216-1.6545 6.0055-0.1194-0.1852-0.1194 0-2.2301-2.1735-0.5858-0.6022-1.3428-1.3799-2.031-1.9884-0.7547-0.6666-1.5584-0.9822-2.287-1.5736-0.4396-0.3526-0.6591-0.9115-1.216-1.2642-0.6899-0.429-1.4497-0.0473-1.9707-0.4045-0.7251-0.5019-0.9293-1.6146-1.8985-2.0864-1.2512-0.6147-2.4064-0.388-3.185-1.524-0.5312-0.7771-0.455-1.5605-0.3936-2.5005 0.0563-0.6695 0.0487-1.3429-0.0227-2.0112-0.20138-2.5666 0.2314-3.0953 1.6869-4.2029 1.5515-1.181 3.6156-3.371 5.1188-3.7818 0.8923-0.2313 1.2376 0.658 0.7632 1.4687-0.9759 1.6659-3.611 3.1831-4.4362 4.4838-0.3679 0.5532-0.6177 1.1771-0.7337 1.8311-0.0513 0.2182-0.083 0.4404-0.0944 0.6638-0.0037 0.0757 0.0225 0.1492 0.0731 0.2056 0.0506 0.0559 0.1212 0.0895 0.1964 0.0929 0.0746 0.0011 0.1468-0.0262 0.2021-0.0763 0.0554-0.0502 0.0898-0.1191 0.0965-0.1938 0.01-0.1942 0.0379-0.3868 0.0831-0.5765 0.1067-0.5988 0.3379-1.1685 0.6785-1.6727 1.0806-1.4426 3.4125-2.7427 4.4198-4.4661 0.7684-1.3104-0.0518-2.6618-1.398-2.3109-1.3332 0.3652-3.0326 1.9371-4.1684 2.9336 0.4459-1.0654 0.9817-2.1001 0.8958-3.2412-0.1183-1.6095-1.6494-1.9787-2.6999-0.8341-0.678 0.7406-0.96346 1.7388-1.4708 3.1215-0.58866 1.6061-1.191 3.4811-0.96688 5.3976 0.16988 0.927 0.40927 1.8403 0.71606 2.7307 0.4277 1.5383 0.27015 1.0296 0.34125 1.2865-0.00421 0.0627 0.0124 0.1253 0.0472 0.1772 0.01923 0.0222 0.04141 0.0416 0.06598 0.057 0.00125 0.6187 0.18382 1.2226 0.52498 1.7376 0.9208 1.3474 2.2181 1.1344 3.4028 1.7143 0.7724 0.3761 0.988 1.4637 1.8252 2.0437 0.357 0.2159 0.7734 0.3122 1.1887 0.2746 0.2758-0.0285 0.5542 0.021 0.803 0.1435 0.3874 0.2427 0.7292 0.878 1.1603 1.225 0.7229 0.5856 1.5988 0.9685 2.2682 1.557-0.467 0.4615-0.2656 1.8875-0.1775 2.5308 0.2355 1.7359 0.4755 3.6747 1.8627 4.9651 1.2678 1.1851 3.1213 1.5218 4.2298 2.7547 1.0642 1.1822 1.278 3.1489 2.8563 4.102 1.6107 0.9771 3.0855 0.0148 4.595 0.2097 2.6288 0.3384 4.2605 1.4488 8.1548 0.2849 4.5699-1.3013 6.2563-5.0467 7.1885-8.2577 0.2235 0.1743 0.4515 0.3418 0.6825 0.5014 0.1325 0.6985 0.3452 1.3793 0.6336 2.0288 0.2832 0.6683 0.7092 1.2659 1.2472 1.7513 0.5381 0.486 1.1756 0.8483 1.8684 1.0609 0.0722 0.0222 0.1501 0.0148 0.2167-0.0206 0.0665-0.0353 0.1166-0.0957 0.1388-0.168 0.0221-0.0718 0.0147-0.1499-0.0205-0.2171-0.0353-0.0666-0.0956-0.1168-0.1678-0.139-0.951-0.2934-1.7745-0.9013-2.3353-1.7251 0.8025 0.1811 1.6232 0.2637 2.4456 0.2461 2.5179 0.1988 5.0472 0.1988 7.5645 0 0.046-0.0046 0.0898-0.0205 0.1279-0.0467 0.0825 0.5731 0.2509 1.1297 0.4994 1.6522 0.0148 0.0359 0.0364 0.0689 0.0643 0.0957 0.0278 0.0273 0.0608 0.0484 0.0967 0.0621 0.0364 0.0142 0.075 0.0205 0.1137 0.0188s0.0768-0.0108 0.1115-0.0279c0.0347-0.0165 0.066-0.0405 0.0916-0.0695 0.025-0.0297 0.0443-0.0638 0.0563-0.1003 0.0119-0.037 0.0159-0.0763 0.0119-0.1145-4e-3 -0.0388-0.0153-0.0764-0.0341-0.1105-0.2622-0.5504-0.4271-1.1418-0.4869-1.7491-0.4885-2.7974-0.9532-8.4622-0.4737-11.262 0.0125-0.0741-0.0046-0.151-0.0484-0.2125-0.0432-0.0616-0.1098-0.1037-0.1837-0.1162-0.0745-0.0126-0.1513 0.0045-0.2127 0.0484-0.0614 0.0433-0.1035 0.1099-0.116 0.184-0.0757 0.4541-0.1263 0.9121-0.153 1.3713-1.1694-0.1002-9.1001-0.7742-10.699-0.8648 0.0387-0.3846 0.1218-0.7634 0.2486-1.1292 0.914-2.7347 3.5041-2.2425 6.2961-1.5952 3.4756 0.8078 7.069 0.9765 10.605 0.4985 3.5598-0.5322 6.7784-1.6203 10.447-0.8928 2.4866 0.5692 4.8879 1.4625 7.1424 2.6567 0.0677 0.033 0.1462 0.0381 0.2173 0.013 0.0717-0.0244 0.1302-0.0769 0.1632-0.1447 0.0324-0.0678 0.0376-0.1464 0.0126-0.2176-0.0245-0.0718-0.0768-0.1305-0.1445-0.1635-2.1613-1.1304-4.4471-2.0026-6.8114-2.5997 0.1353-0.0894 0.2707-0.1772 0.3065-0.1965 1.952-1.0164 4.119-1.5486 6.3189-1.5503 0.033-4e-3 0.066-4e-3 0.099 0 0.0756 0 0.1478-0.0296 0.2013-0.0832 0.0529-0.0535 0.083-0.1259 0.083-0.2016 0-0.0752-0.0301-0.1476-0.083-0.2011-0.0535-0.0536-0.1257-0.0838-0.2013-0.0838-2.2876-0.0154-4.545 0.5247-6.5788 1.5736 0.0489-0.0251 0.0881-0.0655 0.1115-0.1151 0.0238-0.0501 0.0307-0.106 0.0193-0.1601 0.3902-1.8641 0.6342-3.7568 0.7297-5.6597 0.0927-2.178 0.3134-4.3493 0.6609-6.5023 0.2736-1.5656 0.7644-3.0856 1.4589-4.5157 0.0329-0.0678 0.0375-0.1458 0.013-0.2176-0.025-0.0712-0.0767-0.1299-0.1444-0.1629-0.0683-0.0331-0.1462-0.0376-0.2179-0.0131-0.0711 0.025-0.1296 0.0769-0.1626 0.1447-0.7184 1.479-1.2263 3.052-1.5084 4.6717-0.3515 2.1736-0.5744 4.3659-0.6682 6.5656-0.3783 5.5264-0.9203 5.6004-0.6791 5.9087 0.0295 0.0376 0.0682 0.0672 0.1114 0.0865 0.0438 0.0194 0.0916 0.0274 0.1394 0.0234 0.0426-0.0034 0.095-0.0342 0.0483-0.0097-0.2957 0.1259-0.5596 0.3174-0.7712 0.5595-6.2859-1.1229-9.0512 2.3399-19.294 0.7492-2.3097-0.3561-6.3047-2.0362-7.9978 0.6905-0.1001 0.1647-0.19 0.3344-0.2691 0.5093-0.1911-0.707-0.3497-1.4983-0.5118-2.3358-0.5688-2.9057-0.7434-3.4389-1.8564-5.7418-0.8276-1.7092-1.6085-3.3266-1.3867-5.3554 0.5551-5.0307 4.3709-9.1516 6.2848-13.788 2.2892-5.6471 1.7534-8.1263 3.1929-10.067 0.3481-0.4309 0.7878-0.7782 1.2877-1.0163 0.4994-0.2381 1.0459-0.361 1.5993-0.3596 0.1405 0 1.2786 0.0718 1.3651 0.0906 0.2223 0.6547 0.3725 1.3317 0.4476 2.0192 0.0699 0.9924 0.3657 1.9557 0.8656 2.8153-0.0614 0.0216-0.1137 0.0638-0.1473 0.1196-0.4061 0.6945-0.4721 1.8927-0.6074 2.6094-0.1354 0.7167-0.2844 1.6852-0.3982 2.6703-0.2155 1.5958-0.0472 3.2195 0.492 4.7362 1.0033 2.6481 3.9813 3.1107 6.1772 1.3838 2.3985-1.8835 3.3967-4.1937 5.0841-7.7363 2.3194-4.8681 4.5398-9.6282 6.4321-14.518 0.7894 0.18 1.402-0.0262 1.9588 0.8546 0.2582 0.5107 0.6023 0.9732 1.0169 1.3674 1.1051 0.7389 2.3404 1.2608 3.64 1.5382 4.2566 1.1132 9.8844 2.2914 12.46 5.9331 0.0216 0.0309 0.0489 0.0572 0.0802 0.0774 0.0319 0.0202 0.0671 0.034 0.1041 0.0405 0.037 0.0064 0.0751 0.0055 0.1115-0.0028 0.0369-0.0082 0.0711-0.0237 0.1018-0.0454s0.0569-0.0493 0.0768-0.0812 0.0335-0.0674 0.0392-0.1044c0.0063-0.0371 0.0051-0.075-0.0034-0.1117-0.0085-0.0365-0.0239-0.0711-0.0461-0.1016l0.0017 0.0011zm-88.487 23.769c-0.46695 1.3611-0.09271 2.5894-0.12741 3.967-0.28557-0.8369-0.51022-1.6937-0.67226-2.5637-0.24457-2.0698 0.58411-4.134 1.2894-6.0722 0.2045-0.7167 0.5448-1.3879 1.0022-1.9764 0.7177-0.7799 1.6323-0.613 1.7136 0.4906 0.0995 1.3103-0.8156 2.5814-1.1978 3.9311-0.8292 0.6461-1.6465 1.1805-2.0077 2.2236zm15.92 9.9783c2.9575-2.4675 3.0792 0.8671 4.4971 2.0783 1.3753 1.172 3.2095 1.5708 4.8447 2.3798 0.1687 0.9361 0.2803 1.8818 0.3344 2.831-1.9337-1.6163-3.4756-3.129-5.3952-4.3664-0.3936-0.261-1.8735-1.1896-2.3484-1.2141 0.0057-0.5065 0-1.0381-0.0261-1.6283-0.0053-0.0746-0.0388-0.1442-0.0938-0.1949s-0.1272-0.0786-0.202-0.078c-0.0373 0.0017-0.074 0.0108-0.1079 0.0262-0.0339 0.0159-0.0644 0.0382-0.0897 0.0661-0.0253 0.0273-0.045 0.0598-0.0578 0.0946-0.0129 0.0353-0.0186 0.0729-0.017 0.1099 0.0216 0.5088 0.0279 0.9686 0.0261 1.4141-0.5145-0.4484-0.9727-0.9583-1.3644-1.5183zm9.7069 7.9733c0.0246 0.8347-6e-4 1.6705-0.0756 2.5017-2.2324-1.4346-4.215-2.5068-6.1107-3.9471-0.5998-0.4467-1.1567-0.9486-1.6636-1.4995 0.0043-0.0621-0.0125-0.1242-0.0477-0.1761-0.0352-0.0512-0.0867-0.09-0.1463-0.1088 0.1459-0.8141 0.2322-1.6379 0.2583-2.4652 0.717 0.3065 1.4027 0.6814 2.0475 1.1195 1.9935 1.2859 3.7191 2.9979 5.5544 4.5094 0.0516 0.0433 0.1166 0.0667 0.1837 0.0661zm6.7193 10.79c-0.8835 0.2638-1.7936 0.4279-2.7135 0.4883-1.1022 0.0182-2.2013-0.1225-3.2635-0.4182-2.0595-0.466-2.3757-0.4905-3.7817-0.27-0.877 0.1373-1.7063 0.2672-2.5378-0.237-0.8053-0.4872-1.2063-1.3138-1.6312-2.1901-0.8736-1.8015-1.299-2.3119-3.4324-3.3865-0.6973-0.3087-1.3468-0.7167-1.9286-1.2106-1.133-1.0535-1.4691-2.7769-1.6494-4.3237-0.0569-0.4979-0.3088-1.9166-0.0103-2.3655 1.2604 1.1731 3.5531 3.6685 3.9102 3.7682-0.1472 0.184-0.3051 0.3589-0.4726 0.5241-0.181 0.1311-0.3711 0.2484-0.5688 0.3515-0.0431-0.0102-0.0882-0.0108-0.1316-0.0011s-0.0838 0.0296-0.1181 0.0581-0.0615 0.0644-0.0793 0.1054c-0.0179 0.0405-0.026 0.0849-0.0236 0.1294 0.0059 0.0586 0.0267 0.1139 0.0602 0.1618 0.0336 0.0478 0.0789 0.0866 0.1315 0.1116 0.1305 0.0319 0.2681 0.0154 0.3873-0.0467-0.0037 0.0946 0.0105 0.1886 0.0421 0.2775 0.4644 0.9064 1.1202 1.7006 1.9218 2.3273 1.8792 1.5508 3.8911 2.9318 6.0123 4.1282 0.0656 0.0359 0.1425 0.0445 0.2142 0.0234 0.0717-0.0205 0.1324-0.0684 0.169-0.1339 0.0367-0.0649 0.0463-0.1418 0.0269-0.2136-0.0195-0.0724-0.0664-0.1339-0.1308-0.1721-2.0933-1.1805-4.0786-2.5438-5.9327-4.0741-0.7216-0.5669-1.3178-1.2779-1.7506-2.0881 0.0028-0.127-0.0112-0.2546-0.0415-0.3788 0.4875-0.3977 0.8994-0.8797 1.2159-1.4244 0.4016 1.1093 1.5749 1.9941 2.3609 2.5792 1.8385 1.3639 3.76 2.6116 5.7536 3.7351 0.0426 0.024 0.0905 0.0365 0.1393 0.0365 0.063 6e-4 0.1242-0.0205 0.1741-0.0587 0.0499-0.0387 0.0857-0.0923 0.1016-0.1532 0.0161-0.0616 0.0114-0.1259-0.0132-0.184-0.0246-0.0582-0.0677-0.106-0.1226-0.1374-1.972-1.1109-3.8729-2.3444-5.6915-3.6929-0.7445-0.5572-1.8701-1.3987-2.1897-2.3707-0.0179-0.0541-0.0517-0.1014-0.0969-0.1361-0.0452-0.0348-0.0998-0.0553-0.1568-0.0587 0.4298-0.7321 0.7402-1.528 0.9197-2.3587 1.8246 2.0089 5.4265 3.9049 8.0718 5.6278-0.1866 1.7422-0.6209 3.448-1.29 5.0666-0.0369 0.0661-0.0462 0.1441-0.0258 0.217 0.0203 0.0724 0.0687 0.1339 0.1345 0.171 0.0657 0.037 0.1435 0.0467 0.2161 0.0262 0.0727-0.0205 0.1342-0.069 0.1712-0.1351 0.1233-0.2187 0.2239-0.45 0.3003-0.6899 1.234-3.5158 1.5418-7.292 0.8935-10.962 0.775 0.421 1.4784 0.9628 2.0839 1.6043 0.1314 0.1407 0.2884 0.4923 0.5233 0.4923 0.0702-0.0023 0.1374-0.0285 0.1906-0.0747 0.0531-0.0456 0.0891-0.1082 0.102-0.1777 0.0128-0.069 0.0018-0.1408-0.0314-0.2023-0.0331-0.0621-0.0863-0.1111-0.1509-0.139-0.0681-0.0997-0.1412-0.1954-0.219-0.2883-0.9542-0.9896-2.1007-1.7735-3.3687-2.3034 0.1476-0.4079 0.2735-0.8233 0.3771-1.2449 2.5201 1.6864 4.7525 1.5252 6.4838 2.5689 2.5871 1.6819 5.0403 3.5614 7.3369 5.6227-1.3041 4.6188-3.4222 7.1171-6.8711 8.0998zm19.358-7.3067c0.091 0.8546 0.1985 1.6636 0.314 2.3586-2.5219 0.1778-5.0534 0.1732-7.5747-0.0125-0.9635-0.0507-2.254 0.0444-2.9518-0.5617-0.3657-0.8535-0.6-1.7582-0.6945-2.6829 2.8347 0.6917 7.5588 0.9862 10.718 0.9748 0.0706-6e-4 0.1382-0.0279 0.1894-0.0763zm-0.2576-3.2657c0.05 0.9332 0.1223 1.8938 0.2138 2.819-0.0438-0.0285-0.0949-0.045-0.1473-0.0467-3.0712 0.0074-7.9489-0.2803-10.776-1.0022-0.0728-0.8785-0.107-1.7661-0.1075-2.6492 0.9424 0.3458 1.9332 0.5412 2.9359 0.5794 2.6179 0.2672 5.2507 0.3675 7.8812 0.2997zm-10.773-4.5094c1.1477 0.078 9.6119 0.7862 10.729 0.8802-0.0364 0.8546-0.0307 1.8801 0.0165 3.0594-2.6043 0.0644-5.2098-0.0347-7.8016-0.2973-0.9976-0.0912-2.2369-0.2052-2.9928-0.6541 0.0046-1.4363-0.0358-1.8095 0.049-2.9882zm22.238-52.104c0.3276 0.1492 0.6194 0.3671 0.8554 0.6388 0.2361 0.2717 0.4118 0.5911 0.5142 0.9364 0.4965 1.3421 0.8497 2.7332 1.0528 4.15 0.315 1.7491 0.3105 1.6699 0.3913 1.7434-0.7963 0.9981-1.6494 1.9581-2.5412 2.8742-0.1473-2.051-0.1985-4.0667-0.8139-5.9086-0.2679-0.8258-0.7627-1.559-1.4282-2.1155 0.5466-0.711 1.0955-1.4778 1.6648-2.3255 0.1001 0.0243 0.2036 0.0263 0.3048 0.0068zm-0.2582 10.89c-0.7786 0.7596-1.6073 1.4656-2.4809 2.1132-1.1762-2.2727-0.9879-5.5463-2.2369-7.3233 0.9544-0.8938 1.8376-1.8609 2.6413-2.8926 0.145 0.056 0.2707 0.1523 0.3623 0.2775 0.3919 0.4564 0.6944 0.9827 0.8918 1.5514 0.6546 1.957 0.6444 4.1772 0.8224 6.2738zm-13.18-4.6837c-1.3309 0.0775-2.1556-1.1617-2.8944-2.2789-0.4937-0.7452-0.4766-0.7606-1.0397-1.0945-0.2542-0.1042-0.4777-0.271-0.6506-0.4848s-0.289-0.4677-0.3379-0.7383l-0.0034-0.0103c1.4731-0.6222 2.1613-1.6738 3.1088-3.2964 0.0313-0.0648 0.037-0.139 0.0165-0.2079-0.021-0.0688-0.0677-0.1271-0.1297-0.1632s-0.1359-0.0473-0.2059-0.0313c-0.0699 0.016-0.1313 0.058-0.1717 0.1175-0.997 1.7092-1.6625 2.7991-3.5468 3.3158-0.1825 0.0616-0.3771 0.0807-0.5682 0.0558s-0.3736-0.093-0.5346-0.1993c-0.5522-0.4632 8e-3 -1.7428-1.0169-2.3388-1.0733-0.6204-3.0457-0.2558-3.4558-1.4197-0.4135-1.1931 1.7558-2.9729 1.8684-4.514 0.1649-2.165-1.7012-3.0885-1.5743-6.3929 0.0187-1.3386 0.2929-2.661 0.8076-3.8964 0.0199-0.04 0.0296-0.0842 0.029-0.1288 1.1643 0.1469 2.2824 0.5496 3.2732 1.1794 3.5371 1.994 7.6782 5.7542 12.338 5.0199 0.0603 0.1709 0.0728 0.2119 0.2065 0.5896 0.0267 0.0688 0.0785 0.1246 0.145 0.1558 0.0672 0.0311 0.1434 0.0351 0.2127 0.0111 0.07-0.024 0.1274-0.0741 0.161-0.1397 0.0336-0.0657 0.0404-0.1418 0.0188-0.2123-0.3925-1.1435-0.7394-2.2738-0.1792-3.3426 0.9726-1.8488 3.2084-1.1218 3.9665 0.5008 0.269 0.496 0.4135 1.0499 0.4226 1.6143 0.0085 0.5644-0.1189 1.1225-0.372 1.6268-0.5039 0.841-1.2962 1.4506-1.6806 2.4692-0.7491 1.9992-0.0069 4.3562 0.501 5.58 0.4613 1.1485 1.2996 2.4429 2.5401 2.4429 0.5585-0.0402 1.0971-0.2281 1.5595-0.5446-1.3548 2.1522-2.9706 4.1275-4.8111 5.8807-0.0648 0.0014-0.1274 0.0264-0.1752 0.0702-0.0483 0.044-0.0784 0.1038-0.0858 0.1686-0.5608 0.5727-1.2667 0.9817-2.0419 1.1833-0.029-0.057-0.8292-1.0979-1.2165-1.5246-0.4829-0.5321-0.3202-0.3304-0.5455-0.6028 1.737-1.4636 3.3557-3.0486 4.9482-4.5225 0.0273-0.0253 0.0495-0.0558 0.0654-0.0898 0.0159-0.0339 0.0245-0.0706 0.0262-0.108s-4e-3 -0.0747-0.0171-0.1098-0.0324-0.0674-0.0574-0.0949c-0.0256-0.0276-0.0558-0.0498-0.0899-0.0656-0.0341-0.0157-0.0705-0.0246-0.1081-0.0262-0.0369-0.0016-0.0745 0.0043-0.1092 0.0171-0.0352 0.0129-0.0676 0.0325-0.0949 0.0579-2.2694 2.0966-5.091 4.8996-6.9582 6.0146-0.4675 0.287-0.9964 0.4608-1.543 0.5076zm12.528 13.377c-1.6112 3.3825-2.6196 5.7258-4.922 7.5341-1.9076 1.4989-4.4311 1.1394-5.2945-1.1395-1.0397-2.7432-0.302-5.3759 0.0301-7.7289 0.049-0.6159 0.1968-1.2204 0.4386-1.7895 0.4208 0.4233 0.9361 0.7389 1.5037 0.9212 0.0711 0.0234 0.1485 0.0171 0.215-0.0165 0.0671-0.0342 0.1178-0.0929 0.1416-0.1641 0.0239-0.0706 0.0188-0.1481-0.0142-0.2153-0.033-0.0678-0.091-0.1191-0.1615-0.1442-2.42-0.8141-2.0794-3.07-2.5742-5.0532-0.3412-1.3377-0.7331-1.8334-0.8139-3.3483 0.0034-0.3931 0.1644-1.6437 0.8361-2.2219 0.0404-0.0363 0.0688-0.0837 0.0819-0.1362 0.5244-0.3237 1.0238-0.6855 1.4953-1.0825 0.5767 0.5724 1.1033 1.1928 1.5748 1.8544-0.4442 0.0287-0.8906 0.0113-1.3314-0.0518-0.0745-0.0108-0.1507 0.0086-0.211 0.0538-0.0603 0.0453-0.1007 0.1127-0.1109 0.1875-0.0108 0.0748 0.0085 0.1508 0.0534 0.2113 0.045 0.0605 0.1126 0.1007 0.1872 0.1115 0.3708 0.0544 0.7456 0.0773 1.1204 0.0683-0.1757 0.6537-0.2548 1.3298-0.2338 2.0066 0.0927 1.9547 1.0989 3.828 2.1209 5.5788 0.0188 0.0328 0.0432 0.0617 0.0734 0.0848 0.0296 0.0231 0.0637 0.0401 0.1001 0.0499s0.0745 0.0123 0.112 0.0073c0.037-5e-3 0.0728-0.0174 0.1058-0.0365 0.0324-0.0191 0.0609-0.0444 0.0836-0.0746 0.0228-0.0301 0.0387-0.0645 0.0484-0.1011 0.0091-0.0366 0.0108-0.0747 0.0057-0.112-0.0057-0.0374-0.0188-0.0732-0.0381-0.1055-0.988-1.6836-1.9549-3.489-2.0419-5.3099-0.054-0.6912 0.0501-1.3857 0.3043-2.0305 0.8918-0.1274 1.725-0.5182 2.3939-1.1224 0.0745-0.0655 0.1524-0.1322 0.2275-0.1983 1.1239 1.6733 0.9527 4.9413 2.2022 7.2749-1.2564 0.9459-2.6589 1.6795-4.1519 2.1716-0.0677 0.0165-0.1268 0.0575-0.1666 0.1145s-0.0569 0.127-0.0489 0.196c0.0079 0.0695 0.0415 0.1333 0.0932 0.1794 0.0524 0.0462 0.1195 0.0718 0.1889 0.0718 0.3423-0.0706 0.6768-0.1743 0.9987-0.3105 1.2859-0.5659 2.5048-1.2729 3.6355-2.1077 2.8762-2.079 4.9919-4.5904 7.1356-7.3837 0.0233-0.0296 0.0409-0.0636 0.0511-0.1 0.0103-0.0364 0.0131-0.0744 0.0086-0.112-0.0046-0.0375-0.0165-0.0737-0.0353-0.1065s-0.0438-0.0616-0.0739-0.0846c-0.0302-0.023-0.0643-0.0399-0.1007-0.0495-0.0364-0.0097-0.0745-0.0119-0.112-0.0067-0.037 0.0052-0.0734 0.0178-0.1058 0.0371s-0.0603 0.0449-0.0831 0.0752c-0.2639 0.3418-0.5295 0.6803-0.7962 1.017-0.3891-1.9331-0.612-3.832-1.332-5.5731-0.3982-1.1611-1.3292-1.8972-1.8377-1.9336 0.4396-0.6712 0.3668-0.555 0.3924-0.6239 0.2708-0.15 0.5705-0.2392 0.8788-0.2613 0.3082-0.0222 0.6182 0.0233 0.9071 0.1331 0.0108 0.0652 0.0438 0.1245 0.0939 0.1675 0.6376 0.5276 1.2552 1.8232 1.6209 2.8584 0.3134 0.9058 0.4738 2.7785 1.505 3.3859-0.3777 0.891-1.4839 4.2222-6.3741 14.484z" fill="#1C3B67"/>
<path d="m51.514 21.483c-0.3788-0.4467-0.9351-0.2815-0.9772 0.0239-0.0369 0.2633 0.0023 0.5317 0.1138 0.7731 0.2372 0.5248 0.8844 1.4694 1.3559 1.0939 0.2577-0.2 0.1536-0.5646 0.1041-0.7372-0.1115-0.424-0.3151-0.8179-0.5966-1.1537z" fill="#1C3B67"/>
<g clip-path="url(#b)">
<path d="m19.417 25.396c-10.707 0-19.417 7.0361-19.417 15.682 0 7.9762 7.0668 13.807 15.106 15.286l0.7309 3.6833c0.0112 0.0576 0.0401 0.1104 0.0824 0.151 0.0413 0.0403 0.0939 0.0671 0.1507 0.0769 0.0573 0.0087 0.1158-2e-4 0.1678-0.0257 0.0523-0.0244 0.0959-0.0641 0.1252-0.1139l1.9735-3.4184c11.688 0.5156 20.495-7.1216 20.495-15.653 0-8.6314-8.7105-15.668-19.414-15.668z" fill="#fff"/>
<path d="m19.417 25.396c-10.707 0-19.417 7.0361-19.417 15.682 0 7.9762 7.0668 13.807 15.106 15.286l0.7309 3.6833c0.0112 0.0576 0.0401 0.1104 0.0824 0.151 0.0413 0.0403 0.0939 0.0671 0.1507 0.0769 0.0573 0.0087 0.1158-2e-4 0.1678-0.0257 0.0523-0.0244 0.0959-0.0641 0.1252-0.1139l1.9735-3.4184c11.688 0.5156 20.495-7.1216 20.495-15.653 0-8.6314-8.7105-15.668-19.414-15.668zm8.5768 29.124v-0.0598c-0.1937 0.095-0.3932 0.1777-0.5972 0.2478-0.0029 0.017-0.0029 0.0343 0 0.0513-2.9369 1.0954-6.0676 1.5725-9.1968 1.4015-0.0524-0.0027-0.1046 0.0091-0.1507 0.0342-0.0452 0.0255-0.0826 0.063-0.1081 0.1083l-1.6835 2.9027-0.6228-3.1335c-0.011-0.0563-0.0388-0.1079-0.0796-0.1481-0.0398-0.0408-0.0916-0.0677-0.1479-0.0769-2.6591-0.4487-5.2071-1.4061-7.5047-2.8202v-0.0342c-0.20685-0.1104-0.40463-0.2371-0.59151-0.3788v0.0285c-4.2884-2.8772-6.7426-7.0647-6.7426-11.566 0-8.3323 8.4545-15.112 18.849-15.112 10.394 0 18.846 6.7798 18.846 15.112 0 5.6403-4.0182 10.87-10.269 13.443z" fill="#1C3B67"/>
<g clip-path="url(#a)">
<path d="m32.883 32.603c-0.0077-0.0074-0.0137-0.0165-0.0176-0.0265-0.0586-0.185-22.71 0.1135-27.184 0.2211-0.15338-0.0075-0.30482 0.0369-0.43017 0.1261s-0.21738 0.2181-0.2614 0.3661c-0.14139 0.4318-0.06374 14.113 0.04176 15.195 0.00879 0.0914 0.10476 0.1024 0.11355 0 0.03956-0.4569 0.04029-2.9696 0.04322-8.8729v-6.0204c0-0.5696 0.42784-0.5637 1.3245-0.5504 0.18754 0 0.39487 0.0059 0.62417 0 25.93-0.2181 25.872-0.2874 25.746-0.4385z" fill="#191919"/>
<path d="m33.642 33.378c-5e-4 -0.014-0.0038-0.0277-0.0098-0.0404-0.0059-0.0127-0.0143-0.024-0.0246-0.0333-0.0152-0.0137-0.0339-0.0228-0.054-0.0261s-0.0407-7e-4 -0.0594 0.0075c-0.0187 0.0081-0.0347 0.0215-0.046 0.0385s-0.0175 0.037-0.0179 0.0575c-0.0176 0.1407-0.1583 10.767-0.0806 15.063v0.0678c-0.0066 0.101-0.0147 0.2152 0.1216 0.2211 0.1465 0.0074 0.1414-0.1142 0.1355-0.2152-1e-3 -0.0206-1e-3 -0.0413 0-0.0619 0.0799-3.2445 0.0806-14.859 0.0352-15.078z" fill="#191919"/>
<path d="m6.921 33.488c-0.06105 0.0037-0.11818 0.0315-0.15897 0.0772-0.03064 0.0332-0.0508 0.0747-0.05794 0.1194-0.00714 0.0446-9.4e-4 0.0904 0.01782 0.1315s0.04924 0.0758 0.08758 0.0995 0.08283 0.0355 0.12784 0.0339c0.04501-0.0017 0.08853-0.0167 0.12505-0.0431 0.03652-0.0265 0.06442-0.0633 0.08015-0.1056 0.01574-0.0424 0.01861-0.0885 0.00826-0.1325-0.01035-0.0441-0.03346-0.084-0.06642-0.1148-0.04371-0.0427-0.10244-0.0662-0.16337-0.0655z" fill="#191919"/>
<path d="m7.6812 49.324h26.227c0.0044-0.1037 0.0088-0.2082 0.0147-0.3119-2.1319 0.1435-8.1575 0.1015-14.629 0.0559-2.096-0.0147-6.5201 0.0118-10.354 0.0346l-2.3421 0.014c0.35018 0.0816 0.70402 0.1471 1.0608 0.2037l0.02271 0.0037z" fill="#191919"/>
<path d="m5.6584 33.789c0.0023 0.0886 0.03889 0.1728 0.10198 0.2346s0.14768 0.0963 0.23575 0.0963c0.08818 4e-4 0.17299-0.034 0.23616-0.0959s0.09965-0.1463 0.10157-0.235c-0.01246-0.4325-0.68864-0.4775-0.67546 0z" fill="#191919"/>
<path d="m25.946 34.321c2.6161-0.0044 5.5297 0.0103 5.7348 0.084 0.1597 0.0575 0.1597 0.1076 0.1531 0.6566 0 0.1871-0.0059 0.4333 0 0.7567v0.0524c0 0.3279 0.0169 1.8945 0 1.966-0.0157 0.1141-0.069 0.2197-0.1513 0.2998-0.0824 0.0801-0.189 0.1302-0.3029 0.1423-0.767 0.0671-3.5048 0-3.504-0.0044 8e-3 -0.0206-0.9773-0.0177-2.1619-0.0088-0.119 0.0836-0.2444 0.1575-0.3751 0.221 2.0168 0.0133 4.1575 0.0126 5.7143-0.0162h0.0732c0.2293 0.0044 0.6594 0.0118 0.8689-0.4524 0.0644-0.1474 0.0681-0.1894 0.0644-1.3404 0-0.2358-0.0109-1.8334-0.0161-2.0692 0.0022-0.0845-0.0213-0.1677-0.0672-0.2385s-0.1122-0.1259-0.1899-0.158c-0.0515-0.0207-0.1065-0.0309-0.1619-0.0302h-0.0051c-0.1466 0-3.2235-0.0339-5.9216-0.0427 0.0865 0.0553 0.1695 0.1161 0.2483 0.182zm-2.9604-0.1791c-0.5927 0.0052-1.0366 0.014-1.2403 0.0288-0.3414 0.0243-0.663 0.2903-0.6593 0.871 0 0 0 2.501 0.0146 2.9822-1e-3 0.0549 9e-3 0.1096 0.0293 0.1606 0.0199 0.0508 0.0495 0.0971 0.0873 0.1363 0.0377 0.0392 0.0827 0.0705 0.1325 0.0921 0.0505 0.0208 0.1044 0.0316 0.159 0.0317l1.1187 0.0155c0.0158-0.0585 0.0357-0.1159 0.0593-0.1717h-0.8696c-0.1221-0.0032-0.2428-0.0264-0.3575-0.0685-0.1641-0.0582-0.1634-0.1025-0.1509-0.7436 8e-3 -0.4472 0.022-1.1849-0.0117-2.4199-0.0074-0.0895-0.0044-0.1795 0.0087-0.2682 0.0177-0.1144 0.0726-0.2196 0.1561-0.2992 0.0838-0.0792 0.1917-0.1277 0.3062-0.1378 0.0381 0 0.3927-0.0096 0.9473-0.0147 0.0862-0.0702 0.1764-0.1352 0.2703-0.1946z" clip-rule="evenodd" fill="#191919" fill-rule="evenodd"/>
<path d="m28.741 35.066c0.0058-0.1015-0.033-0.0809-1.677-0.0809 0 0-0.3142 0-0.6593-0.0051l0.0864 0.1677c2.244 0.0059 2.244 0.0213 2.2499-0.0817z" fill="#191919"/>
<path d="m27.746 35.93c0.0037-0.0882 0.0037-0.0897-1.0425-0.0875l0.0227 0.1743c1.0161 0.0059 1.0161 0 1.0198-0.086v-8e-4z" fill="#191919"/>
<path d="m30.78 35.004c0.1092 0.0117 0.1026 0.1272 0.0037 0.1405-0.0579 0.0081-1.685 0.011-1.7487 0-0.0975-0.0199-0.1224-0.1369 8e-3 -0.1471 0.1121-0.014 1.7348 0.0066 1.737 0.0066z" fill="#191919"/>
<path d="m29.374 36.866c0.1465 0.2947 0.063 0.2358 0.3861 0.2829 0.0135 0.0019 0.0262 0.0075 0.0366 0.0162 0.0076 0.0067 0.0137 0.0148 0.018 0.0239s0.0067 0.0191 0.0071 0.0291c3e-4 0.0101-0.0014 0.0202-0.0051 0.0296s-0.0092 0.0179-0.0163 0.025c-0.2337 0.2299-0.2029 0.1341-0.1465 0.4584 0.0022 0.0134 7e-4 0.0272-0.0044 0.0398-0.0051 0.0123-0.0135 0.023-0.0242 0.0309-0.011 0.0079-0.0239 0.0127-0.0374 0.014-0.0134 7e-4 -0.0267-0.0021-0.0388-0.0081-0.2886-0.1533-0.189-0.1533-0.4776 0-0.0121 6e-3 -0.0254 0.0088-0.0389 0.0081-0.0135-8e-4 -0.0265-0.0057-0.0373-0.014-0.0107-0.0079-0.0191-0.0186-0.0242-0.0309-0.0051-0.0126-0.0066-0.0264-0.0044-0.0398 0.0549-0.3243 0.0857-0.2285-0.1465-0.4584-0.0093-0.0095-0.0159-0.0214-0.0189-0.0344-0.0031-0.0129-0.0027-0.0265 0.0013-0.0393 0.0042-0.0128 0.0118-0.0243 0.022-0.0331 0.01-0.0089 0.0226-0.0146 0.0359-0.0162 0.3223-0.0479 0.2425 0.011 0.3868-0.283 0.0055-0.0123 0.0147-0.0227 0.0264-0.0295 0.0114-0.0071 0.0246-0.0109 0.0381-0.011 0.0135-2e-4 0.0267 0.0036 0.038 0.011 0.0104 0.0073 0.0188 0.0172 0.0242 0.0288z" fill="#0167FF"/>
<path d="m30.633 36.866c0.1465 0.2948 0.0638 0.2358 0.3861 0.283 0.0136 0.0015 0.0264 0.0071 0.0366 0.0162 0.0105 0.0086 0.0182 0.0201 0.022 0.0332 4e-3 0.0132 4e-3 0.0273 0 0.0405-0.0033 0.0131-0.0101 0.0251-0.0198 0.0346-0.2337 0.2292-0.2029 0.1334-0.1465 0.4576 0.0026 0.0138 0.0013 0.0281-0.0039 0.0412-0.0052 0.013-0.014 0.0243-0.0254 0.0325-0.0108 0.0083-0.0238 0.0132-0.0373 0.014-0.0132 8e-4 -0.0264-2e-3 -0.0381-0.0081-0.2931-0.1533-0.1891-0.1525-0.4784 0-0.012 0.0061-0.0254 0.0089-0.0389 0.0081-0.0135-0.0011-0.0264-0.0059-0.0373-0.014-0.0109-0.0077-0.0194-0.0184-0.0242-0.0309-0.0051-0.0126-0.0066-0.0264-0.0044-0.0398 0.0557-0.3235 0.0857-0.2285-0.1465-0.4576-0.0095-0.0099-0.0163-0.0221-0.0198-0.0354-0.0036-0.013-0.0036-0.0268 0-0.0398 0.0043-0.0128 0.0119-0.0242 0.022-0.0332 0.0103-0.0086 0.0227-0.0142 0.0359-0.0162 0.3231-0.0479 0.2425 0.0111 0.3868-0.2829 0.0058-0.0124 0.0153-0.0227 0.0271-0.0295 0.0113-0.0074 0.0246-0.0113 0.0381-0.0111 0.0135 1e-4 0.0266 0.0039 0.0381 0.0111 0.0116 6e-3 0.0213 0.0152 0.0278 0.0265z" fill="#0167FF"/>
<path d="m28.115 36.864c0.1465 0.2947 0.0637 0.2358 0.3868 0.2829 0.0134 0.0019 0.0261 0.0075 0.0366 0.0163 0.0101 0.0089 0.0177 0.0203 0.022 0.0331 0.0038 0.0129 4e-3 0.0265 6e-4 0.0395-0.0033 0.013-0.0101 0.0248-0.0197 0.0342-0.2329 0.2292-0.2022 0.1334-0.1465 0.4576 0.0022 0.0134 7e-4 0.0272-0.0044 0.0398-0.0052 0.0124-0.0137 0.0232-0.0245 0.0311-0.0109 8e-3 -0.0237 0.0127-0.037 0.0139-0.0134 6e-4 -0.0268-0.0022-0.0389-0.0082-0.2886-0.1532-0.189-0.1525-0.4776 0-0.0121 6e-3 -0.0254 0.0088-0.0388 0.0082-0.0136-9e-4 -0.0266-0.0058-0.0374-0.014-0.0111-0.0075-0.0196-0.0184-0.0242-0.031-0.0051-0.0126-0.0066-0.0264-0.0044-0.0398 0.055-0.3235 0.0857-0.2284-0.1465-0.4576-0.0095-0.0098-0.0161-0.022-0.019-0.0354-4e-3 -0.0129-4e-3 -0.0268 0-0.0398 0.0041-0.0128 0.0117-0.0243 0.0219-0.0331 0.0103-0.0086 0.0227-0.0142 0.0359-0.0162 0.3224-0.0479 0.2425 0.011 0.3868-0.283 0.0056-0.0124 0.0148-0.0227 0.0264-0.0295 0.0115-0.0071 0.0247-0.0109 0.0381-0.011 0.0135-2e-4 0.0268 0.0036 0.0381 0.011 0.0116 0.0073 0.0206 0.0182 0.0257 0.031z" fill="#0167FF"/>
<path d="m26.475 37.45c0.0025 0.0047 0.0047 0.0097 0.0066 0.0147 0.0147 0.0457-0.0073 0.1024-0.0344 0.2646-0.0028 0.0133-0.0016 0.0272 0.0036 0.0397 0.0053 0.0126 0.0139 0.0234 0.0249 0.0314 0.011 0.0079 0.0239 0.0126 0.0374 0.0136 0.0134 6e-4 0.0268-0.0022 0.0388-0.0081 0.1466-0.0737 0.1913-0.115 0.2389-0.115s0.0945 0.0384 0.2388 0.115c0.012 6e-3 0.0254 0.0088 0.0388 0.0081 0.0134-0.0011 0.0262-0.0059 0.037-0.0138 0.0109-0.0079 0.0194-0.0187 0.0246-0.0312 5e-3 -0.0126 0.0066-0.0263 0.0044-0.0397-0.0279-0.1622-0.0491-0.2211-0.0345-0.2646 0.0147-0.0435 0.0652-0.0788 0.1817-0.1931 0.0099-0.0094 0.017-0.0213 0.0205-0.0346 0.0033-0.0133 0.0033-0.0272 0-0.0405-0.0043-0.013-0.0122-0.0245-0.0227-0.0332-0.0101-0.0089-0.0226-0.0145-0.0359-0.0162-0.1612-0.0236-0.2198-0.0206-0.2601-0.0486s-0.0556-0.0855-0.1282-0.2329c-0.0055-0.0123-0.0147-0.0226-0.0263-0.0295-0.0112-0.0064-0.0238-0.0098-0.0367-0.0098-0.0128 0-0.0255 0.0034-0.0366 0.0098-0.0116 0.0069-0.0209 0.0172-0.0264 0.0295-8e-3 0.0162-0.0154 0.0317-0.0227 0.0457-0.0557 0.1881-0.1334 0.369-0.2315 0.5387z" clip-rule="evenodd" fill="#0167FF" fill-rule="evenodd"/>
<path d="m24.951 33.828c-2.0373-0.5291-4.0659 1.7973-2.8029 3.8075 0.1198 0.2011 0.2747 0.3789 0.4572 0.5247 0.0732 0.0612 0.1099 0.0906 0.0915 0.14-0.0659 0.168-0.1164 0.2999-0.0241 0.3788 0.0103 0.0068 0.0191 0.0159 0.0256 0.0265 0.022 0.0457-0.0586 0.1407-0.4249 0.8378-0.1092 0.2078-0.8674 1.6544-0.967 1.8857-0.0601 0.1393 0.2483 0.4569 0.586 0.3611 0.1151-0.0331 1.3847-2.5865 1.4337-2.6963 0.022-0.0479 0.0528-0.0412 0.0931-0.0331 0.038 0.0118 0.0789 0.0104 0.1161-0.0038 0.0372-0.0143 0.0685-0.0408 0.089-0.0751 0.0406-0.0512 0.0745-0.1074 0.1011-0.1672 0.0308-0.0656 0.0447-0.0951 0.1297-0.0804 1.3919 0.2439 2.9611-0.8739 2.9523-2.5607-0.0021-0.4021-0.1047-0.7972-0.2984-1.149s-0.4722-0.649-0.81-0.8641c-0.0329-0.0214-0.0659-0.0413-0.0989-0.0612l-0.1348 0.0973c0.5153 0.2774 0.9012 0.7478 1.074 1.3094 0.4909 1.5224-0.6637 3.0478-2.2058 3.1112-1.7583 0.0737-2.9304-1.6831-2.2081-3.2762 0.2335-0.5146 0.6376-0.9315 1.1431-1.1792 0.5054-0.2478 1.0808-0.311 1.6276-0.1789 0.0212-0.0568 0.0396-0.1084 0.0549-0.1548zm-2.7538 6.9577 0.1385-0.2689c0.0154-0.0295 0.03-0.0575 0.0432-0.084 0.1707-0.3287 0.1941-0.3744 0.1465-0.4002s-0.1824 0.2329-0.3355 0.535c-0.1172 0.2475-0.2511 0.4865-0.4008 0.7155-0.0125 0.018-0.0292 0.0326-0.0486 0.0426s-0.0409 0.0151-0.0627 0.0149c-0.0256 0-0.0432 0.0037-0.0418 0.0302 0 0.0406 0.0616 0.0479 0.118 0.0546 0.0461 0.0095 0.0681-0.0236 0.0974-0.0678 0.0181-0.0299 0.0395-0.0576 0.0638-0.0826 0.0674-0.0626 0.0923-0.1208 0.282-0.4893zm0.6337-1.2593c0.0447-0.0929 0.0974-0.2041 0.1619-0.3368 0.0806-0.1672 0-0.2277-0.4337 0.6632-4e-3 0.0079-0.0084 0.0155-0.0132 0.0229-0.0198 0.0302-0.041 0.0641 0.0066 0.0884s0.0564 0.0258 0.2784-0.4377zm0.7377-0.7325c0.0059-0.0118 0.0125-0.0236 0.0198-0.0353 0.0403-0.0693 0.011-0.0737-0.0923-0.1069-0.2046-0.056-0.3993-0.1435-0.5773-0.2594-0.0557-0.0346-0.0828-0.0523-0.1018-0.0457-0.0191 0.0067-0.0293 0.0376-0.0506 0.1002-0.0366 0.1084-0.0212 0.157 0.0733 0.2108 0.6146 0.336 0.6286 0.3117 0.7289 0.1363z" clip-rule="evenodd" fill="#0167FF" fill-rule="evenodd"/>
<path d="m24.805 34.212c-0.3044-0.0691-0.62-0.072-0.9257-0.0085-0.3056 0.0636-0.5942 0.1921-0.8464 0.3769-1.4374 1.0464-1.0733 3.1878 0.5289 3.6985 1.8491 0.5895 3.4747-1.3309 2.6373-2.983-0.207-0.4124-0.5464-0.7425-0.9633-0.9366l-0.1121 0.0789c0.8791 0.392 1.4549 1.4001 1.052 2.4804-0.7172 1.921-3.5289 1.711-3.8747-0.2719-0.0679-0.3843-0.022-0.7802 0.1321-1.1385 0.1541-0.3582 0.4096-0.6629 0.7346-0.8762 0.2289-0.1602 0.4883-0.2711 0.7619-0.3255s0.5555-0.0512 0.8278 0.0094c0.0161-0.0302 0.0322-0.0671 0.0476-0.1039z" clip-rule="evenodd" fill="#0167FF" fill-rule="evenodd"/>
<path d="m24.29 34.768c-0.3627 1e-3 -0.7137 0.1286-0.9932 0.3609-0.2795 0.2324-0.4702 0.5552-0.5394 0.9132-0.0387 0.39 0.0679 0.7804 0.299 1.0959 0.2312 0.3154 0.5705 0.5333 0.9523 0.6115 0.8446 0.1783 1.7758-0.4001 1.8952-1.2527 0.1253-0.9101-0.7238-1.7369-1.6139-1.7288zm0.586 1.4635c-0.1142 0.1415-0.2322 0.2896-0.3479 0.4267-0.0601 0.0692-0.1158 0.1363-0.1759 0.2056-0.0322 0.0353-0.06 0.0692-0.0915 0.1098-0.0498 0.0571-0.1171 0.096-0.1912 0.1105-0.0748 0.0147-0.1524 0.0033-0.2198-0.0324-0.0325-0.0201-0.0619-0.045-0.0872-0.0737l-0.0425-0.0413c-0.0286-0.0287-0.0564-0.0531-0.085-0.0825-0.0564-0.0538-0.1011-0.1047-0.1465-0.157-0.0717-0.077-0.1351-0.1615-0.189-0.252-0.0784-0.1371-0.0205-0.1739 0.1238-0.1231 0.0995 0.039 0.196 0.0853 0.2886 0.1386 0.0565 0.0324 0.1246 0.0737 0.1891 0.1179 0.0261 0.0136 0.0507 0.0302 0.0732 0.0493l0.0733-0.0987c0.0561-0.0772 0.1168-0.1511 0.1817-0.2211 0.1161-0.1401 0.2396-0.2739 0.3699-0.4008 0.1847-0.1888 0.3972-0.3479 0.6301-0.4716 0.293-0.1113 0.1018 0.2262-0.3546 0.7987l0.0014-0.0029z" fill="#191919"/>
<path d="m6.8949 46.84c-0.49524-0.098-0.35238-0.5895 0.05641-0.6043 1.5956-0.0692 9.805-0.2122 11.377 0.0737 0.2197 0.0398 0.293 0.3184 8e-3 0.4171-0.537 0.1872-11.199 0.1606-11.441 0.1135z" fill="#191919"/>
<path d="m11.389 45.028c-4.4498 0.0088-4.2491 0-4.5033-0.0118-0.05904 0.0032-0.11768-0.0115-0.16822-0.0424-0.05053-0.0309-0.0906-0.0764-0.11493-0.1306-0.02433-0.0543-0.03179-0.1146-0.02139-0.1732 0.01039-0.0585 0.03815-0.1125 0.07963-0.1549 0.05421-0.0574 0.12868-0.091 0.20733-0.0936 0.73259-0.0825 8.7685-0.2078 10.906-0.053 0.5597 0.0405 0.8168 0.0633 0.8205 0.2851 0.0058 0.353-0.1172 0.3604-7.2058 0.3744z" fill="#0167FF"/>
<path d="m13.206 42.459c4.9245 0.0435 5.4329-0.0272 5.4607 0.3161 0.0279 0.3434-0.2637 0.3316-4.5296 0.3567-7.293 0.0427-7.4571 0.1798-7.482-0.2211-0.01538-0.235 0.17363-0.3551 0.41465-0.3647 2.044-0.0781 4.0894-0.1071 6.1363-0.087z" fill="#0167FF"/>
<path d="m10.856 39.069c0-0.0163-0.2037-1.874-0.4059-2.3404 0.0169-0.0781-0.0359-0.1769-0.1384-0.1474-0.0872 0.0243-0.1649 0.0501-0.2513 0.07-0.0256 0.0059-0.11648-0.1975 0.0088-0.4959 0.0183-0.0435 0.1216-0.1584 0.0432-0.1916-0.36409-0.154-1.633-0.056-2.5692 0.4171-0.20366 0.1031-0.526 0.3419-0.43223 0.5305 0.00879 0.2521 0.68205 2.5239 0.72601 2.6529 0.04395 0.1289 0.08058 0.3198 0.20805 0.3831 0.30257 0.2211 1.0022 0.1577 1.3919 0.0347 0.48702-0.175 0.94474-0.4235 1.3575-0.7369 0.0305-0.0152 0.0541-0.0416 0.0659-0.0737 0.0061-0.0165 0.0088-0.0341 8e-3 -0.0517-7e-4 -0.0176-0.0049-0.0348-0.0124-0.0507zm-2.033-2.8886c0.35968-0.0665 0.72441-0.1016 1.0901-0.1047-0.06013 0.0915-0.09711 0.1964-0.10771 0.3056-0.01059 0.1092 0.00551 0.2193 0.0469 0.3208-1.1223 0.2785-2.422 0.2999-2.5165 0.1577-0.16337-0.1857 1.082-0.5962 1.4872-0.6794zm-0.5956 3.593c-0.00366-0.0405-0.10989-0.3478-0.4674-1.4266-0.12307-0.3729-0.29304-0.9742-0.37142-1.2358 0.07326 0 0.12893 0.1526 1.3919 0.0266 0.51651-0.0485 1.0267-0.1505 1.5224-0.3044 0 0.0192 0.2652 2.193 0.2689 2.2107-0.79345 0.532-1.403 0.8894-2.3444 0.731v-0.0015z" fill="#191919"/>
<path d="m9.765 37.693c-0.143-8e-4 -0.28455 0.0288-0.41538 0.0868-0.29304 0.0787-0.60659 0.0735-0.8989 0.1655-0.0174 4e-3 -0.03277 0.0142-0.04322 0.0287-0.01093 0.0141-0.01687 0.0314-0.01687 0.0493 0 0.0178 0.00594 0.0352 0.01687 0.0493 0.01045 0.0145 0.02582 0.0247 0.04322 0.0286 0.28865 0.0949 0.75971 0.0052 1.0374-0.0691 0.12254-0.0148 0.23903-0.0617 0.33773-0.1361 0.04322-0.064 0.03443-0.1854-0.06081-0.203z" fill="#191919"/>
<path d="m9.4966 38.302c-0.16317 0.0726-0.34025 0.1082-0.51868 0.1044-0.02381-7e-4 -0.04705 0.0074-0.06519 0.0229s-0.0299 0.0373-0.03298 0.061c-0.00318 0.0237 0.00257 0.0478 0.01611 0.0675 0.01355 0.0197 0.03392 0.0337 0.05715 0.0391 0.33919 0.128 0.78315-0.061 0.67472-0.242-0.01503-0.0195-0.03494-0.0347-0.05772-0.044s-0.0476-0.0124-0.07195-0.0089h-0.00146z" fill="#191919"/>
<path d="m18.203 37.574c-0.0908-0.1334-0.2066-0.2498-0.3026-0.3729-0.1721-0.221-0.3252-0.4598-0.5128-0.6698-0.0681-0.1429-0.177-0.2622-0.3128-0.3427-0.1949-0.1422-2.1692-0.2807-2.4601-0.2284-0.5545 0.1002-0.8835 0.5696-1.2241 0.9801-0.0989 0.1186-0.1971 0.2299-0.2931 0.3485-0.0732 0.084-0.1853 0.171-0.1465 0.2896 0.0388 0.1187 0.4257 0.5254 0.5062 0.6522 0.1107 0.1746 0.2718 0.5821 0.5129 0.2947 0.0835-0.0987 0.1589-0.2011 0.2417-0.3073-0.1004 0.4908-0.1062 1.0059-0.2608 1.4812-0.0051 0.0208-0.0051 0.0426 0 0.0634 0.0035 0.0212 0.012 0.0413 0.0247 0.0586s0.0294 0.0313 0.0486 0.0408c0.0189 0.0103 0.04 0.0156 0.0615 0.0155 0.4264 0.0059 2.4483 0.0803 2.5348 0.0597 0.1736-0.042 0.2081-0.2314 0.2403-0.3802 0.0388-0.1761 0.0381-1.1054 0.0806-1.395 0.1466 0.1402 0.3041 0.2683 0.471 0.3832 0.1678 0.0737 0.2645-0.0803 0.3663-0.1908 0.1099-0.1415 0.2198-0.2734 0.3326-0.4149 0.1041-0.1091 0.1978-0.2085 0.0916-0.3655zm-0.6996 0.6993c-0.1525-0.1622-0.3292-0.2994-0.5238-0.4068-0.0125-0.0229-0.0317-0.0414-0.055-0.053-0.0232-0.0125-0.0497-0.0176-0.0759-0.0145-0.0261 3e-3 -0.0508 0.014-0.0706 0.0314-0.0198 0.0169-0.0343 0.0392-0.0418 0.0642-0.0776 0.3198-0.1816 1.7759-0.1816 1.7759-0.0198-0.0045-1.5473-0.0568-2.2711-0.0664 0.1207-0.6265 0.2046-1.2596 0.2513-1.896-0.0063-0.022-0.0185-0.0419-0.0352-0.0575-0.0169-0.015-0.0377-0.025-0.06-0.0287-0.0223-4e-3 -0.0453-0.0011-0.066 0.0081-0.021 0.0087-0.0389 0.0236-0.0513 0.0427-0.1091 0.1555-0.2197 0.3125-0.3384 0.4621-0.0534 0.0728-0.1122 0.1416-0.1758 0.2056-0.0132-0.0155-0.203-0.3449-0.3136-0.482-0.0549-0.0685-0.2505-0.2851-0.282-0.3323 0.0527-0.0796 0.6761-0.8165 0.8227-0.9653 0.3926-0.3957 0.6454-0.3611 1.2022-0.3685-0.0717 0.1237-0.0976 0.2688-0.0733 0.4097 0.0037 0.0474 0.0169 0.0935 0.0388 0.1356 0.022 0.042 0.0521 0.0791 0.0887 0.1091 0.0364 0.0301 0.0785 0.0524 0.1238 0.0656 0.0451 0.0131 0.0924 0.0171 0.1392 0.0118 0.3458-0.0192 0.6512-0.2211 0.83-0.6632 0.1897 0.0072 0.377 0.0442 0.5553 0.1098 0.0974 0.0572 0.1872 0.1266 0.2674 0.2063 0.2168 0.3819 0.4617 0.7469 0.7326 1.0921 0.0234 0.0449-0.422 0.5909-0.4366 0.6042z" fill="#191919"/>
</g>
</g>
<defs>
<clipPath id="b">
<rect transform="translate(0 25.396)" width="38.832" height="34.882" fill="#fff"/>
</clipPath>
<clipPath id="a">
<rect transform="translate(4.9121 32.518)" width="29.006" height="16.807" fill="#fff"/>
</clipPath>
</defs>
</svg>
