<svg width="203" height="40" viewBox="0 0 203 40" fill="none" xmlns="http://www.w3.org/2000/svg">
<rect x="0.734375" width="201.483" height="40.0008" rx="20.0004" fill="white"/>
<path d="M31.2503 20.7389L33.4408 13.6797H34.8817L31.7233 22.7693C31.6505 22.9633 31.5535 23.172 31.4322 23.3951C31.3158 23.6232 31.1653 23.8391 30.981 24.0428C30.7966 24.2466 30.5734 24.4116 30.3115 24.5377C30.0543 24.6687 29.7462 24.7342 29.3872 24.7342C29.2805 24.7342 29.1446 24.7196 28.9797 24.6905C28.8147 24.6614 28.6983 24.6372 28.6304 24.6178L28.6231 23.5261C28.6619 23.531 28.7225 23.5358 28.805 23.5407C28.8923 23.5504 28.953 23.5552 28.987 23.5552C29.2926 23.5552 29.5522 23.514 29.7656 23.4315C29.9791 23.3539 30.1586 23.2205 30.3042 23.0313C30.4546 22.8469 30.5832 22.5922 30.6899 22.2671L31.2503 20.7389ZM29.6419 13.6797L31.6869 19.7928L32.0362 21.2119L31.0683 21.7068L28.1719 13.6797H29.6419Z" fill="#2D2520"/>
<path d="M20.7344 10.375H22.088V20.025L21.9715 21.5532H20.7344V10.375ZM27.4078 17.5506V17.7034C27.4078 18.2759 27.3399 18.8072 27.2041 19.2972C27.0682 19.7824 26.8693 20.2045 26.6073 20.5635C26.3453 20.9225 26.0251 21.2015 25.6467 21.4004C25.2683 21.5993 24.834 21.6988 24.344 21.6988C23.8443 21.6988 23.4052 21.6139 23.0268 21.4441C22.6532 21.2694 22.3378 21.0195 22.0807 20.6945C21.8236 20.3694 21.6174 19.9764 21.4621 19.5155C21.3117 19.0546 21.2074 18.5355 21.1492 17.9581V17.2886C21.2074 16.7064 21.3117 16.1849 21.4621 15.724C21.6174 15.263 21.8236 14.8701 22.0807 14.545C22.3378 14.2151 22.6532 13.9652 23.0268 13.7954C23.4004 13.6208 23.8346 13.5334 24.3295 13.5334C24.8243 13.5334 25.2634 13.6305 25.6467 13.8245C26.03 14.0137 26.3502 14.2854 26.6073 14.6396C26.8693 14.9938 27.0682 15.4183 27.2041 15.9132C27.3399 16.4032 27.4078 16.949 27.4078 17.5506ZM26.0542 17.7034V17.5506C26.0542 17.1576 26.0178 16.7889 25.9451 16.4444C25.8723 16.0951 25.7558 15.7895 25.5957 15.5275C25.4356 15.2606 25.2246 15.052 24.9626 14.9016C24.7006 14.7463 24.378 14.6687 23.9947 14.6687C23.6551 14.6687 23.3591 14.7269 23.1068 14.8434C22.8594 14.9598 22.6484 15.1175 22.4737 15.3164C22.299 15.5105 22.1559 15.7337 22.0443 15.9859C21.9376 16.2334 21.8575 16.4905 21.8042 16.7574V18.5112C21.8818 18.8509 22.0079 19.1783 22.1826 19.4937C22.3621 19.8042 22.5998 20.0589 22.8958 20.2578C23.1966 20.4567 23.5677 20.5562 24.0092 20.5562C24.3731 20.5562 24.6836 20.4834 24.9408 20.3379C25.2028 20.1875 25.4138 19.9813 25.5739 19.7193C25.7389 19.4573 25.8602 19.1541 25.9378 18.8096C26.0154 18.4651 26.0542 18.0964 26.0542 17.7034Z" fill="#2D2520"/>
<path d="M132.357 22.1803C130.78 22.007 129.049 22.3317 127.485 22.6004C124.682 23.0822 120.158 23.7915 117.922 24.0762C111.462 24.9151 107.146 25.3066 98.5737 25.8213C94.8085 26.0429 94.0947 26.1381 93.3583 26.4844C93.3213 26.5018 93.2857 26.5187 93.2514 26.5353C92.3252 26.982 92.3679 28.2577 93.2827 28.7275C94.4046 29.3037 97.9798 29.5098 104.136 29.3479C111.15 29.1651 115.247 28.8057 122.788 27.7522C130.365 26.6994 132.511 26.1623 133.571 25.0675C134.445 24.1671 134.212 22.8522 133.107 22.3661C132.982 22.2769 132.703 22.2183 132.357 22.1803Z" fill="#2D2520"/>
<path d="M142.217 16.6749C142.217 17.2639 142.117 17.8015 141.916 18.2876C141.715 18.7737 141.442 19.1921 141.096 19.5426C140.75 19.8885 140.343 20.1573 139.876 20.349C139.413 20.5406 138.915 20.6364 138.382 20.6364C137.854 20.6364 137.356 20.5383 136.889 20.3419C136.426 20.1456 136.019 19.8722 135.669 19.5216C135.323 19.171 135.049 18.755 134.848 18.2736C134.647 17.7874 134.547 17.2546 134.547 16.6749V10H136.468V13.5057C136.571 13.3749 136.695 13.258 136.84 13.1552C136.989 13.0523 137.148 12.9682 137.316 12.9028C137.489 12.8373 137.667 12.7882 137.849 12.7555C138.032 12.7181 138.209 12.6994 138.382 12.6994C138.915 12.6994 139.413 12.7999 139.876 13.0009C140.343 13.1972 140.75 13.473 141.096 13.8283C141.442 14.1835 141.715 14.6042 141.916 15.0903C142.117 15.5718 142.217 16.1 142.217 16.6749ZM140.289 16.6749C140.289 16.3851 140.238 16.1164 140.135 15.8686C140.037 15.6162 139.901 15.3988 139.728 15.2165C139.555 15.0343 139.352 14.8917 139.118 14.7888C138.889 14.686 138.644 14.6346 138.382 14.6346C138.12 14.6346 137.873 14.693 137.639 14.8099C137.41 14.9221 137.209 15.074 137.036 15.2656C136.863 15.4526 136.727 15.67 136.629 15.9177C136.531 16.1608 136.482 16.4132 136.482 16.6749C136.482 16.9647 136.531 17.2335 136.629 17.4813C136.727 17.729 136.863 17.944 137.036 18.1263C137.209 18.3086 137.41 18.4535 137.639 18.561C137.873 18.6639 138.12 18.7153 138.382 18.7153C138.644 18.7153 138.889 18.6639 139.118 18.561C139.352 18.4535 139.555 18.3086 139.728 18.1263C139.901 17.944 140.037 17.729 140.135 17.4813C140.238 17.2335 140.289 16.9647 140.289 16.6749Z" fill="#2D2520"/>
<path d="M133.249 20.496H132.786L132.043 19.4653C131.86 19.6289 131.666 19.7832 131.461 19.9281C131.26 20.0683 131.047 20.1922 130.823 20.2997C130.598 20.4025 130.367 20.4843 130.129 20.5451C129.895 20.6058 129.656 20.6362 129.413 20.6362C128.885 20.6362 128.387 20.5474 127.92 20.3698C127.457 20.1922 127.051 19.9351 126.7 19.5985C126.354 19.2573 126.081 18.8413 125.88 18.3505C125.679 17.8597 125.578 17.3011 125.578 16.6747C125.578 16.0904 125.679 15.5552 125.88 15.0691C126.081 14.5783 126.354 14.1576 126.7 13.807C127.051 13.4565 127.457 13.1853 127.92 12.9937C128.387 12.7974 128.885 12.6992 129.413 12.6992C129.656 12.6992 129.897 12.7296 130.136 12.7904C130.374 12.8511 130.605 12.9353 130.83 13.0428C131.054 13.1503 131.267 13.2765 131.468 13.4214C131.673 13.5663 131.865 13.7229 132.043 13.8912L132.786 13.0007H133.249V20.496ZM131.321 16.6747C131.321 16.413 131.269 16.1606 131.166 15.9175C131.068 15.6698 130.933 15.4524 130.76 15.2654C130.587 15.0738 130.383 14.9219 130.15 14.8097C129.921 14.6928 129.675 14.6344 129.413 14.6344C129.152 14.6344 128.904 14.6788 128.67 14.7676C128.441 14.8564 128.24 14.9873 128.067 15.1603C127.899 15.3332 127.766 15.5482 127.668 15.8053C127.569 16.0577 127.52 16.3475 127.52 16.6747C127.52 17.0019 127.569 17.2941 127.668 17.5512C127.766 17.8036 127.899 18.0163 128.067 18.1892C128.24 18.3622 128.441 18.493 128.67 18.5819C128.904 18.6707 129.152 18.7151 129.413 18.7151C129.675 18.7151 129.921 18.659 130.15 18.5468C130.383 18.4299 130.587 18.278 130.76 18.0911C130.933 17.8994 131.068 17.6821 131.166 17.439C131.269 17.1912 131.321 16.9365 131.321 16.6747Z" fill="#2D2520"/>
<path d="M125.321 20.4959H118.281V10.4414H120.294V18.4836H125.321V20.4959Z" fill="#2D2520"/>
<path d="M113.512 18.659C113.586 18.6824 113.661 18.6987 113.736 18.7081C113.811 18.7127 113.885 18.7151 113.96 18.7151C114.147 18.7151 114.327 18.6894 114.5 18.638C114.673 18.5865 114.834 18.5141 114.984 18.4206C115.138 18.3224 115.274 18.2056 115.391 18.07C115.512 17.9298 115.61 17.7755 115.685 17.6073L117.087 19.0166C116.91 19.269 116.704 19.4957 116.47 19.6967C116.241 19.8977 115.991 20.0683 115.72 20.2085C115.454 20.3488 115.171 20.4539 114.872 20.524C114.577 20.5988 114.273 20.6362 113.96 20.6362C113.432 20.6362 112.934 20.5381 112.467 20.3417C112.004 20.1454 111.597 19.872 111.247 19.5214C110.901 19.1708 110.627 18.7548 110.426 18.2734C110.225 17.7872 110.125 17.2544 110.125 16.6747C110.125 16.0811 110.225 15.5389 110.426 15.0481C110.627 14.5573 110.901 14.1389 111.247 13.793C111.597 13.4471 112.004 13.1783 112.467 12.9867C112.934 12.795 113.432 12.6992 113.96 12.6992C114.273 12.6992 114.58 12.7366 114.879 12.8114C115.178 12.8862 115.461 12.9937 115.727 13.1339C115.998 13.2742 116.251 13.4471 116.484 13.6528C116.718 13.8538 116.924 14.0805 117.101 14.3329L113.512 18.659ZM114.493 14.7115C114.404 14.6788 114.316 14.6578 114.227 14.6484C114.143 14.6391 114.054 14.6344 113.96 14.6344C113.699 14.6344 113.451 14.6835 113.217 14.7816C112.988 14.8751 112.787 15.0107 112.614 15.1883C112.446 15.3659 112.313 15.5809 112.214 15.8334C112.116 16.0811 112.067 16.3616 112.067 16.6747C112.067 16.7448 112.07 16.8243 112.074 16.9131C112.084 17.0019 112.095 17.0931 112.109 17.1866C112.128 17.2754 112.149 17.3619 112.172 17.446C112.196 17.5301 112.226 17.6049 112.264 17.6704L114.493 14.7115Z" fill="#2D2520"/>
<path d="M109.128 20.496H107.221V15.7282C107.221 15.5973 107.195 15.4735 107.144 15.3566C107.097 15.2398 107.029 15.1369 106.94 15.0481C106.851 14.9593 106.749 14.8915 106.632 14.8448C106.515 14.7934 106.391 14.7677 106.26 14.7677C106.129 14.7677 106.005 14.7934 105.888 14.8448C105.776 14.8915 105.676 14.9593 105.587 15.0481C105.503 15.1369 105.435 15.2398 105.384 15.3566C105.337 15.4735 105.314 15.5973 105.314 15.7282V20.496H103.399V15.7282C103.399 15.5973 103.374 15.4735 103.322 15.3566C103.276 15.2398 103.208 15.1369 103.119 15.0481C103.03 14.9593 102.927 14.8915 102.81 14.8448C102.694 14.7934 102.57 14.7677 102.439 14.7677C102.308 14.7677 102.184 14.7934 102.067 14.8448C101.955 14.8915 101.855 14.9593 101.766 15.0481C101.682 15.1369 101.614 15.2398 101.562 15.3566C101.516 15.4735 101.492 15.5973 101.492 15.7282V20.496H99.5781V12.9867H100.041L100.56 13.5617C100.826 13.3373 101.118 13.1644 101.436 13.0428C101.759 12.9166 102.093 12.8535 102.439 12.8535C102.789 12.8535 103.131 12.919 103.462 13.0498C103.799 13.1807 104.094 13.4074 104.346 13.73C104.463 13.571 104.596 13.4355 104.746 13.3233C104.895 13.2111 105.052 13.12 105.215 13.0498C105.384 12.9797 105.557 12.9306 105.734 12.9026C105.912 12.8699 106.087 12.8535 106.26 12.8535C106.657 12.8535 107.029 12.9283 107.375 13.0779C107.725 13.2275 108.029 13.4331 108.286 13.6949C108.548 13.952 108.754 14.2558 108.903 14.6064C109.053 14.957 109.128 15.3309 109.128 15.7282V20.496Z" fill="#2D2520"/>
<path d="M98.1747 20.496H96.2675V15.7282C96.2675 15.5973 96.2418 15.4735 96.1904 15.3566C96.1437 15.2398 96.0759 15.1369 95.9871 15.0481C95.8983 14.9593 95.7954 14.8915 95.6786 14.8448C95.5617 14.7934 95.4378 14.7677 95.307 14.7677C95.1761 14.7677 95.0522 14.7934 94.9353 14.8448C94.8232 14.8915 94.7227 14.9593 94.6338 15.0481C94.5497 15.1369 94.4819 15.2398 94.4305 15.3566C94.3838 15.4735 94.3604 15.5973 94.3604 15.7282V20.496H92.4463V15.7282C92.4463 15.5973 92.4206 15.4735 92.3691 15.3566C92.3224 15.2398 92.2546 15.1369 92.1658 15.0481C92.077 14.9593 91.9742 14.8915 91.8573 14.8448C91.7404 14.7934 91.6166 14.7677 91.4857 14.7677C91.3548 14.7677 91.2309 14.7934 91.1141 14.8448C91.0019 14.8915 90.9014 14.9593 90.8126 15.0481C90.7284 15.1369 90.6607 15.2398 90.6093 15.3566C90.5625 15.4735 90.5391 15.5973 90.5391 15.7282V20.496H88.625V12.9867H89.0878L89.6066 13.5617C89.873 13.3373 90.1652 13.1644 90.483 13.0428C90.8056 12.9166 91.1398 12.8535 91.4857 12.8535C91.8363 12.8535 92.1775 12.919 92.5094 13.0498C92.8459 13.1807 93.1404 13.4074 93.3928 13.73C93.5097 13.571 93.6429 13.4355 93.7925 13.3233C93.942 13.2111 94.0986 13.12 94.2622 13.0498C94.4305 12.9797 94.6035 12.9306 94.7811 12.9026C94.9587 12.8699 95.134 12.8535 95.307 12.8535C95.7043 12.8535 96.0759 12.9283 96.4218 13.0779C96.7724 13.2275 97.0762 13.4331 97.3333 13.6949C97.595 13.952 97.8007 14.2558 97.9503 14.6064C98.0999 14.957 98.1747 15.3309 98.1747 15.7282V20.496Z" fill="#2D2520"/>
<path d="M87.1549 20.496H86.6922L85.949 19.4653C85.7667 19.6289 85.5727 19.7832 85.367 19.9281C85.166 20.0683 84.9533 20.1922 84.729 20.2997C84.5046 20.4025 84.2732 20.4843 84.0348 20.5451C83.8011 20.6058 83.5627 20.6362 83.3197 20.6362C82.7915 20.6362 82.2936 20.5474 81.8262 20.3698C81.3635 20.1922 80.9568 19.9351 80.6062 19.5985C80.2603 19.2573 79.9869 18.8413 79.7859 18.3505C79.5849 17.8597 79.4844 17.3011 79.4844 16.6747C79.4844 16.0904 79.5849 15.5552 79.7859 15.0691C79.9869 14.5783 80.2603 14.1576 80.6062 13.807C80.9568 13.4565 81.3635 13.1853 81.8262 12.9937C82.2936 12.7974 82.7915 12.6992 83.3197 12.6992C83.5627 12.6992 83.8035 12.7296 84.0418 12.7904C84.2802 12.8511 84.5116 12.9353 84.736 13.0428C84.9603 13.1503 85.173 13.2765 85.374 13.4214C85.5797 13.5663 85.7713 13.7229 85.949 13.8912L86.6922 13.0007H87.1549V20.496ZM85.2268 16.6747C85.2268 16.413 85.1754 16.1606 85.0725 15.9175C84.9744 15.6698 84.8388 15.4524 84.6659 15.2654C84.4929 15.0738 84.2896 14.9219 84.0559 14.8097C83.8268 14.6928 83.5814 14.6344 83.3197 14.6344C83.0579 14.6344 82.8102 14.6788 82.5764 14.7676C82.3474 14.8564 82.1464 14.9873 81.9735 15.1603C81.8052 15.3332 81.672 15.5482 81.5738 15.8053C81.4756 16.0577 81.4266 16.3475 81.4266 16.6747C81.4266 17.0019 81.4756 17.2941 81.5738 17.5512C81.672 17.8036 81.8052 18.0163 81.9735 18.1892C82.1464 18.3622 82.3474 18.493 82.5764 18.5819C82.8102 18.6707 83.0579 18.7151 83.3197 18.7151C83.5814 18.7151 83.8268 18.659 84.0559 18.5468C84.2896 18.4299 84.4929 18.278 84.6659 18.0911C84.8388 17.8994 84.9744 17.6821 85.0725 17.439C85.1754 17.1912 85.2268 16.9365 85.2268 16.6747Z" fill="#2D2520"/>
<path d="M75.9923 20.4956H74.0781V12.9863H74.5409L75.1719 13.8768C75.4804 13.5963 75.831 13.3813 76.2236 13.2317C76.6163 13.0775 77.023 13.0004 77.4436 13.0004H79.1334V14.9075H77.4436C77.2426 14.9075 77.0533 14.9449 76.8757 15.0197C76.6981 15.0944 76.5438 15.1973 76.413 15.3282C76.2821 15.459 76.1792 15.6133 76.1044 15.7909C76.0297 15.9685 75.9923 16.1579 75.9923 16.3589V20.4956Z" fill="#2D2520"/>
<path d="M70.6955 16.6747C70.6955 16.413 70.6441 16.1606 70.5413 15.9175C70.4431 15.6698 70.3076 15.4524 70.1346 15.2654C69.9617 15.0738 69.7583 14.9219 69.5246 14.8097C69.2956 14.6928 69.0502 14.6344 68.7884 14.6344C68.5266 14.6344 68.2789 14.6788 68.0452 14.7676C67.8162 14.8564 67.6152 14.9873 67.4422 15.1603C67.2739 15.3332 67.1407 15.5482 67.0425 15.8053C66.9444 16.0577 66.8953 16.3475 66.8953 16.6747C66.8953 16.9879 66.9444 17.2707 67.0425 17.5231C67.1407 17.7709 67.2739 17.9835 67.4422 18.1612C67.6152 18.3388 67.8162 18.4767 68.0452 18.5748C68.2789 18.6683 68.5266 18.7151 68.7884 18.7151C69.0502 18.7151 69.2956 18.659 69.5246 18.5468C69.7583 18.4299 69.9617 18.278 70.1346 18.0911C70.3076 17.8994 70.4431 17.6821 70.5413 17.439C70.6441 17.1912 70.6955 16.9365 70.6955 16.6747ZM72.6237 19.5494C72.6237 20.0776 72.5232 20.5731 72.3222 21.0359C72.1212 21.4986 71.8454 21.903 71.4948 22.2489C71.1489 22.5948 70.7423 22.8682 70.2748 23.0692C69.8121 23.2702 69.3166 23.3707 68.7884 23.3707L67.8278 23.3567V21.4425L68.7744 21.4566C69.0735 21.4566 69.3283 21.4168 69.5386 21.3374C69.749 21.2626 69.9266 21.1574 70.0715 21.0219C70.2164 20.891 70.3309 20.7391 70.4151 20.5661C70.5039 20.3932 70.574 20.2109 70.6254 20.0192C70.5506 20.1407 70.4431 20.2412 70.3029 20.3207C70.1627 20.3955 70.0061 20.4563 69.8331 20.503C69.6648 20.5544 69.4872 20.5895 69.3002 20.6082C69.118 20.6269 68.9473 20.6362 68.7884 20.6362C68.2602 20.6362 67.7624 20.5451 67.295 20.3628C66.8322 20.1805 66.4255 19.9211 66.075 19.5845C65.7291 19.2433 65.4556 18.8273 65.2546 18.3365C65.0536 17.8457 64.9531 17.2917 64.9531 16.6747C64.9531 16.1091 65.0536 15.5833 65.2546 15.0971C65.4556 14.611 65.7291 14.1903 66.075 13.8351C66.4255 13.4798 66.8322 13.2017 67.295 13.0007C67.7624 12.7997 68.2602 12.6992 68.7884 12.6992C69.0315 12.6992 69.2722 12.7296 69.5106 12.7904C69.749 12.8511 69.9804 12.9353 70.2047 13.0428C70.4291 13.1503 70.6418 13.2765 70.8428 13.4214C71.0484 13.5663 71.2401 13.7229 71.4177 13.8912L72.1609 13.0007H72.6237V19.5494Z" fill="#2D2520"/>
<path d="M64.2956 16.6747C64.2956 17.2357 64.1951 17.7592 63.9941 18.2453C63.7931 18.7268 63.5196 19.1451 63.1737 19.5004C62.8278 19.8509 62.4212 20.1291 61.9537 20.3347C61.491 20.5357 60.9932 20.6362 60.4603 20.6362C59.9321 20.6362 59.4343 20.5357 58.9668 20.3347C58.5041 20.1291 58.0974 19.8509 57.7468 19.5004C57.4009 19.1451 57.1275 18.7268 56.9265 18.2453C56.7255 17.7592 56.625 17.2357 56.625 16.6747C56.625 16.1045 56.7255 15.5763 56.9265 15.0901C57.1275 14.604 57.4009 14.1857 57.7468 13.8351C58.0974 13.4798 58.5041 13.2017 58.9668 13.0007C59.4343 12.7997 59.9321 12.6992 60.4603 12.6992C60.9932 12.6992 61.491 12.795 61.9537 12.9867C62.4212 13.1737 62.8278 13.4424 63.1737 13.793C63.5196 14.1389 63.7931 14.5573 63.9941 15.0481C64.1951 15.5342 64.2956 16.0764 64.2956 16.6747ZM62.3674 16.6747C62.3674 16.3662 62.316 16.0881 62.2132 15.8404C62.115 15.588 61.9794 15.3729 61.8065 15.1953C61.6335 15.013 61.4302 14.8751 61.1965 14.7816C60.9674 14.6835 60.722 14.6344 60.4603 14.6344C60.1985 14.6344 59.9508 14.6835 59.7171 14.7816C59.488 14.8751 59.287 15.013 59.1141 15.1953C58.9458 15.3729 58.8126 15.588 58.7144 15.8404C58.6163 16.0881 58.5672 16.3662 58.5672 16.6747C58.5672 16.9645 58.6163 17.2333 58.7144 17.4811C58.8126 17.7288 58.9458 17.9438 59.1141 18.1261C59.287 18.3084 59.488 18.4533 59.7171 18.5608C59.9508 18.6637 60.1985 18.7151 60.4603 18.7151C60.722 18.7151 60.9674 18.666 61.1965 18.5678C61.4302 18.4697 61.6335 18.3318 61.8065 18.1542C61.9794 17.9765 62.115 17.7615 62.2132 17.5091C62.316 17.2567 62.3674 16.9786 62.3674 16.6747Z" fill="#2D2520"/>
<path d="M53.1485 20.4956H51.2344V12.9863H51.6971L52.3282 13.8768C52.6367 13.5963 52.9872 13.3813 53.3799 13.2317C53.7725 13.0775 54.1792 13.0004 54.5999 13.0004H56.2897V14.9075H54.5999C54.3989 14.9075 54.2096 14.9449 54.032 15.0197C53.8543 15.0944 53.7001 15.1973 53.5692 15.3282C53.4383 15.459 53.3355 15.6133 53.2607 15.7909C53.1859 15.9685 53.1485 16.1579 53.1485 16.3589V20.4956Z" fill="#2D2520"/>
<path d="M44.2154 12.4537V16.4783H46.2277C46.5035 16.4783 46.7629 16.4269 47.006 16.324C47.2491 16.2165 47.4617 16.0716 47.644 15.8893C47.8263 15.707 47.9689 15.4944 48.0717 15.2513C48.1793 15.0035 48.233 14.7418 48.233 14.466C48.233 14.1902 48.1793 13.9308 48.0717 13.6877C47.9689 13.44 47.8263 13.225 47.644 13.0427C47.4617 12.8604 47.2491 12.7178 47.006 12.615C46.7629 12.5075 46.5035 12.4537 46.2277 12.4537H44.2154ZM44.2154 20.4959H42.2031V10.4414H46.2277C46.597 10.4414 46.9522 10.4905 47.2935 10.5886C47.6347 10.6821 47.9525 10.8177 48.247 10.9953C48.5462 11.1683 48.8173 11.3786 49.0604 11.6263C49.3081 11.8694 49.5184 12.1405 49.6914 12.4397C49.869 12.7388 50.0046 13.059 50.0981 13.4003C50.1962 13.7415 50.2453 14.0967 50.2453 14.466C50.2453 15.0176 50.1401 15.5388 49.9298 16.0296C49.7194 16.5157 49.432 16.9411 49.0674 17.3057C48.7028 17.6703 48.2751 17.9577 47.7843 18.1681C47.2981 18.3784 46.7793 18.4836 46.2277 18.4836H44.2154V20.4959Z" fill="#2D2520"/>
<line x1="152.719" y1="12" x2="152.719" y2="30" stroke="#545454" stroke-opacity="0.5"/>
<g clip-path="url(#clip0_3346_11086)">
<path fill-rule="evenodd" clip-rule="evenodd" d="M170.889 28.6703C166.106 28.6703 162.219 24.7823 162.219 20.0002C162.219 15.2181 166.106 11.3301 170.889 11.3301C173.296 11.3301 175.541 12.2897 177.2 14.0462C177.236 14.0824 177.258 14.1303 177.262 14.1812C177.266 14.2321 177.251 14.2827 177.221 14.3239L177.73 14.9892C177.827 14.9394 177.953 14.95 178.03 15.0713C179.039 16.5187 179.559 18.2271 179.559 19.9997C179.559 24.7823 175.671 28.6703 170.889 28.6703ZM170.889 26.8806C167.099 26.8806 164.008 23.7899 164.008 20.0002C164.008 16.2105 167.099 13.1188 170.889 13.1188C172.694 13.1188 174.402 13.8183 175.687 15.0704C175.709 15.0891 175.726 15.1119 175.739 15.1374C175.752 15.1629 175.759 15.1907 175.761 15.2191C175.763 15.2476 175.759 15.2761 175.75 15.3031C175.741 15.3301 175.726 15.3549 175.707 15.3763L176.351 16.1759C176.45 16.1182 176.586 16.1237 176.663 16.2418C179.588 20.6922 176.414 26.8806 170.889 26.8806Z" fill="#545454"/>
<path fill-rule="evenodd" clip-rule="evenodd" d="M171.117 24.4575C171.071 24.4568 171.027 24.4425 170.989 24.4165C170.951 24.3905 170.922 24.3538 170.905 24.3113C170.889 24.279 169.49 20.6673 167.327 19.3008C166.904 19.0406 166.579 18.7642 166.709 18.146C166.839 17.5443 167.245 17.2024 167.977 17.04C169.279 16.7632 170.678 18.7803 171.198 19.6099C173.02 16.9588 176.664 12.7945 181.967 12.3064C182.222 12.2764 182.317 12.6556 182.081 12.7617C181.999 12.794 174.419 16.2589 171.345 24.3274C171.322 24.3673 171.288 24.4004 171.248 24.4232C171.208 24.4461 171.163 24.4579 171.117 24.4575Z" fill="#0167FF"/>
</g>
<defs>
<clipPath id="clip0_3346_11086">
<rect width="20" height="20" fill="white" transform="translate(162.219 10)"/>
</clipPath>
</defs>
</svg>
